<svg id="Capa_1" enable-background="new 0 0 512 512" height="512" viewBox="0 0 512 512" width="512" xmlns="http://www.w3.org/2000/svg"><g><path d="m502 245.436h-37.583v-44.953c0-25.902-21.077-46.975-46.984-46.975h-54.071v-74.296c0-5.523-4.478-10-10-10h-194.723c-5.522 0-10 4.477-10 10v74.296h-54.072c-25.907 0-46.984 21.073-46.984 46.975v44.953h-37.583c-5.522 0-10 4.477-10 10v95.425c0 5.523 4.478 10 10 10h37.583v34.953c0 25.902 21.077 46.975 46.984 46.975h96.062c24.845 0 45.247-19.38 46.879-43.814h36.984c1.632 24.434 22.034 43.814 46.879 43.814h96.062c25.907 0 46.984-21.073 46.984-46.975v-34.953h37.583c5.522 0 10-4.477 10-10v-95.425c0-5.523-4.478-10-10-10zm-158.639-91.928h-40.957v-64.296h40.957zm-60.957-64.296v64.296h-52.809v-64.296zm-113.765 0h40.957v64.296h-40.957zm-148.639 251.649v-75.425h27.583v75.425zm91.409 38.113v-161.651h289.182v161.651zm333.008 16.839c0 14.874-12.105 26.975-26.984 26.975h-96.062c-13.809 0-25.222-10.425-26.793-23.814h116.013c5.522 0 10-4.477 10-10v-181.651c0-5.523-4.478-10-10-10h-309.182c-5.522 0-10 4.477-10 10v181.651c0 5.523 4.478 10 10 10h116.013c-1.571 13.389-12.984 23.814-26.793 23.814h-96.062c-14.879 0-26.984-12.101-26.984-26.975v-195.33c0-14.874 12.105-26.975 26.984-26.975h322.865c14.879 0 26.984 12.101 26.984 26.975v195.33zm47.583-54.952h-27.583v-75.425h27.583z"/><path d="m246.643 259.336c-5.234-1.739-10.901 1.096-12.643 6.338l-11.166 33.612-11.748-33.847c-1.811-5.216-7.507-7.977-12.727-6.168-5.218 1.811-7.979 7.509-6.168 12.727l20.149 58.047c1.604 4.515 5.888 7.534 10.674 7.534h.079c4.818-.034 9.097-3.121 10.669-7.748l19.218-57.851c1.742-5.242-1.096-10.902-6.337-12.644z"/><path d="m288.539 327.578v-9.659l14.315 16.266c1.977 2.246 4.736 3.393 7.511 3.393 2.347 0 4.703-.821 6.603-2.493 4.146-3.649 4.549-9.968.9-14.114l-12.426-14.118c8.814-4.074 14.919-12.778 14.919-22.838 0-13.949-11.736-25.297-26.163-25.297h-15.641c-.003 0-.006 0-.009 0s-.006 0-.009 0c-5.522 0-10 4.477-10 10v58.86c0 5.523 4.478 10 10 10s10-4.477 10-10zm5.659-48.86c3.283 0 6.163 2.475 6.163 5.297s-2.88 5.297-6.163 5.297c-1.37 0-3.42.007-5.586.016-.009-2.068-.016-4.012-.016-5.313 0-1.128-.004-3.117-.01-5.297z"/></g></svg>