<?xml version="1.0" encoding="UTF-8" standalone="no"?>
<!-- Created with Inkscape (http://www.inkscape.org/) -->

<svg
   width="1337.7994mm"
   height="666.41925mm"
   viewBox="0 0 1337.7994 666.41925"
   version="1.1"
   id="svg5"
   inkscape:version="1.1 (c68e22c387, 2021-05-23)"
   sodipodi:docname="columnas.svg"
   inkscape:export-filename="C:\Users\Carlos\Documents\dev-cv\columnas.png"
   inkscape:export-xdpi="96"
   inkscape:export-ydpi="96"
   xmlns:inkscape="http://www.inkscape.org/namespaces/inkscape"
   xmlns:sodipodi="http://sodipodi.sourceforge.net/DTD/sodipodi-0.dtd"
   xmlns="http://www.w3.org/2000/svg"
   xmlns:svg="http://www.w3.org/2000/svg">
  <sodipodi:namedview
     id="namedview7"
     pagecolor="#ffffff"
     bordercolor="#666666"
     borderopacity="1.0"
     inkscape:pageshadow="2"
     inkscape:pageopacity="0.0"
     inkscape:pagecheckerboard="0"
     inkscape:document-units="mm"
     showgrid="false"
     inkscape:zoom="0.11313708"
     inkscape:cx="2070.4617"
     inkscape:cy="1282.547"
     inkscape:window-width="1920"
     inkscape:window-height="1017"
     inkscape:window-x="-8"
     inkscape:window-y="-8"
     inkscape:window-maximized="1"
     inkscape:current-layer="layer1" />
  <defs
     id="defs2">
    <inkscape:path-effect
       effect="bspline"
       id="path-effect6725"
       is_visible="true"
       lpeversion="1"
       weight="33.333333"
       steps="2"
       helper_size="0"
       apply_no_weight="true"
       apply_with_weight="true"
       only_selected="false" />
    <inkscape:path-effect
       effect="bspline"
       id="path-effect5843"
       is_visible="true"
       lpeversion="1"
       weight="33.333333"
       steps="2"
       helper_size="0"
       apply_no_weight="true"
       apply_with_weight="true"
       only_selected="false" />
  </defs>
  <g
     inkscape:label="Capa 1"
     inkscape:groupmode="layer"
     id="layer1"
     transform="translate(-587.04425,348.91928)">
    <path
       id="rect3682-5"
       style="fill:#9e9e9e;stroke-width:0.0649999;stroke-linecap:round;stroke-linejoin:bevel;paint-order:stroke fill markers;fill-opacity:1"
       d="M 553.48749,243.62212 H 1940.8963 v 119.0625 H 553.48749 Z" />
    <path
       id="path3887"
       style="fill:#9e9e9e;stroke-width:0.033737;stroke-linecap:round;stroke-linejoin:bevel;paint-order:stroke fill markers;fill-opacity:1"
       inkscape:transform-center-x="0.75194328"
       inkscape:transform-center-y="8.7273445"
       d="m 1182.9309,-229.1619 -83.0463,-63.49897 173.6122,1.35584 z"
       sodipodi:nodetypes="cccc" />
    <path
       id="path3887-5"
       style="fill:#9e9e9e;stroke-width:0.0375138;stroke-linecap:round;stroke-linejoin:bevel;paint-order:stroke fill markers;fill-opacity:1"
       inkscape:transform-center-x="0.65741296"
       inkscape:transform-center-y="12.343023"
       d="m 1398.5562,-239.4146 -46.6921,-67.90273 89.9258,2.24368 z"
       sodipodi:nodetypes="cccc" />
    <path
       id="path3887-5-6"
       style="fill:#9e9e9e;stroke-width:0.0411349;stroke-linecap:round;stroke-linejoin:bevel;paint-order:stroke fill markers;fill-opacity:1"
       inkscape:transform-center-x="-1.5540745"
       inkscape:transform-center-y="6.647946"
       d="m 1728.2407,-177.56959 -71.5072,-134.3082 193.6521,10.67648 z"
       sodipodi:nodetypes="cccc" />
    <path
       id="path3887-7"
       style="fill:#9e9e9e;stroke-width:0.0649999;stroke-linecap:round;stroke-linejoin:bevel;paint-order:stroke fill markers;fill-opacity:1"
       inkscape:transform-center-x="0.82682459"
       inkscape:transform-center-y="29.462983"
       d="m 783.4504,-211.19063 -116.26064,-105.291 280.90907,0.18171 z"
       sodipodi:nodetypes="cccc" />
    <path
       style="fill:#9e9e9e;fill-opacity:1;stroke:none;stroke-width:0.264583px;stroke-linecap:butt;stroke-linejoin:miter;stroke-opacity:1"
       d="m 582.32234,-236.70707 c 18.35666,-0.0231 54.99156,-11.14842 138.69241,-21.5405 83.70085,-10.39207 214.45821,-20.04994 342.30965,-23.04211 127.8514,-2.99216 252.7814,0.68171 359.949,3.99813 107.1676,3.31642 196.5597,6.27498 278.9421,13.08057 82.3824,6.80558 157.7449,17.45732 198.3686,26.88925 40.6236,9.43192 46.5034,17.64259 47.2634,-5.4403 0.7599,-23.0829 -3.5999,-77.45765 -9.8743,-105.80806 -6.2745,-28.3504 -14.4634,-30.67509 -240.1435,-30.48793 -225.6802,0.18717 -668.8337,2.88624 -896.0663,4.44026 -227.23259,1.55401 -238.53497,1.96291 -242.2055,21.06831 -3.67053,19.1054 0.29108,56.90549 2.31067,81.34581 2.01958,24.44032 2.0971,35.51969 20.45377,35.49657 z"
       id="path5841"
       inkscape:path-effect="#path-effect5843"
       inkscape:original-d="m 564.04319,-225.60462 c 36.63591,-11.12526 73.27081,-22.25055 109.90692,-33.37656 130.76551,-9.65818 261.52287,-19.31605 392.28789,-28.97476 124.9378,3.67436 249.8678,7.34822 374.8051,11.02205 89.3979,2.95901 178.79,5.91758 268.1874,8.87606 75.3674,10.65266 150.7299,21.30439 226.0969,31.95654 5.8804,8.21144 11.7602,16.42209 17.64,24.63299 -4.3597,-54.37665 -8.7195,-108.7514 -13.0797,-163.12749 -8.189,-2.32453 -16.3779,-4.64923 -24.5673,-6.97424 -443.1709,2.69944 -886.3244,5.39852 -1329.48703,8.09738 -11.30255,0.40917 -22.60493,0.81807 -33.90779,1.22671 3.96203,37.80187 7.92363,75.60196 11.88505,113.40254 0.0778,11.08008 0.15531,22.15945 0.23256,33.23878 z"
       sodipodi:nodetypes="ccccccccccccc" />
    <path
       style="fill:#9e9e9e;fill-opacity:1;stroke:none;stroke-width:0.264583px;stroke-linecap:butt;stroke-linejoin:miter;stroke-opacity:1"
       d="m 968.62525,-313.46009 11.65765,258.224413 -42.56919,251.426597 -24.71644,52.13178 147.17283,-1.076 -28.2267,-67.75178 -2.0344,-224.892701 30.4937,-270.660299 z"
       id="path8496"
       sodipodi:nodetypes="ccccccccc" />
    <path
       id="path8496-6"
       style="fill:#9e9e9e;fill-opacity:1;stroke:none;stroke-width:0.236583px;stroke-linecap:butt;stroke-linejoin:miter;stroke-opacity:1"
       d="m 1926.5491,-281.93009 -61.0237,-3.55999 38.6695,51.29403 -0.9627,63.66795 3.5558,187.786989 -28.3352,200.154191 -51.1995,41.43621 99.2958,-8.11008 z" />
    <path
       id="path10109"
       style="fill:#9e9e9e;fill-opacity:1;stroke:none;stroke-width:0.894172px;stroke-linecap:butt;stroke-linejoin:miter;stroke-opacity:1"
       d="M -2.0917969 253.1875 L -2.0917969 2266.4258 L 211.03711 2249.0176 L 107.22656 2133.6055 L 93.460938 1589.5742 L 97.457031 989.87305 L 173.75977 408.88867 L 283.86914 269.86914 L -2.0917969 253.1875 z "
       transform="matrix(0.26458333,0,0,0.26458333,587.04425,-348.91928)" />
    <path
       style="fill:#9e9e9e;fill-opacity:1;stroke:none;stroke-width:0.264583px;stroke-linecap:butt;stroke-linejoin:miter;stroke-opacity:1"
       d="m 1470.7483,-309.23066 13.2036,194.55634 -37.4725,331.61991 -8.2122,33.08688 99.2241,3.1393 -3.4248,-69.44742 -3.0236,-320.80262 31.4829,-174.75038 z"
       id="path8496-2"
       sodipodi:nodetypes="ccccccccc" />
  </g>
</svg>
