<?xml version="1.0" encoding="UTF-8" standalone="no"?>
<!-- Created with Inkscape (http://www.inkscape.org/) -->

<svg
   width="508.74802mm"
   height="243.45659mm"
   viewBox="0 0 508.74802 243.45659"
   version="1.1"
   id="svg5"
   inkscape:version="1.1 (c68e22c387, 2021-05-23)"
   sodipodi:docname="depth3.svg"
   xmlns:inkscape="http://www.inkscape.org/namespaces/inkscape"
   xmlns:sodipodi="http://sodipodi.sourceforge.net/DTD/sodipodi-0.dtd"
   xmlns="http://www.w3.org/2000/svg"
   xmlns:svg="http://www.w3.org/2000/svg">
  <sodipodi:namedview
     id="namedview7"
     pagecolor="#ffffff"
     bordercolor="#666666"
     borderopacity="1.0"
     inkscape:pageshadow="2"
     inkscape:pageopacity="0.0"
     inkscape:pagecheckerboard="0"
     inkscape:document-units="mm"
     showgrid="false"
     inkscape:zoom="4.192802"
     inkscape:cx="1811.6159"
     inkscape:cy="629.55342"
     inkscape:window-width="1920"
     inkscape:window-height="1017"
     inkscape:window-x="-8"
     inkscape:window-y="-8"
     inkscape:window-maximized="1"
     inkscape:current-layer="layer1" />
  <defs
     id="defs2">
    <inkscape:path-effect
       effect="bspline"
       id="path-effect2689"
       is_visible="true"
       lpeversion="1"
       weight="33.333333"
       steps="2"
       helper_size="0"
       apply_no_weight="true"
       apply_with_weight="true"
       only_selected="false" />
    <inkscape:path-effect
       effect="bspline"
       id="path-effect1825"
       is_visible="true"
       lpeversion="1"
       weight="33.333333"
       steps="2"
       helper_size="0"
       apply_no_weight="true"
       apply_with_weight="true"
       only_selected="false" />
    <inkscape:path-effect
       effect="bspline"
       id="path-effect1548"
       is_visible="true"
       lpeversion="1"
       weight="33.333333"
       steps="2"
       helper_size="0"
       apply_no_weight="true"
       apply_with_weight="true"
       only_selected="false" />
  </defs>
  <g
     inkscape:label="Capa 1"
     inkscape:groupmode="layer"
     id="layer1"
     transform="translate(144.68665,-22.901356)">
    <path
       id="path2771"
       style="fill:#4b4b4b;fill-opacity:1;stroke:none;stroke-width:0.264583;stroke-opacity:1"
       d="m -94.725359,22.899672 c 0,0 -3.341225,141.167518 -2.364896,141.723028 3.353807,3.7859 13.64696,19.14364 13.793139,19.14364 0.243033,0 4.070035,-2.74119 15.757695,-11.2882 2.355225,-1.72234 6.603325,-4.82823 9.440251,-6.90191 2.83692,-2.07367 5.268624,-3.77031 5.403802,-3.77031 0.135178,0 3.566607,1.41211 7.625376,3.13831 16.938366,7.20389 27.136521,11.55209 29.953725,12.7708 l 2.995168,1.29552 11.8214986,-7.71994 C 6.2021936,167.04459 13.0828,162.5769 14.990424,161.36202 l 3.468005,-2.20917 12.683979,1.26401 12.68398,1.264 5.675624,3.68608 c 3.121734,2.02745 7.343013,4.77473 9.380305,6.10506 2.037291,1.33034 6.286185,4.10513 9.442317,6.16603 3.15613,2.0609 5.80992,3.74706 5.896798,3.74706 0.153048,0 3.651266,-3.05476 17.434594,-15.2244 3.619061,-3.19535 6.914954,-6.08032 7.324101,-6.41046 0.766252,-0.6183 3.503603,-0.89121 27.440703,-2.73833 l 3.77444,-0.29146 9.67642,9.48831 c 5.32209,5.21839 11.03813,10.78013 12.70206,12.35946 l 3.02514,2.87114 1.76578,-1.54823 c 0.97105,-0.85172 6.59426,-5.81717 12.49587,-11.03395 l 10.7301,-9.48469 9.8516,-4.84984 c 5.41846,-2.66722 10.09386,-4.92604 10.38955,-5.01984 0.38024,-0.12068 0.94316,0.12334 1.92236,0.83405 2.88441,2.09352 23.46542,17.18916 26.12038,19.15852 l 2.77606,2.05931 1.58957,-1.4826 c 1.59141,-1.48368 9.44808,-9.16192 18.67069,-18.24643 2.70055,-2.66011 5.03113,-4.8364 5.17901,-4.8364 0.14785,0 1.94421,2.05383 3.99147,4.56407 2.04727,2.51023 5.82973,7.1239 8.40571,10.2526 2.57601,3.1287 5.11884,6.22131 5.65081,6.87245 12.52951,15.33639 12.3222,15.08797 12.58578,15.08797 0.16262,0 8.67463,-5.50626 26.28625,-17.00413 l 1.01391,-0.66198 c 0.01,-8.78085 0.0237,-16.74069 0.03,-26.30692 0.0232,-35.57616 0.0232,-76.248688 0.0233,-116.893638 H 109.92313 Z"
       sodipodi:nodetypes="cccsssscccccccsssssscccccccccsscccsssssssccccc" />
    <path
       id="path1987"
       style="fill:#4b4b4b;fill-opacity:1;stroke:none;stroke-width:0.999999;stroke-opacity:1"
       d="M 1726.2425,0.50400715 C 1726.2422,154.12272 1714.7166,274.95918 1714.6288,409.42028 c -0.024,36.15585 10.5138,106.76107 10.4765,139.94855 l 23.8127,-15.5993 4.2382,1.01758 c 2.3307,0.56047 19.5383,4.72718 38.2383,9.25781 l 34,8.23633 48.2168,28.10937 52.3239,25.05876 c 0,0 10.2951,-116.45585 10.2392,-289.98088 l 12.2954,-318.3912911 z"
       transform="matrix(0.26458333,0,0,0.26458333,-144.68665,22.901356)"
       sodipodi:nodetypes="cscccccccccc" />
    <path
       id="path1987-3"
       style="fill:#4b4b4b;fill-opacity:1;stroke:none;stroke-width:0.264583;stroke-opacity:1"
       d="m -87.331295,23.241167 c 7e-5,40.64495 -9.342349,80.077413 -9.319069,115.653583 0.006,9.56623 0.0201,17.52607 0.03,26.30692 l -3.02411,-1.97404 -1.121356,0.26923 c -0.61666,0.14829 -5.16951,1.25074 -10.11722,2.44947 l -8.99583,2.17919 -12.75736,7.43727 -12.75736,7.43728 -0.009,2.97656 v 0 c -0.005,1.63711 -0.0697,2.97656 -0.14417,2.97656 -0.0745,0 -0.12333,-37.56421 -0.10854,-83.47604 l 0.0265,-83.476036 z"
       sodipodi:nodetypes="ccccccccccssccc" />
  </g>
</svg>
