<?xml version="1.0" encoding="UTF-8" standalone="no"?>
<!-- Created with Inkscape (http://www.inkscape.org/) -->

<svg
   width="508.74802mm"
   height="243.45659mm"
   viewBox="0 0 508.74802 243.45659"
   version="1.1"
   id="svg5"
   inkscape:version="1.1 (c68e22c387, 2021-05-23)"
   sodipodi:docname="depth2.svg"
   xmlns:inkscape="http://www.inkscape.org/namespaces/inkscape"
   xmlns:sodipodi="http://sodipodi.sourceforge.net/DTD/sodipodi-0.dtd"
   xmlns="http://www.w3.org/2000/svg"
   xmlns:svg="http://www.w3.org/2000/svg">
  <sodipodi:namedview
     id="namedview7"
     pagecolor="#ffffff"
     bordercolor="#666666"
     borderopacity="1.0"
     inkscape:pageshadow="2"
     inkscape:pageopacity="0.0"
     inkscape:pagecheckerboard="0"
     inkscape:document-units="mm"
     showgrid="false"
     inkscape:zoom="0.32"
     inkscape:cx="595.3125"
     inkscape:cy="307.8125"
     inkscape:window-width="1920"
     inkscape:window-height="1017"
     inkscape:window-x="-8"
     inkscape:window-y="-8"
     inkscape:window-maximized="1"
     inkscape:current-layer="layer2" />
  <defs
     id="defs2">
    <inkscape:path-effect
       effect="bspline"
       id="path-effect927"
       is_visible="true"
       lpeversion="1"
       weight="33.333333"
       steps="2"
       helper_size="0"
       apply_no_weight="true"
       apply_with_weight="true"
       only_selected="false" />
    <inkscape:path-effect
       effect="bspline"
       id="path-effect2689"
       is_visible="true"
       lpeversion="1"
       weight="33.333333"
       steps="2"
       helper_size="0"
       apply_no_weight="true"
       apply_with_weight="true"
       only_selected="false" />
    <inkscape:path-effect
       effect="bspline"
       id="path-effect1825"
       is_visible="true"
       lpeversion="1"
       weight="33.333333"
       steps="2"
       helper_size="0"
       apply_no_weight="true"
       apply_with_weight="true"
       only_selected="false" />
    <inkscape:path-effect
       effect="bspline"
       id="path-effect1548"
       is_visible="true"
       lpeversion="1"
       weight="33.333333"
       steps="2"
       helper_size="0"
       apply_no_weight="true"
       apply_with_weight="true"
       only_selected="false" />
  </defs>
  <g
     inkscape:label="Capa 1"
     inkscape:groupmode="layer"
     id="layer1"
     transform="translate(144.68665,-22.901356)"
     style="display:none">
    <path
       id="path2771"
       style="fill:#4b4b4b;fill-opacity:1;stroke:none;stroke-width:0.264583;stroke-opacity:1"
       d="m -94.725359,22.899672 c 0,0 -3.341225,141.167518 -2.364896,141.723028 3.353807,3.7859 13.64696,19.14364 13.793139,19.14364 0.243033,0 4.070035,-2.74119 15.757695,-11.2882 2.355225,-1.72234 6.603325,-4.82823 9.440251,-6.90191 2.83692,-2.07367 5.268624,-3.77031 5.403802,-3.77031 0.135178,0 3.566607,1.41211 7.625376,3.13831 16.938366,7.20389 27.136521,11.55209 29.953725,12.7708 l 2.995168,1.29552 11.8214986,-7.71994 C 6.2021936,167.04459 13.0828,162.5769 14.990424,161.36202 l 3.468005,-2.20917 12.683979,1.26401 12.68398,1.264 5.675624,3.68608 c 3.121734,2.02745 7.343013,4.77473 9.380305,6.10506 2.037291,1.33034 6.286185,4.10513 9.442317,6.16603 3.15613,2.0609 5.80992,3.74706 5.896798,3.74706 0.153048,0 3.651266,-3.05476 17.434594,-15.2244 3.619061,-3.19535 6.914954,-6.08032 7.324101,-6.41046 0.766252,-0.6183 3.503603,-0.89121 27.440703,-2.73833 l 3.77444,-0.29146 9.67642,9.48831 c 5.32209,5.21839 11.03813,10.78013 12.70206,12.35946 l 3.02514,2.87114 1.76578,-1.54823 c 0.97105,-0.85172 6.59426,-5.81717 12.49587,-11.03395 l 10.7301,-9.48469 9.8516,-4.84984 c 5.41846,-2.66722 10.09386,-4.92604 10.38955,-5.01984 0.38024,-0.12068 0.94316,0.12334 1.92236,0.83405 2.88441,2.09352 23.46542,17.18916 26.12038,19.15852 l 2.77606,2.05931 1.58957,-1.4826 c 1.59141,-1.48368 9.44808,-9.16192 18.67069,-18.24643 2.70055,-2.66011 5.03113,-4.8364 5.17901,-4.8364 0.14785,0 1.94421,2.05383 3.99147,4.56407 2.04727,2.51023 5.82973,7.1239 8.40571,10.2526 2.57601,3.1287 5.11884,6.22131 5.65081,6.87245 12.52951,15.33639 12.3222,15.08797 12.58578,15.08797 0.16262,0 8.67463,-5.50626 26.28625,-17.00413 l 1.01391,-0.66198 c 0.01,-8.78085 0.0237,-16.74069 0.03,-26.30692 0.0232,-35.57616 0.0232,-76.248688 0.0233,-116.893638 H 109.92313 Z"
       sodipodi:nodetypes="cccsssscccccccsssssscccccccccsscccsssssssccccc" />
    <path
       id="path1987"
       style="fill:#4b4b4b;fill-opacity:1;stroke:none;stroke-width:0.999999;stroke-opacity:1"
       d="M 1726.2425,0.50400715 C 1726.2422,154.12272 1714.7166,274.95918 1714.6288,409.42028 c -0.024,36.15585 10.5138,106.76107 10.4765,139.94855 l 23.8127,-15.5993 4.2382,1.01758 c 2.3307,0.56047 19.5383,4.72718 38.2383,9.25781 l 34,8.23633 48.2168,28.10937 52.3239,25.05876 c 0,0 10.2951,-116.45585 10.2392,-289.98088 l 12.2954,-318.3912911 z"
       transform="matrix(0.26458333,0,0,0.26458333,-144.68665,22.901356)"
       sodipodi:nodetypes="cscccccccccc" />
    <path
       id="path1987-3"
       style="fill:#4b4b4b;fill-opacity:1;stroke:none;stroke-width:0.264583;stroke-opacity:1"
       d="m -87.331295,23.241167 c 7e-5,40.64495 -9.342349,80.077413 -9.319069,115.653583 0.006,9.56623 0.0201,17.52607 0.03,26.30692 l -3.02411,-1.97404 -1.121356,0.26923 c -0.61666,0.14829 -5.16951,1.25074 -10.11722,2.44947 l -8.99583,2.17919 -12.75736,7.43727 -12.75736,7.43728 -0.009,2.97656 v 0 c -0.005,1.63711 -0.0697,2.97656 -0.14417,2.97656 -0.0745,0 -0.12333,-37.56421 -0.10854,-83.47604 l 0.0265,-83.476036 z"
       sodipodi:nodetypes="ccccccccccssccc" />
  </g>
  <g
     inkscape:groupmode="layer"
     id="layer2"
     inkscape:label="Capa 2"
     style="display:inline">
    <path
       id="path1009"
       style="fill:#5a5a5a;fill-opacity:1;stroke-width:0.264583"
       d="M 79.586356,-0.29899964 -0.70383299,-1.0844814 -0.57154132,67.773331 c 0.0718517,37.398789 0.0447741,67.997919 0.0992188,67.997919 0.0544446,0 3.47717932,-3.95883 7.60625412,-8.7974 4.1290734,-4.83857 8.9956284,-10.53489 10.8148434,-12.65866 1.819215,-2.12377 4.111944,-4.8098 5.094779,-5.96914 0.982835,-1.15935 2.232991,-2.43313 2.778125,-2.83032 0.545134,-0.39719 2.500345,-1.81829 4.344953,-3.15846 3.995013,-2.902501 12.939871,-9.47188 13.31495,-9.778736 0.145521,-0.119052 2.850221,-2.100667 6.010487,-4.403865 l 5.745903,-4.187859 5.895763,-1.641761 c 3.242652,-0.903115 7.562638,-2.103673 9.59993,-2.668053 3.196439,-0.885492 5.761361,-1.625624 9.06043,-2.552298 z"
       sodipodi:nodetypes="ccsssssssscccscc" />
    <path
       id="path1009-0"
       style="display:inline;fill:#5a5a5a;fill-opacity:1;stroke-width:0.264583"
       d="m 429.36866,-0.20237285 h 79.8189 V 67.795544 c 0,37.398856 -0.0448,67.997916 -0.0992,67.997916 -0.0544,0 -3.47717,-3.95883 -7.60625,-8.79739 -4.12907,-4.83858 -8.99563,-10.5349 -10.81484,-12.65866 -1.81922,-2.12377 -4.11195,-4.80981 -5.09478,-5.96915 -0.98284,-1.15935 -2.23299,-2.43313 -2.77813,-2.83032 -0.54513,-0.39719 -2.50034,-1.81829 -4.34495,-3.15846 -3.99501,-2.902498 -12.93987,-9.471877 -13.31495,-9.778733 -0.14552,-0.119052 -2.85022,-2.100667 -6.01049,-4.403865 l -5.7459,-4.187859 -5.89576,-1.641761 c -3.24265,-0.903116 -7.56264,-2.103673 -9.59993,-2.668053 -3.19644,-0.885492 -5.21463,-1.466461 -8.5137,-2.393135 z" />
    <path
       id="path1173"
       style="fill:#5a5a5a;fill-opacity:1;stroke-width:0.264583"
       d="M 79.247359,-0.22458614 V 77.283861 c 3.637481,-1.021734 8.448066,-2.360375 9.387022,-2.6386 0.968476,-0.28697 1.883098,-0.52193 2.032434,-0.52193 0.251587,0 2.045602,2.26129 6.669878,8.405169 27.430417,36.44445 28.823247,38.28402 29.039567,38.35322 0.16542,0.0529 1.7064,-2.42001 11.32334,-18.17202 1.46962,-2.40716 4.43379,-7.234495 6.5872,-10.726995 2.15341,-3.4925 5.52195,-8.969377 7.48533,-12.170833 1.96338,-3.201458 3.92277,-6.38638 4.35425,-7.077604 l 0.78445,-1.256771 h 17.67489 17.67541 l 2.33939,1.603002 c 1.28674,0.881523 3.23237,2.222487 4.32377,2.979664 4.85048,3.365076 24.79769,17.280545 27.46344,19.159037 l 1.66605,1.174088 5.21312,-5.128368 c 10.05246,-9.890588 15.28835,-15.002584 17.74568,-17.324009 l 2.47944,-2.341975 6.51639,0.45217 c 3.58421,0.248476 11.21988,0.761455 16.96795,1.140497 5.74807,0.37904 10.83016,0.747583 11.29337,0.819071 0.90075,0.139017 0.081,-0.924436 11.81066,15.326198 1.89065,2.619375 4.1748,5.774531 5.07566,7.011458 0.90085,1.236927 3.23339,4.46159 5.18366,7.16546 1.95024,2.70386 4.79356,6.64326 6.31796,8.7545 l 2.7714,3.83853 0.7669,-1.05885 c 0.42188,-0.58237 2.63594,-3.80741 4.92011,-7.16701 2.28412,-3.35961 4.92689,-7.23976 5.87301,-8.622213 0.94615,-1.382448 2.65242,-3.882763 3.7915,-5.55625 1.13912,-1.673492 3.70372,-5.423958 5.69889,-8.334375 1.99517,-2.910419 4.68588,-6.844337 5.97948,-8.742619 1.29357,-1.898279 2.60649,-3.798231 2.91764,-4.221964 l 0.56586,-0.770496 3.79976,0.334346 c 2.08995,0.18387 7.31213,0.704591 11.60497,1.157552 7.35701,0.776272 8.60195,0.832464 21.67776,0.977202 l 13.87253,0.153479 3.24737,7.14375 c 1.78599,3.92906 3.62537,7.977188 4.0876,8.995833 1.13262,2.495979 10.33348,22.663015 11.73726,25.726595 l 1.11932,2.44378 5.53299,-7.19181 c 3.043,-3.95523 5.84946,-7.61454 6.23684,-8.1318 0.38737,-0.51726 1.87565,-2.44839 3.30729,-4.291732 1.43163,-1.84335 4.21026,-5.45722 6.17479,-8.031033 1.96453,-2.573817 4.841,-6.312641 6.39186,-8.308023 l 2.81948,-3.627683 10.93885,1.384411 c 6.0162,0.761516 13.02197,1.805808 15.56856,2.320787 2.54664,0.514983 7.72583,1.540608 11.50938,2.278931 3.78354,0.738322 7.08752,1.406384 7.34218,1.484664 0.43143,0.132612 0.46302,0.903626 0.46302,11.287683 v 11.145575 l 4.92737,13.24467 c 2.70994,7.28452 5.12678,-17.09439 5.12678,-54.444739 V -0.22458614 H 253.42845 Z"
       sodipodi:nodetypes="ccssssssscccccsccccccssssscccsssssscsssccsccsssssccssssccsccc" />
  </g>
</svg>
