<?xml version="1.0" encoding="UTF-8" standalone="no"?>
<!-- Created with Inkscape (http://www.inkscape.org/) -->

<svg
   width="386.35486mm"
   height="197.70937mm"
   viewBox="0 0 386.35486 197.70937"
   version="1.1"
   id="svg5"
   inkscape:version="1.1 (c68e22c387, 2021-05-23)"
   sodipodi:docname="pared.svg"
   xmlns:inkscape="http://www.inkscape.org/namespaces/inkscape"
   xmlns:sodipodi="http://sodipodi.sourceforge.net/DTD/sodipodi-0.dtd"
   xmlns="http://www.w3.org/2000/svg"
   xmlns:svg="http://www.w3.org/2000/svg">
  <sodipodi:namedview
     id="namedview7"
     pagecolor="#ffffff"
     bordercolor="#666666"
     borderopacity="1.0"
     inkscape:pageshadow="2"
     inkscape:pageopacity="0.0"
     inkscape:pagecheckerboard="0"
     inkscape:document-units="mm"
     showgrid="false"
     inkscape:zoom="1"
     inkscape:cx="1076.9575"
     inkscape:cy="246.5099"
     inkscape:window-width="1920"
     inkscape:window-height="1017"
     inkscape:window-x="-8"
     inkscape:window-y="-8"
     inkscape:window-maximized="1"
     inkscape:current-layer="layer1" />
  <defs
     id="defs2">
    <inkscape:path-effect
       effect="bspline"
       id="path-effect25887"
       is_visible="true"
       lpeversion="1"
       weight="33.333333"
       steps="2"
       helper_size="0"
       apply_no_weight="true"
       apply_with_weight="true"
       only_selected="false" />
    <inkscape:path-effect
       effect="bspline"
       id="path-effect25518"
       is_visible="true"
       lpeversion="1"
       weight="33.333333"
       steps="2"
       helper_size="0"
       apply_no_weight="true"
       apply_with_weight="true"
       only_selected="false" />
    <inkscape:path-effect
       effect="bspline"
       id="path-effect24236"
       is_visible="true"
       lpeversion="1"
       weight="33.333333"
       steps="2"
       helper_size="0"
       apply_no_weight="true"
       apply_with_weight="true"
       only_selected="false" />
    <inkscape:path-effect
       effect="bspline"
       id="path-effect23774"
       is_visible="true"
       lpeversion="1"
       weight="33.333333"
       steps="2"
       helper_size="0"
       apply_no_weight="true"
       apply_with_weight="true"
       only_selected="false" />
    <inkscape:path-effect
       effect="bspline"
       id="path-effect23654"
       is_visible="true"
       lpeversion="1"
       weight="33.333333"
       steps="2"
       helper_size="0"
       apply_no_weight="true"
       apply_with_weight="true"
       only_selected="false" />
    <inkscape:path-effect
       effect="bspline"
       id="path-effect22348"
       is_visible="true"
       lpeversion="1"
       weight="33.333333"
       steps="2"
       helper_size="0"
       apply_no_weight="true"
       apply_with_weight="true"
       only_selected="false" />
    <inkscape:path-effect
       effect="bspline"
       id="path-effect19767"
       is_visible="true"
       lpeversion="1"
       weight="33.333333"
       steps="2"
       helper_size="0"
       apply_no_weight="true"
       apply_with_weight="true"
       only_selected="false" />
    <inkscape:path-effect
       effect="bspline"
       id="path-effect19206"
       is_visible="true"
       lpeversion="1"
       weight="33.333333"
       steps="2"
       helper_size="0"
       apply_no_weight="true"
       apply_with_weight="true"
       only_selected="false" />
    <inkscape:path-effect
       effect="bspline"
       id="path-effect18584"
       is_visible="true"
       lpeversion="1"
       weight="33.333333"
       steps="2"
       helper_size="0"
       apply_no_weight="true"
       apply_with_weight="true"
       only_selected="false" />
    <inkscape:path-effect
       effect="bspline"
       id="path-effect18476"
       is_visible="true"
       lpeversion="1"
       weight="33.333333"
       steps="2"
       helper_size="0"
       apply_no_weight="true"
       apply_with_weight="true"
       only_selected="false" />
    <inkscape:path-effect
       effect="bspline"
       id="path-effect18143"
       is_visible="true"
       lpeversion="1"
       weight="33.333333"
       steps="2"
       helper_size="0"
       apply_no_weight="true"
       apply_with_weight="true"
       only_selected="false" />
    <inkscape:path-effect
       effect="bspline"
       id="path-effect18139"
       is_visible="true"
       lpeversion="1"
       weight="33.333333"
       steps="2"
       helper_size="0"
       apply_no_weight="true"
       apply_with_weight="true"
       only_selected="false" />
    <inkscape:path-effect
       effect="bspline"
       id="path-effect16994"
       is_visible="true"
       lpeversion="1"
       weight="33.333333"
       steps="2"
       helper_size="0"
       apply_no_weight="true"
       apply_with_weight="true"
       only_selected="false" />
    <inkscape:path-effect
       effect="bspline"
       id="path-effect15519"
       is_visible="true"
       lpeversion="1"
       weight="33.333333"
       steps="2"
       helper_size="0"
       apply_no_weight="true"
       apply_with_weight="true"
       only_selected="false" />
    <inkscape:path-effect
       effect="bspline"
       id="path-effect15380"
       is_visible="true"
       lpeversion="1"
       weight="33.333333"
       steps="2"
       helper_size="0"
       apply_no_weight="true"
       apply_with_weight="true"
       only_selected="false" />
    <inkscape:path-effect
       effect="bspline"
       id="path-effect12510"
       is_visible="true"
       lpeversion="1"
       weight="33.333333"
       steps="2"
       helper_size="0"
       apply_no_weight="true"
       apply_with_weight="true"
       only_selected="false" />
    <inkscape:path-effect
       effect="bspline"
       id="path-effect11832"
       is_visible="true"
       lpeversion="1"
       weight="33.333333"
       steps="2"
       helper_size="0"
       apply_no_weight="true"
       apply_with_weight="true"
       only_selected="false" />
    <inkscape:path-effect
       effect="bspline"
       id="path-effect11356"
       is_visible="true"
       lpeversion="1"
       weight="33.333333"
       steps="2"
       helper_size="0"
       apply_no_weight="true"
       apply_with_weight="true"
       only_selected="false" />
    <inkscape:path-effect
       effect="bspline"
       id="path-effect10771"
       is_visible="true"
       lpeversion="1"
       weight="33.333333"
       steps="2"
       helper_size="0"
       apply_no_weight="true"
       apply_with_weight="true"
       only_selected="false" />
    <inkscape:path-effect
       effect="bspline"
       id="path-effect8320"
       is_visible="true"
       lpeversion="1"
       weight="33.333333"
       steps="2"
       helper_size="0"
       apply_no_weight="true"
       apply_with_weight="true"
       only_selected="false" />
    <inkscape:path-effect
       effect="bspline"
       id="path-effect8316"
       is_visible="true"
       lpeversion="1"
       weight="33.333333"
       steps="2"
       helper_size="0"
       apply_no_weight="true"
       apply_with_weight="true"
       only_selected="false" />
    <inkscape:path-effect
       effect="bspline"
       id="path-effect4623"
       is_visible="true"
       lpeversion="1"
       weight="33.333333"
       steps="2"
       helper_size="0"
       apply_no_weight="true"
       apply_with_weight="true"
       only_selected="false" />
    <inkscape:path-effect
       effect="bspline"
       id="path-effect4619"
       is_visible="true"
       lpeversion="1"
       weight="33.333333"
       steps="2"
       helper_size="0"
       apply_no_weight="true"
       apply_with_weight="true"
       only_selected="false" />
    <inkscape:path-effect
       effect="bspline"
       id="path-effect2325"
       is_visible="true"
       lpeversion="1"
       weight="33.333333"
       steps="2"
       helper_size="0"
       apply_no_weight="true"
       apply_with_weight="true"
       only_selected="false" />
    <inkscape:path-effect
       effect="bspline"
       id="path-effect2321"
       is_visible="true"
       lpeversion="1"
       weight="33.333333"
       steps="2"
       helper_size="0"
       apply_no_weight="true"
       apply_with_weight="true"
       only_selected="false" />
    <inkscape:path-effect
       effect="bspline"
       id="path-effect1852"
       is_visible="true"
       lpeversion="1"
       weight="33.333333"
       steps="2"
       helper_size="0"
       apply_no_weight="true"
       apply_with_weight="true"
       only_selected="false" />
    <inkscape:path-effect
       effect="bspline"
       id="path-effect1848"
       is_visible="true"
       lpeversion="1"
       weight="33.333333"
       steps="2"
       helper_size="0"
       apply_no_weight="true"
       apply_with_weight="true"
       only_selected="false" />
    <inkscape:path-effect
       effect="bspline"
       id="path-effect52"
       is_visible="true"
       lpeversion="1"
       weight="33.333333"
       steps="2"
       helper_size="0"
       apply_no_weight="true"
       apply_with_weight="true"
       only_selected="false" />
    <inkscape:path-effect
       effect="bspline"
       id="path-effect48"
       is_visible="true"
       lpeversion="1"
       weight="33.333333"
       steps="2"
       helper_size="0"
       apply_no_weight="true"
       apply_with_weight="true"
       only_selected="false" />
    <inkscape:path-effect
       effect="bspline"
       id="path-effect44"
       is_visible="true"
       lpeversion="1"
       weight="33.333333"
       steps="2"
       helper_size="0"
       apply_no_weight="true"
       apply_with_weight="true"
       only_selected="false" />
  </defs>
  <g
     inkscape:label="Capa 1"
     inkscape:groupmode="layer"
     id="layer1"
     transform="translate(-288.3775,45.480197)">
    <path
       style="fill:#f2f2f2;fill-opacity:1;stroke:none;stroke-width:0.171534px;stroke-linecap:butt;stroke-linejoin:miter;stroke-opacity:1"
       d="m 666.77986,-21.889585 c -2.12454,-0.53826 -5.34603,1.130237 -7.79876,3.62759 -2.45272,2.497353 -4.13651,5.823301 -4.84719,9.6902124 -0.71068,3.8669119 -0.44828,8.27443263 -0.16218,11.4042676 0.28611,3.129835 0.59589,4.9818108 2.56622,5.0410174 1.97034,0.059207 5.60107,-1.6740927 8.08085,-3.1172701 2.47979,-1.4431774 3.80858,-2.5961897 4.67353,-5.9841766 0.86494,-3.387987 1.266,-9.0108687 0.9528,-13.1947657 -0.31321,-4.183897 -1.34073,-6.928614 -3.46527,-7.466875 z"
       id="path25885"
       inkscape:path-effect="#path-effect25887"
       inkscape:original-d="m 667.87677,-24.096321 c -3.22134,1.66869 -6.44283,3.337191 -9.66449,5.005498 -1.68371,3.326278 -3.36749,6.652228 -5.05146,9.9780549 0.26256,4.4078887 0.52495,8.81540951 0.78719,13.222827 0.30994,1.8522424 0.61972,3.7042183 0.92936,5.5560392 3.63102,-1.733175 7.26175,-3.4664724 10.89239,-5.1999943 1.32899,-1.1528667 2.65778,-2.3058788 3.98645,-3.4591068 0.40122,-5.622917 0.80228,-11.245799 1.2032,-16.868987 -1.02742,-2.744642 -2.05493,-5.489364 -3.08264,-8.234331 z" />
    <path
       style="fill:#cccccc;fill-opacity:1;stroke:none;stroke-width:0.120985px;stroke-linecap:butt;stroke-linejoin:miter;stroke-opacity:1"
       d="m 330.10303,85.593476 c 1.65603,-0.831227 4.96797,-2.493621 7.42681,-3.532959 2.45885,-1.039339 4.16815,-1.482492 5.30172,-1.536969 1.13356,-0.05448 1.74313,0.266152 2.49263,1.028323 0.7495,0.76217 1.63896,1.965784 3.19164,3.034975 1.55267,1.069191 3.76839,2.003966 5.60067,3.902709 1.83228,1.898743 3.2811,4.761258 3.8957,6.406697 0.6146,1.645438 0.39503,2.07387 -0.28705,2.764905 -0.68208,0.691034 -1.85288,1.666509 -3.17637,2.671393 -1.32348,1.00488 -2.8127,2.05003 -5.07756,2.73459 -2.26487,0.68456 -5.30536,1.00845 -8.65081,1.14528 -3.34545,0.13682 -6.9957,0.0866 -10.25886,0.0496 -3.26315,-0.037 -6.24966,-0.0616 -7.77199,-0.42148 -1.52234,-0.35991 -1.63561,-1.0557 -1.86261,-2.34506 -0.227,-1.28935 -0.56423,-3.152931 0.0637,-5.281409 0.62789,-2.128479 2.2226,-4.511954 3.62652,-6.186053 1.40392,-1.674099 2.61692,-2.638709 3.22339,-3.120997 0.60648,-0.482288 0.60648,-0.482308 2.26251,-1.313535 z"
       id="path8318"
       inkscape:path-effect="#path-effect8320"
       inkscape:original-d="m 328.447,86.424703 c 3.31213,-1.662314 6.62407,-3.324707 9.93584,-4.987192 1.60241,-0.4296 3.31518,-0.859365 4.97252,-1.289176 0.60977,0.320725 1.21933,0.641358 1.82873,0.961911 0.88967,1.20374 1.77914,2.407348 2.66843,3.610904 2.21598,0.934896 4.4317,1.869673 6.6473,2.804385 1.44905,2.862715 2.89789,5.725225 4.34657,8.587705 -0.21941,0.42854 -0.43899,0.85697 -0.65874,1.28532 -1.15768,0.93791 -2.31527,1.92924 -3.47317,2.89374 -1.48908,1.04527 -2.9783,2.09042 -4.46772,3.13551 -3.0404,0.32399 -6.08089,0.64788 -9.12159,0.9717 -3.65021,-0.0502 -7.30046,-0.10045 -10.95095,-0.1508 -2.87582,-0.0241 -5.86233,-0.0482 -8.79375,-0.0724 -0.11309,-0.69572 -0.22637,-1.3915 -0.3398,-2.08738 -0.39412,-1.87315 -0.67779,-3.74642 -1.01696,-5.61976 1.59495,-2.38348 3.18967,-4.76695 4.78423,-7.15056 1.21322,-0.964563 2.42622,-1.929169 3.63906,-2.893887 z" />
    <path
       style="fill:#999999;fill-opacity:1;stroke:none;stroke-width:0.250952px;stroke-linecap:butt;stroke-linejoin:miter;stroke-opacity:1"
       d="m 385.68186,11.802938 c -6.54537,7.228941 -15.83196,16.791644 -19.58005,22.882355 -3.74809,6.09071 -1.95794,8.709021 0.89518,14.344285 2.85313,5.635264 6.76909,14.287068 11.07685,19.580644 4.30777,5.293577 9.00692,7.228851 15.21672,9.904176 6.2098,2.675326 13.92982,6.090507 19.30026,6.147332 5.37044,0.05682 8.39132,-3.244523 12.97873,-9.505891 4.5874,-6.261368 10.74106,-15.482378 12.97882,-25.89891 2.23776,-10.416532 0.55949,-22.028168 -0.98812,-28.832291 -1.5476,-6.804122 -3.03958,-8.90605 -8.4102,-12.3214199 -5.37061,-3.4153697 -14.65703,-8.19663139 -20.19547,-10.6443005 -5.53843,-2.447669 -7.32856,-2.5615066 -10.12591,-0.1707708 -2.79736,2.39073575 -6.60145,7.2858501 -13.14681,14.5147912 z"
       id="path42"
       inkscape:path-effect="#path-effect44"
       inkscape:original-d="m 388.42311,9.46915 c -9.28637,9.562968 -18.57295,19.125684 -27.85981,28.688145 1.79048,2.618669 3.58063,5.23698 5.37056,7.855089 3.91637,8.652407 7.83232,17.304215 11.74812,25.955941 4.69958,1.935603 9.39873,3.870878 14.09772,5.805935 7.72061,3.415578 15.44063,6.830764 23.16057,10.245766 3.02126,-3.301227 6.04214,-6.602574 9.06282,-9.904242 6.15415,-9.221121 12.30782,-18.442125 18.46134,-27.663568 -1.6781,-11.611848 -3.35637,-23.223484 -5.03492,-34.835606 -1.34241,-2.048941 -2.9088,-4.098054 -4.36357,-6.14746 -9.28655,-4.7812001 -18.57297,-9.56246207 -27.85982,-14.3440731 -1.78999,-0.1135908 -3.58011,-0.2274306 -5.37056,-0.3415254 -3.80397,4.89555038 -7.60807,9.7906521 -11.41245,14.6855985 z" />
    <path
       style="fill:#808080;fill-opacity:1;stroke:none;stroke-width:0.264583px;stroke-linecap:butt;stroke-linejoin:miter;stroke-opacity:1"
       d="m 454.90036,35.340092 c 10.70917,-4.045676 27.96276,-9.876202 42.42023,-14.219378 14.45747,-4.343175 26.11829,-7.198885 40.04033,-10.233167 13.92204,-3.0342828 30.10443,-6.2469635 39.80223,-7.3772936 9.69781,-1.1303302 12.91048,-0.1784277 14.45719,1.7850225 1.5467,1.9634503 1.42771,4.9381501 -2.20155,9.6382021 -3.62927,4.700051 -10.76855,11.125405 -18.503,17.61044 -7.73445,6.485034 -16.06361,13.029374 -24.63101,20.109382 -8.5674,7.080008 -17.3725,14.69523 -23.32209,21.5968 -5.94959,6.90157 -9.04328,13.088948 -16.18263,15.171234 -7.13935,2.082286 -18.32424,0.05949 -27.78406,-4.58111 -9.45982,-4.640595 -17.19404,-11.89886 -23.61957,-17.431972 -6.42552,-5.533112 -11.54201,-9.340732 -14.57637,-12.969923 -3.03437,-3.62919 -3.98628,-7.079846 -2.37986,-9.93582 1.60642,-2.855974 5.77099,-5.11674 16.48016,-9.162417 z"
       id="path46"
       inkscape:path-effect="#path-effect48"
       inkscape:original-d="m 448.35577,37.124999 c 17.25387,-5.830263 34.50746,-11.660792 51.7608,-17.491586 11.66157,-2.855561 23.32239,-5.711274 34.98319,-8.567307 16.18326,-3.2125404 32.36565,-6.4252165 48.54807,-9.6382214 3.21308,0.9522067 6.42575,1.9041106 9.63822,2.8557693 -0.11872,2.9750837 -0.2377,5.9497841 -0.35698,8.9242791 -7.1393,6.425873 -14.27858,12.851226 -21.41826,19.276441 -8.32924,6.544866 -16.6584,13.089208 -24.98799,19.633414 -8.8052,7.615801 -17.61029,15.231033 -26.41586,22.846154 -3.09354,6.187888 -6.18723,12.375264 -9.28124,18.5625 -11.18505,-2.022612 -22.36994,-4.04541 -33.55528,-6.06851 -7.73427,-7.258296 -15.46849,-14.516562 -23.20314,-21.775239 -5.11643,-3.807505 -10.23292,-7.615121 -15.34975,-11.423079 -0.95168,-3.450524 -1.9036,-6.901177 -2.85578,-10.352164 4.16502,-2.260597 8.32959,-4.521369 12.494,-6.782451 z" />
    <path
       style="fill:#e6e6e6;fill-opacity:1;stroke:none;stroke-width:0.264583px;stroke-linecap:butt;stroke-linejoin:miter;stroke-opacity:1"
       d="m 431.39977,5.6523566 c -1.4874,-4.1051678 -4.22418,-11.8395397 -6.723,-18.9492806 -2.49882,-7.10974 -4.75955,-13.594446 -4.01584,-17.670139 0.74371,-4.075693 4.49184,-5.741528 15.91495,-7.020651 11.42312,-1.279123 30.34867,-2.163494 48.62852,-3.934462 18.27985,-1.770967 35.25974,-4.365117 47.96503,2.994527 12.70529,7.359644 20.98116,24.696018 24.10241,33.6542637 3.12124,8.9582461 1.08764,9.5380126 -9.11911,13.4232176 -10.20676,3.8852047 -28.58574,11.0755217 -43.13011,17.2290957 -14.54436,6.153575 -25.25329,11.270063 -36.25991,9.901722 -11.00663,-1.36834 -22.3105,-9.221549 -28.26014,-14.397603 -5.94964,-5.176053 -6.54458,-7.674801 -6.961,-9.16218 -0.41642,-1.487379 -0.6544,-1.9633426 -2.1418,-6.0685104 z"
       id="path50"
       inkscape:path-effect="#path-effect52"
       inkscape:original-d="m 432.64904,9.2812498 c -2.73653,-7.7341102 -5.4733,-15.4684852 -8.21034,-23.2031248 -2.2606,-6.484843 -4.52133,-12.969548 -6.78246,-19.454927 3.74854,-1.665637 7.49667,-3.331471 11.2446,-4.997597 19.09817,-0.892161 38.02372,-1.776533 57.29386,-2.677284 17.2896,-2.641162 34.26949,-5.235311 51.40384,-7.853365 8.2763,17.336988 16.55216,34.673364 24.82809,52.0101566 -2.03346,0.5800662 -4.06706,1.159833 -6.10105,1.7393709 C 537.9461,12.035358 519.56711,19.225673 501.1875,26.415865 490.47841,31.532819 479.76948,36.649302 469.0601,41.765624 457.75604,33.912368 446.45217,26.059159 435.14782,18.205529 c -0.59468,-2.498584 -1.18962,-4.997332 -1.78485,-7.496395 -0.2377,-0.475706 -0.4757,-0.951658 -0.71393,-1.4278842 z"
       sodipodi:nodetypes="ccccccccccccc" />
    <path
       style="fill:#b3b3b3;fill-opacity:1;stroke:none;stroke-width:0.264583px;stroke-linecap:butt;stroke-linejoin:miter;stroke-opacity:1"
       d="m 426.34265,68.538432 c 7.85345,-4.164679 16.53974,-6.187514 22.90578,-7.615408 6.36604,-1.427893 10.41163,-2.260809 14.51687,-0.654247 4.10523,1.606562 8.26981,5.65215 12.613,10.054853 4.3432,4.402702 8.86474,9.162222 13.30655,13.117148 4.44181,3.954926 8.64717,6.992131 11.26487,10.204953 2.6177,3.212823 3.5696,6.544479 2.98309,10.807249 -0.58652,4.26277 -2.74536,9.53994 -5.48217,14.65653 -2.7368,5.1166 -6.06848,10.11411 -9.16222,13.7433 -3.09374,3.62918 -5.94944,5.88994 -9.87604,6.66341 -3.9266,0.77347 -8.92411,0.0595 -17.49154,-1.18987 -8.56743,-1.24942 -20.70422,-3.03424 -29.09308,-5.35451 -8.38885,-2.32026 -13.02938,-5.17597 -19.09797,-9.1622 -6.06859,-3.98622 -13.56483,-9.1027 -16.83723,-13.50539 -3.27241,-4.4027 -2.3205,-8.09133 -0.35713,-12.137108 1.96338,-4.045775 4.93809,-8.448333 9.93578,-13.802999 4.99769,-5.354666 12.01798,-11.661031 19.87144,-15.825711 z"
       id="path1846"
       inkscape:path-effect="#path-effect1848"
       inkscape:original-d="m 425.50961,66.396634 c 8.68656,-2.022573 17.37285,-4.045408 26.05889,-6.06851 4.04603,-0.832683 8.09162,-1.6656 12.13702,-2.498799 4.16501,4.046019 8.32958,8.091612 12.49399,12.137019 4.522,4.759976 9.04354,9.519497 13.5649,14.278848 4.40301,3.094075 8.56758,6.187763 12.85097,9.28125 0.95221,3.332062 1.9041,6.663728 2.85578,9.995188 -2.02263,5.23595 -4.28339,10.47142 -6.42549,15.70673 -3.33152,4.99796 -6.66321,9.99546 -9.99519,14.99279 -2.85557,2.26113 -5.71127,4.5219 -8.56731,6.78245 -4.99742,-0.71369 -9.99493,-1.42762 -14.9928,-2.14182 -12.13699,-1.78463 -24.27378,-3.56945 -36.41106,-5.35457 -4.64045,-2.85556 -9.28097,-5.71127 -13.92187,-8.56731 -7.49628,-5.11642 -14.99251,-10.23291 -22.48919,-15.34976 0.95221,-3.68851 1.90413,-7.37714 2.85578,-11.066102 2.97508,-4.402469 5.94979,-8.805024 8.92429,-13.207934 7.02083,-6.306352 14.04112,-12.612717 21.06129,-18.91947 z" />
    <path
       style="fill:#b3b3b3;fill-opacity:1;stroke:none;stroke-width:0.264583px;stroke-linecap:butt;stroke-linejoin:miter;stroke-opacity:1"
       d="m 541.93871,53.259937 c -8.24565,7.488393 -11.44294,11.695345 -13.04156,14.808613 -1.59863,3.113269 -1.59863,5.132564 1.8e-4,6.100025 1.5988,0.96746 4.79602,0.883323 10.77007,0.632898 5.97404,-0.250425 14.8924,-0.675109 23.93744,-0.422662 9.04503,0.252447 18.30012,1.177956 25.83061,1.724851 7.53049,0.546894 13.33595,0.715168 16.82757,-0.210345 3.49162,-0.925514 4.66953,-2.944801 7.5937,-6.706679 2.92417,-3.761879 7.67736,-9.363855 12.26297,-15.085348 4.58561,-5.721492 9.04489,-11.611102 10.60153,-16.196566 1.55664,-4.585464 0.21044,-7.866816 -3.78613,-11.442823 -3.99658,-3.576007 -10.64342,-7.446318 -16.9539,-10.517444 -6.31048,-3.071127 -12.28421,-5.342828 -15.64992,-6.1842882 -3.36571,-0.84146 -4.12294,-0.2525002 -7.61476,2.3979212 -3.49182,2.650421 -9.71798,7.362103 -19.47823,15.102998 -9.76026,7.740896 -23.05393,18.510456 -31.29957,25.998849 z"
       id="path2319"
       inkscape:path-effect="#path-effect2321"
       inkscape:original-d="m 536.89038,56.541346 c -3.19702,4.207209 -6.39432,8.414155 -9.59186,12.620834 2.6e-4,2.019639 2.6e-4,4.038934 0,6.058003 3.19762,-0.08388 6.39484,-0.168013 9.59186,-0.252417 8.75088,-0.420439 17.66943,-0.841124 26.50373,-1.262084 9.25574,0.925811 18.51083,1.851321 27.76585,2.776585 5.80597,0.168545 11.61143,0.33682 17.41676,0.504833 1.17824,-2.019109 2.35614,-4.038404 3.53382,-6.058 4.71215,-5.468874 9.42383,-11.106074 14.13534,-16.659506 4.45971,-5.889577 8.919,-11.779181 13.3781,-17.669171 -1.34599,-3.281217 -2.69219,-6.562569 -4.03868,-9.844251 -6.64683,-3.870202 -13.29367,-7.740514 -19.94093,-11.611169 -5.97371,-2.271531 -11.94744,-4.543236 -17.92158,-6.8152512 -0.757,0.5892488 -1.51423,1.1782092 -2.27174,1.7669172 -6.22614,4.712138 -12.45229,9.423822 -18.67884,14.135336 -13.29396,10.770261 -26.58763,21.539824 -39.88183,32.309341 z" />
    <path
       style="fill:#cccccc;fill-opacity:1;stroke:none;stroke-width:0.264583px;stroke-linecap:butt;stroke-linejoin:miter;stroke-opacity:1"
       d="m 599.99471,70.802873 c -4.71168,0.883487 -10.68552,0.631071 -14.93465,1.135886 -4.24914,0.504815 -6.77324,1.766867 -7.53043,3.113285 -0.75719,1.346418 0.25245,2.776742 4.75386,12.074125 4.50141,9.297383 12.49443,26.461331 17.12214,36.978901 4.62771,10.51757 5.88978,14.38789 7.57268,17.03822 1.6829,2.65033 3.78632,4.08066 6.3946,4.41708 2.60828,0.33643 5.72136,-0.42081 10.43319,-1.68291 4.71183,-1.2621 11.02211,-3.02898 18.80505,-5.51111 7.78293,-2.48213 17.03803,-5.67935 22.67526,-8.83453 5.63723,-3.15518 7.65653,-6.26826 8.66621,-8.49786 1.00969,-2.22959 1.00969,-3.57578 0.16835,-6.22617 -0.84133,-2.65038 -2.52407,-6.60483 -8.0984,-12.89629 -5.57432,-6.291453 -15.1237,-14.995757 -23.53765,-21.516604 -8.41396,-6.520846 -15.7339,-10.895982 -20.69815,-12.957482 -4.96426,-2.0615 -7.57253,-1.809087 -10.60163,-0.673204 -3.02911,1.135884 -6.47874,3.155176 -11.19043,4.038663 z"
       id="path2323"
       inkscape:path-effect="#path-effect2325"
       inkscape:original-d="m 601.25662,71.938765 c -5.9736,-0.252153 -11.94744,-0.504568 -17.92158,-0.75725 -2.52396,1.262374 -5.04806,2.524432 -7.5725,3.786251 1.00996,1.430655 2.01959,2.860987 3.029,4.291084 7.99348,17.164648 15.98649,34.3286 23.97958,51.49301 1.26238,3.87073 2.52445,7.74105 3.78627,11.61117 2.10378,1.43065 4.20719,2.86099 6.31042,4.29108 3.11346,-0.757 6.22654,-1.51423 9.33939,-2.27175 6.31082,-1.76668 12.6211,-3.53356 18.93126,-5.30075 9.25573,-3.19708 18.51083,-6.39429 27.76585,-9.59183 2.01964,-3.11294 4.03894,-6.22602 6.058,-9.33942 2.7e-4,-1.34599 2.7e-4,-2.69218 0,-4.03867 -1.68253,-3.95434 -3.36528,-7.90879 -5.04833,-11.86359 -9.50764,-8.58207 -19.01512,-17.332344 -28.52308,-25.998916 -7.31999,-4.375047 -14.63993,-8.750181 -21.96026,-13.12567 -2.6081,0.252685 -5.21637,0.505098 -7.82492,0.757251 -3.44951,2.019639 -6.89914,4.038931 -10.3491,6.058 z"
       sodipodi:nodetypes="ccccccccccccccccc" />
    <path
       id="path1850"
       style="fill:#e6e6e6;fill-opacity:1;stroke:none;stroke-width:0.29536px;stroke-linecap:butt;stroke-linejoin:miter;stroke-opacity:1"
       d="m 579.87393,-45.644257 h -65.12627 c 8.74251,3.750667 18.98821,8.463092 25.63513,11.168827 6.66146,2.711656 9.70657,3.406925 15.47967,1.668631 5.7731,-1.738294 14.27435,-5.910019 20.42822,-10.151318 1.29159,-0.890183 2.47499,-1.784049 3.58325,-2.68614 z" />
    <path
       id="path23856"
       style="fill:#e6e6e6;fill-opacity:1;stroke:none;stroke-width:1.11632px;stroke-linecap:butt;stroke-linejoin:miter;stroke-opacity:1"
       d="m 1088.0645,442.10156 c -2.2666,-0.008 -4.7731,0.0261 -7.5606,0.0918 -22.2997,0.52529 -62.5807,3.15245 -100.22656,8.4082 -37.64584,5.25575 -72.65525,13.13928 -87.52148,16.81836 -14.86623,3.67909 -9.59144,3.15374 -21.82031,7.6211 -12.22888,4.46735 -41.95913,13.92836 -64.01953,38.10546 -22.06041,24.17711 -36.4484,63.06843 -45.32032,96.96875 -8.87191,33.90033 -12.2275,62.8077 -10.30859,78.83789 1.91891,16.0302 9.11081,19.18312 26.375,26.01563 17.26418,6.83251 44.59963,17.3444 77.68945,31.53516 0.0722,0.031 -0.41183,2.35469 -0.41183,2.35469 l 245.70807,-1.00486 c 15.7682,-12.83504 28.3443,-27.39624 40.2799,-42.34593 15.1062,-18.92089 30.9298,-40.46941 41.8399,-55.38281 10.91,-14.9134 16.0246,-21.97301 13.7558,-39.00391 -2.2687,-17.03089 -10.5839,-34.92787 -21.2558,-57.45117 -10.672,-22.5233 -21.512,-44.98963 -32.2422,-63.2539 -10.7302,-18.26428 -21.1601,-31.92939 -28.5332,-39.55079 -6.4515,-6.66872 -10.5618,-8.70958 -26.4277,-8.76367 z"
       transform="matrix(0.26458333,0,0,0.26458333,288.3775,-45.480197)"
       sodipodi:nodetypes="ssssssssssccsssssss" />
    <path
       style="fill:#f2f2f2;fill-opacity:1;stroke:none;stroke-width:0.264583px;stroke-linecap:butt;stroke-linejoin:miter;stroke-opacity:1"
       d="m 365.53874,75.410174 c 0.83292,0.08922 1.13039,0.08922 5.74136,0.02973 4.61098,-0.0595 13.53505,-0.178485 19.63334,-0.237979 6.09829,-0.05949 9.37047,-0.05949 11.24451,0.505884 1.87404,0.565378 2.34999,1.695761 3.74817,4.164845 1.39819,2.469084 3.71846,6.276699 5.29504,9.72745 1.57658,3.450751 2.4095,6.544442 2.97467,10.97687 0.56517,4.43243 0.86264,10.20335 1.27912,15.61747 0.41648,5.41412 0.95192,10.47112 0.95187,13.77305 -5e-5,3.30193 -0.53549,4.84877 -2.64888,6.03228 -2.11339,1.18352 -5.91821,2.02903 -13.14693,1.88032 -7.22873,-0.14871 -17.93766,-1.2791 -28.05192,-2.91522 -10.11425,-1.63612 -19.6333,-3.7779 -27.0405,-6.00896 -7.4072,-2.23106 -12.70218,-4.55134 -15.23089,-6.93112 -2.5287,-2.37978 -2.29074,-4.81903 -0.5183,-7.98749 1.77244,-3.16847 5.12901,-7.12443 9.29372,-12.09233 4.16472,-4.967908 9.16221,-10.976793 13.11867,-15.647202 3.95646,-4.670408 6.87167,-8.002069 9.01366,-9.578684 2.142,-1.576616 3.51037,-1.398134 4.34329,-1.30891 z"
       id="path4617"
       inkscape:path-effect="#path-effect4619"
       inkscape:original-d="m 366.07392,75.499398 c 0.29774,2.65e-4 0.59521,2.65e-4 0.89242,0 8.92474,-0.118729 17.84881,-0.237717 26.77284,-0.35697 3.27255,2.64e-4 6.54473,2.64e-4 9.8167,0 0.47625,1.130694 0.95219,2.261081 1.42788,3.391225 2.32063,3.808034 4.6409,7.61565 6.96095,11.423076 0.8332,3.094077 1.66613,6.187765 2.4988,9.28125 0.29774,5.771411 0.59521,11.542331 0.89242,17.313101 0.53572,5.05746 1.07119,10.11445 1.60636,15.17127 -0.5352,1.54718 -1.07064,3.09402 -1.60636,4.64063 -3.68851,0.83321 -7.49613,1.66613 -11.24458,2.4988 -10.70909,-1.13017 -21.41802,-2.26056 -32.1274,-3.39123 -9.51916,-2.1416 -19.0382,-4.28339 -28.5577,-6.42548 -5.29492,-2.32009 -10.5899,-4.64036 -15.88521,-6.96094 0.23823,-2.43909 0.47622,-4.87834 0.71392,-7.31791 3.27258,-3.92649 6.66374,-7.8531 9.99519,-11.78004 4.99798,-6.008873 9.99546,-12.017767 14.9928,-18.027047 2.91558,-3.331532 5.83078,-6.663197 8.7458,-9.995191 1.36867,0.178753 2.73704,0.357236 4.10517,0.535456 z" />
    <path
       style="fill:#cccccc;fill-opacity:1;stroke:none;stroke-width:0.21094px;stroke-linecap:butt;stroke-linejoin:miter;stroke-opacity:1"
       d="m 540.60885,-7.0712444 c 1.77202,-2.7882092 4.1347,-6.2620336 7.42503,-10.1570246 3.29033,-3.894991 7.50811,-8.21094 12.03658,-12.50749 4.52846,-4.29655 9.36753,-8.573622 13.04235,-11.237862 3.67483,-2.66424 6.18513,-3.715503 10.27072,-4.172558 4.08558,-0.457056 9.74606,-0.319935 14.81603,-0.297086 5.06996,0.02285 9.54913,-0.06857 14.84064,0.594249 5.29151,0.662815 11.39497,2.079735 17.8432,3.222433 6.44822,1.142698 13.2408,2.011135 16.98167,3.153963 3.74087,1.142828 4.42997,2.55975 5.29136,6.605098 0.86138,4.045349 1.89499,10.718332 2.70716,19.083022 0.81216,8.3646903 1.40282,18.4202764 1.50124,25.75646 0.0984,7.336183 -0.29534,11.952612 -1.00905,14.672149 -0.71371,2.719538 -1.74736,3.542266 -4.38072,3.976506 -2.63336,0.43424 -6.86641,0.479947 -14.44678,-0.982705 -7.58036,-1.462652 -18.50757,-4.433624 -27.51537,-7.6332 -9.0078,-3.199575 -16.09573,-6.627625 -24.31599,-9.57585 -8.22026,-2.948224 -17.57238,-5.4164155 -25.9649,-7.5875698 -8.39252,-2.1711543 -15.82497,-4.0451471 -18.95074,-6.03347105 -3.12577,-1.98832395 -1.94444,-4.09085425 -0.17243,-6.87906355 z"
       id="path4621"
       inkscape:path-effect="#path-effect4623"
       inkscape:original-d="m 540.01822,-6.3856754 c 2.36289,-3.4736128 4.72558,-6.9474296 7.08802,-10.4214516 4.21823,-4.315874 8.43602,-8.63182 12.6536,-12.948095 4.83933,-4.276809 9.6784,-8.553877 14.51728,-12.831286 2.51062,-1.051105 5.02092,-2.10237 7.53107,-3.153859 5.66092,0.137329 11.3214,0.274452 16.98177,0.411372 4.47956,-0.09121 8.95873,-0.18263 13.43776,-0.274248 6.10396,1.417182 12.20742,2.834106 18.3108,4.250854 6.79308,0.868676 13.58566,1.737112 20.37816,2.605365 0.68936,1.417182 1.37846,2.834106 2.06736,4.250853 1.03399,6.673964 2.0676,13.346947 3.10102,20.020159 0.59089,10.0561906 1.18155,20.1117764 1.772,30.16736 -0.39355,4.616816 -0.78733,9.233244 -1.18133,13.849561 -1.03348,0.822967 -2.06713,1.645697 -3.10102,2.468239 -4.23301,0.04591 -8.46606,0.09162 -12.69943,0.137124 -10.9274,-2.970884 -21.85461,-5.941852 -32.78224,-8.913083 -7.08797,-3.427974 -14.1759,-6.856016 -21.26414,-10.284328 -9.35228,-2.468085 -18.7044,-4.9362742 -28.05689,-7.4047162 -7.43255,-1.8738671 -14.865,-3.7478626 -22.29783,-5.62209901 1.18158,-2.10241219 2.3629,-4.20494379 3.54404,-6.30772119 z"
       sodipodi:nodetypes="cccccccccccccccccccc" />
    <path
       style="fill:#808080;fill-opacity:1;stroke:none;stroke-width:0.236312px;stroke-linecap:butt;stroke-linejoin:miter;stroke-opacity:1"
       d="m 419.21064,-30.301552 c -5.70571,-0.40746 -14.43252,-1.312768 -22.78995,-2.008597 -8.35744,-0.695828 -16.34515,-1.182145 -23.32613,-1.544601 -6.98097,-0.362456 -12.95482,-0.601028 -17.38499,-0.80111 -4.43018,-0.200083 -7.31648,-0.36167 -8.85866,0.777921 -1.54218,1.139591 -1.73994,3.580033 -3.21003,8.042825 -1.47008,4.462792 -4.21235,10.947726 -5.94881,16.7995054 -1.73646,5.8517794 -2.46706,11.0699868 -2.69519,15.6561575 -0.22813,4.5861711 0.0462,8.5399911 1.69357,10.4712301 1.64738,1.931239 4.66753,1.840104 11.0093,1.110206 6.34176,-0.729899 16.00468,-2.098484 26.50634,-3.84769 10.50166,-1.749206 21.84141,-3.878914 30.63111,-5.8765708 8.7897,-1.9976569 15.02889,-3.8631336 19.25519,-5.3453664 4.2263,-1.4822329 6.43957,-2.58115105 7.40749,-6.1592106 0.96792,-3.5780596 0.69052,-9.6353072 0.28056,-14.5565222 -0.40996,-4.921215 -0.95247,-8.706138 -2.566,-10.553606 -1.61353,-1.847468 -4.29809,-1.757112 -10.0038,-2.164571 z"
       id="path8314"
       inkscape:path-effect="#path-effect8316"
       inkscape:original-d="m 422.23152,-29.803727 c -8.72661,-0.905045 -17.45342,-1.810353 -26.18045,-2.715927 -7.98784,-0.486074 -15.97555,-0.972389 -23.96365,-1.458981 -5.97384,-0.238316 -11.94769,-0.476888 -17.92185,-0.715727 -2.88619,-0.16133 -5.77249,-0.322916 -8.65906,-0.484772 -0.19755,2.440805 -0.3953,4.881247 -0.59328,7.321473 -2.74216,6.485455 -5.48443,12.970386 -8.22695,19.4551818 -0.73043,5.2186832 -1.46102,10.4368927 -2.19186,15.6549419 0.27453,3.9542433 0.54882,7.9080643 0.82293,11.8616993 3.02049,-0.09087 6.04064,-0.182009 9.06067,-0.27341 9.66353,-1.368377 19.32645,-2.736964 28.98937,-4.105842 11.34041,-2.129529 22.68016,-4.259237 34.01994,-6.3892525 6.23966,-1.8652881 12.47885,-3.7307665 18.71796,-5.5965465 2.21355,-1.0986931 4.42682,-2.197607 6.63991,-3.29680741 -0.27719,-6.05722559 -0.55459,-12.11447359 -0.83222,-18.17210659 -0.54232,-3.784812 -1.08483,-7.569736 -1.62758,-11.355 -2.68448,0.09062 -5.36904,0.180982 -8.05388,0.271076 z" />
    <path
       style="fill:#b3b3b3;fill-opacity:1;stroke:none;stroke-width:0.228239px;stroke-linecap:butt;stroke-linejoin:miter;stroke-opacity:1"
       d="m 365.24258,18.430373 c 1.66073,4.076775 3.85283,10.211236 5.3057,16.160039 1.45288,5.948803 2.16656,11.711739 2.88041,17.549712 0.71384,5.837973 1.4278,11.750628 1.29436,15.980617 -0.13344,4.229988 -1.11417,6.777206 -3.99606,8.616944 -2.88188,1.839739 -7.66492,2.972067 -12.51949,3.505673 -4.85457,0.533607 -9.78041,0.46843 -19.13577,2.732739 -9.35535,2.264309 -23.13944,6.857963 -32.3192,8.822487 -9.17975,1.964525 -13.75481,1.299768 -16.14935,0.219059 -2.39454,-1.080708 -2.60824,-2.577517 -1.80338,-5.087132 0.80486,-2.509615 2.6283,-6.03169 6.28022,-10.268733 3.65192,-4.237043 9.132,-9.188673 16.26152,-16.689089 7.12952,-7.500415 15.90803,-17.549117 23.15973,-25.479084 7.25171,-7.929966 12.90674,-13.670243 17.12256,-17.346859 4.21583,-3.676616 6.95744,-5.254095 8.89303,-5.033139 1.9356,0.220956 3.06499,2.239992 4.72572,6.316766 z"
       id="path10769"
       inkscape:path-effect="#path-effect10771"
       inkscape:original-d="m 364.71111,16.372414 c 2.19231,6.134694 4.38442,12.269152 6.5763,18.403376 0.71394,5.763401 1.42763,11.526337 2.1411,17.289152 0.71422,5.913131 1.42816,11.825788 2.14192,17.738328 -0.98056,2.54756 -1.96128,5.094781 -2.94225,7.641817 -4.78301,1.132608 -9.56605,2.264938 -14.34941,3.397054 -4.92584,-0.06494 -9.85168,-0.130122 -14.77787,-0.195534 -13.78443,4.594079 -27.56852,9.187737 -41.35313,13.781249 -4.57502,-0.664548 -9.15008,-1.329301 -13.72545,-1.994311 -0.2135,-1.496635 -0.42719,-2.993447 -0.64113,-4.490522 1.82375,-3.521982 3.64718,-7.044062 5.47044,-10.566446 5.48053,-4.9516 10.9606,-9.903237 16.44058,-14.855208 8.7791,-10.048876 17.5576,-20.097583 26.33606,-30.146727 5.76058,-5.775661 11.37997,-11.551049 17.06961,-17.326928 2.74194,-1.577311 5.48354,-3.154794 8.22499,-4.732544 1.12965,2.019358 2.25903,4.038398 3.38824,6.057244 z" />
    <path
       id="path11354"
       style="fill:#e6e6e6;fill-opacity:1;stroke:none;stroke-width:0.264583px;stroke-linecap:butt;stroke-linejoin:miter;stroke-opacity:1"
       d="m 675.73408,-21.278574 c -4.36067,1.234405 -7.59937,2.116663 -9.48469,4.440038 -2.11983,2.612375 -2.61669,7.0726118 -2.76521,17.75860598 -0.14851,10.68599702 0.0513,27.59724302 0.11783,40.84918702 0.0666,13.251942 -5.1e-4,22.927728 0.51573,28.858702 0.51624,5.930976 1.59935,8.252891 5.52162,9.481592 1.6365,0.512654 3.76524,0.820047 6.11126,0.882634 -3.4e-4,-0.1758 -7.1e-4,-0.07974 -10e-4,-0.276987 -0.005,-2.792023 -0.009,-7.811656 -0.0114,-17.286282 -0.005,-17.355079 -0.004,-51.146765 -0.004,-84.70749 z" />
    <path
       id="path11895"
       style="fill:#e6e6e6;fill-opacity:1;stroke:none;stroke-width:0.999999px;stroke-linecap:butt;stroke-linejoin:miter;stroke-opacity:1"
       d="m -1.6696057,92.547275 c 1.225e-4,126.843685 0.6048896,253.654555 0.6221974,319.248555 0.00945,35.80961 0.69884101,65.56765 0.70011101,66.23209 12.38476829,0.3304 26.91000329,-1.18151 39.78284429,-5.00448 22.089114,-6.56002 40.827547,-19.94938 57.964844,-38.90235 17.137299,-18.95296 32.764099,-43.61199 49.847659,-66.94531 17.08356,-23.33332 35.80449,-45.62735 49.13672,-58.84961 13.33222,-13.22225 21.52633,-17.50194 23.76367,-29.68359 2.23734,-12.18165 -0.9891,-32.57752 -3.11133,-64.42969 -2.12223,-31.85217 -3.15691,-75.25702 -10.99023,-98.29883 C 198.21355,92.872251 183.5813,90.196432 160.91406,85.388672 138.24683,80.580912 107.54766,73.641619 79.484375,74.488281 51.421094,75.334943 25.998027,83.967815 6.2128906,89.728516 4.024144,90.365798 0.3804388,91.966956 -1.6696057,92.547275 Z"
       transform="matrix(0.26458333,0,0,0.26458333,288.3775,-45.480197)"
       sodipodi:nodetypes="cscssssssssssc" />
    <path
       id="path12508"
       style="fill:#b3b3b3;fill-opacity:0.99598396;stroke:none;stroke-width:0.34531px;stroke-linecap:butt;stroke-linejoin:miter;stroke-opacity:1"
       d="m 709.07887,90.164236 c -1.59548,0.148416 -3.15074,0.353312 -4.64519,0.630452 -6.13222,1.137195 -11.25267,3.476088 -16.25638,6.008933 -5.00371,2.532849 -9.89058,5.259709 -13.02866,8.953979 -3.13807,3.69427 -4.52686,8.3552 -4.47156,17.24597 0.0553,8.89078 1.55482,22.01064 3.3569,30.70407 1.80208,8.69343 3.90621,12.95976 6.74688,16.40985 2.84066,3.4501 6.41741,6.08393 12.67002,7.1205 4.03555,0.66902 9.20556,0.67132 15.62799,0.53175 v -12.88397 z" />
    <path
       id="path15401"
       style="fill:#b3b3b3;fill-opacity:1;stroke:none;stroke-width:0.34531px;stroke-linecap:butt;stroke-linejoin:miter;stroke-opacity:1"
       d="M 384.20977,-50.436975 H 281.72456 v 12.566158 12.883969 c 3.52839,-0.07668 7.42092,-0.195 11.74346,-0.271819 12.19051,-0.216646 27.64272,-0.0901 41.61917,-0.310058 13.97645,-0.219961 26.47624,-0.786796 35.98747,-1.23145 9.51122,-0.444653 16.03324,-0.767096 19.4076,-2.520259 3.37435,-1.753164 3.60655,-5.014643 2.39365,-8.623247 -1.2129,-3.608602 -3.86044,-7.718835 -8.02225,-11.865425 -0.21002,-0.209251 -0.4264,-0.418552 -0.64389,-0.627869 z" />
    <path
       id="path15601"
       style="fill:#b3b3b3;fill-opacity:1;stroke:none;stroke-width:1.30511px;stroke-linecap:butt;stroke-linejoin:miter;stroke-opacity:1"
       d="M 28.568359 511.42773 C 18.737438 511.45284 9.0090938 511.80148 -0.34765625 512.67188 L -0.34765625 747.58984 L 386.99805 747.58984 C 371.53106 732.70404 351.24071 717.85535 332.26953 706.04688 C 312.29012 693.61083 293.78597 684.54883 267.92969 668.16211 C 242.07341 651.77539 208.86695 628.06524 189.16992 609.90625 C 169.47289 591.74726 163.28706 579.13901 156.2168 564.625 C 149.14654 550.11099 141.19329 533.69176 124.88867 524.47656 C 108.58406 515.26136 83.927715 513.25318 58.099609 512.12695 C 48.332779 511.70107 38.39928 511.40263 28.568359 511.42773 z "
       transform="matrix(0.26458333,0,0,0.26458333,288.3775,-45.480197)" />
    <path
       id="path16992"
       style="fill:#cccccc;fill-opacity:1;stroke:none;stroke-width:0.264583px;stroke-linecap:butt;stroke-linejoin:miter;stroke-opacity:1"
       d="m 674.88855,-45.531556 h -22.69939 c -1.04521,3.44739 -1.67909,7.72862 -1.67174,11.44219 0.008,4.03876 0.77091,7.40304 2.45825,9.79785 1.68734,2.39481 4.29831,3.82025 8.12819,4.6545 3.815,0.83101 8.83935,1.07503 13.78469,0.94309 v -6.85384 z" />
    <path
       id="path18667"
       style="fill:#cccccc;fill-opacity:1;stroke:none;stroke-width:0.999999px;stroke-linecap:butt;stroke-linejoin:miter;stroke-opacity:1"
       d="M -0.34765625 0.17382812 L -0.34765625 75.703125 L -0.34765625 101.60742 C -0.2747862 101.60548 -0.20176692 101.6055 -0.12890625 101.60352 C 18.632593 101.09177 37.071954 99.148609 48.349609 93.085938 C 59.627228 87.023262 63.742096 76.839882 68.326172 62.203125 C 72.910247 47.566372 77.964463 28.476619 80.476562 11.140625 C 81.018778 7.3988539 81.433343 3.7457365 81.714844 0.17382812 L -0.34765625 0.17382812 z "
       transform="matrix(0.26458333,0,0,0.26458333,288.3775,-45.480197)" />
    <path
       id="path18438"
       style="fill:#cccccc;fill-opacity:1;stroke:none;stroke-width:0.264583px;stroke-linecap:butt;stroke-linejoin:miter;stroke-opacity:1"
       d="m 674.88855,124.14177 c -0.0727,-0.004 -0.14565,-0.009 -0.21808,-0.0103 -1.96073,-0.0292 -3.84143,0.94127 -6.04614,3.12643 -3.35956,3.32975 -7.47136,9.47942 -9.52707,12.55427 -2.0557,3.07484 -2.05576,3.07478 -2.89491,4.29638 -0.83915,1.22159 -2.5171,3.66471 -3.73052,7.24296 -0.0977,0.28811 -0.19115,0.58593 -0.28267,0.88781 h 22.69939 z" />
    <path
       id="path18670"
       style="fill:#cccccc;fill-opacity:1;stroke:none;stroke-width:0.264583px;stroke-linecap:butt;stroke-linejoin:miter;stroke-opacity:1"
       d="m 288.26438,124.14177 v 28.09751 h 21.71237 c 0.27059,-3.43353 0.0463,-6.56087 -0.98134,-9.29711 -1.31048,-3.48938 -3.92403,-6.34543 -7.21145,-9.57874 -3.28741,-3.23332 -7.24833,-6.84364 -10.53269,-8.39432 -1.04938,-0.49546 -2.02913,-0.77736 -2.98689,-0.82734 z" />
    <path
       id="path19204"
       style="fill:#cccccc;fill-opacity:1;stroke:none;stroke-width:0.264583px;stroke-linecap:butt;stroke-linejoin:miter;stroke-opacity:1"
       d="M 518.08699,-47.064691 H 381.932 c -0.33269,0.699405 -0.43891,1.244174 -0.64751,2.368846 -0.40144,2.164387 -1.20432,6.492999 0.12092,9.249048 1.32525,2.75605 4.77804,3.939558 14.03429,6.480741 9.25624,2.541185 24.31551,6.439683 44.07586,10.508403 19.76035,4.06872 44.22046,8.307559 57.81714,9.4722894 13.59669,1.1647302 16.32962,-0.7444078 18.46296,-5.3293904 2.13333,-4.584984 3.66681,-11.846071 4.37079,-17.261478 0.70398,-5.415407 0.57847,-8.98493 -0.49816,-12.13621 -0.40448,-1.183909 -0.94305,-2.308428 -1.5813,-3.352249 z" />
    <path
       id="path19849"
       style="fill:#cccccc;fill-opacity:1;stroke:none;stroke-width:0.999999px;stroke-linecap:butt;stroke-linejoin:miter;stroke-opacity:1"
       d="m 602.08008,649.14844 c -4.08009,-0.01 -8.26586,-0.002 -12.56641,0.006 -34.40436,0.0636 -76.22815,0.14093 -109.27539,4.69922 -33.04724,4.55829 -57.3151,13.59686 -77.11523,29.96679 -19.80013,16.36993 -35.12977,40.07014 -42.79493,51.91992 -3.68213,5.69232 -6.32925,10.57329 -7.49165,13.01703 l 516.03584,0.41897 c -4.00865,-6.5559 -9.7348,-14.6274 -15.21801,-19.10982 -8.78286,-7.17983 -18.68505,-11.20905 -36.23242,-15.44922 -17.54738,-4.24018 -42.7388,-8.68938 -67.26954,-19.66211 -24.53073,-10.97274 -48.39816,-28.46813 -73.82422,-37.19141 -22.24779,-7.63287 -45.68745,-8.54814 -74.24804,-8.61523 z"
       transform="matrix(0.26458333,0,0,0.26458333,288.3775,-45.480197)"
       sodipodi:nodetypes="sssssccsssss" />
    <path
       id="path22346"
       style="fill:#b3b3b3;fill-opacity:1;stroke:none;stroke-width:0.999999px;stroke-linecap:butt;stroke-linejoin:miter;stroke-opacity:1"
       d="M 1462.6133 378.05469 C 1454.0459 354.21399 1444.7576 332.70615 1434.3398 319.85742 C 1420.1383 302.34195 1403.9184 301.10123 1386.2734 303.67773 C 1368.6285 306.25424 1349.6557 312.61799 1329.75 322.21094 C 1309.8443 331.80388 1289.1976 344.56193 1273.4844 359.85547 C 1257.7711 375.14901 1246.9909 392.97668 1235.0977 410.33008 C 1223.2044 427.68348 1210.1979 444.5622 1208.7949 459.51172 C 1207.3919 474.46124 1217.5928 487.48 1241.9551 506.19727 C 1266.3174 524.91453 1304.84 549.32832 1338.1016 565.32617 C 1371.3631 581.32402 1399.3612 588.90379 1420.5176 593.63477 C 1438.1861 597.58579 1451.0613 599.53245 1462.6133 600.33594 L 1462.6133 378.05469 z "
       transform="matrix(0.26458333,0,0,0.26458333,288.3775,-45.480197)" />
    <path
       id="path23736"
       style="fill:#b3b3b3;fill-opacity:1;stroke:none;stroke-width:0.264583px;stroke-linecap:butt;stroke-linejoin:miter;stroke-opacity:1"
       d="m 288.40057,54.99348 v 58.81192 c 0.60335,0.042 1.19814,0.0769 1.78078,0.0966 3.53404,0.11965 6.81508,-0.13921 8.83097,-1.95182 2.01589,-1.81261 2.76709,-5.17937 2.54921,-9.30176 -0.21792,-4.122387 -1.40997,-9.019152 -3.31351,-15.905489 -1.90355,-6.886334 -4.52832,-15.800305 -7.4476,-24.713737 -0.7778,-2.374855 -1.57655,-4.744688 -2.39985,-7.035744 z" />
    <path
       id="path24234"
       style="fill:#b3b3b3;fill-opacity:1;stroke:none;stroke-width:0.264583px;stroke-linecap:butt;stroke-linejoin:miter;stroke-opacity:1"
       d="m 657.93789,-45.66041 h -67.45843 c 1.67447,3.250898 3.70057,7.128885 6.58979,12.477273 4.04546,7.488725 9.74638,17.796195 14.07822,23.4104574 4.33181,5.6142625 7.29477,6.5352004 12.1889,4.1449651 4.89413,-2.3902326 11.71779,-8.0906275 18.44953,-16.3493895 6.20712,-7.615166 12.30506,-17.358553 16.15199,-23.683306 z" />
    <path
       id="path25600"
       style="fill:#b3b3b3;fill-opacity:1;stroke:none;stroke-width:0.999999px;stroke-linecap:butt;stroke-linejoin:miter;stroke-opacity:1"
       d="M 1294.6973 674.34766 C 1271.9905 674.48333 1249.0866 675.65087 1226.0898 677.56836 C 1195.4275 680.12502 1164.6008 684.01568 1145.9395 686.9668 C 1127.2781 689.91792 1120.7809 691.92884 1120.7109 699.17969 C 1120.6409 706.43054 1126.9988 718.91902 1134.6934 733.98828 C 1136.8925 738.29519 1139.2701 742.93652 1141.8027 747.85352 L 1396.7637 747.85352 C 1397.9925 745.83322 1399.2724 743.73443 1400.373 741.91406 C 1414.4965 718.55465 1417.6536 712.71501 1416.8906 705.4668 C 1416.1277 698.21858 1411.3746 689.43171 1394.2324 683.77734 C 1377.0902 678.12298 1347.4192 675.34424 1317.334 674.56641 C 1309.8127 674.37195 1302.2662 674.30243 1294.6973 674.34766 z "
       transform="matrix(0.26458333,0,0,0.26458333,288.3775,-45.480197)" />
  </g>
</svg>
