<?xml version="1.0" encoding="UTF-8"?>
<!-- Created with Inkscape (http://www.inkscape.org/) -->
<svg width="508.75mm" height="243.46mm" version="1.1" viewBox="0 0 508.75 243.46" xmlns="http://www.w3.org/2000/svg">
 <g transform="translate(144.69 -22.901)" display="none" fill="#4b4b4b">
  <path d="m-94.725 22.9s-3.3412 141.17-2.3649 141.72c3.3538 3.7859 13.647 19.144 13.793 19.144 0.24303 0 4.07-2.7412 15.758-11.288 2.3552-1.7223 6.6033-4.8282 9.4403-6.9019 2.8369-2.0737 5.2686-3.7703 5.4038-3.7703s3.5666 1.4121 7.6254 3.1383c16.938 7.2039 27.137 11.552 29.954 12.771l2.9952 1.2955 11.821-7.7199c6.5018-4.246 13.382-8.7137 15.29-9.9286l3.468-2.2092 25.368 2.528 5.6756 3.6861c3.1217 2.0274 7.343 4.7747 9.3803 6.1051 2.0373 1.3303 6.2862 4.1051 9.4423 6.166 3.1561 2.0609 5.8099 3.7471 5.8968 3.7471 0.15305 0 3.6513-3.0548 17.435-15.224 3.6191-3.1954 6.915-6.0803 7.3241-6.4105 0.76625-0.6183 3.5036-0.89121 27.441-2.7383l3.7744-0.29146 9.6764 9.4883c5.3221 5.2184 11.038 10.78 12.702 12.359l3.0251 2.8711 1.7658-1.5482c0.97105-0.85172 6.5943-5.8172 12.496-11.034l10.73-9.4847 9.8516-4.8498c5.4185-2.6672 10.094-4.926 10.39-5.0198 0.38024-0.12068 0.94316 0.12334 1.9224 0.83405 2.8844 2.0935 23.465 17.189 26.12 19.159l2.7761 2.0593 1.5896-1.4826c1.5914-1.4837 9.4481-9.1619 18.671-18.246 2.7006-2.6601 5.0311-4.8364 5.179-4.8364 0.14785 0 1.9442 2.0538 3.9915 4.5641 2.0473 2.5102 5.8297 7.1239 8.4057 10.253 2.576 3.1287 5.1188 6.2213 5.6508 6.8724 12.53 15.336 12.322 15.088 12.586 15.088 0.16262 0 8.6746-5.5063 26.286-17.004l1.0139-0.66198c0.01-8.7808 0.0237-16.741 0.03-26.307 0.0232-35.576 0.0232-76.249 0.0233-116.89h-205.15z"/>
  <path transform="matrix(.26458 0 0 .26458 -144.69 22.901)" d="m1726.2 0.50401c-3e-4 153.62-11.526 274.46-11.614 408.92-0.024 36.156 10.514 106.76 10.476 139.95l23.813-15.599 4.2382 1.0176c2.3307 0.56047 19.538 4.7272 38.238 9.2578l34 8.2363 48.217 28.109 52.324 25.059s10.295-116.46 10.239-289.98l12.295-318.39z"/>
  <path d="m-87.331 23.241c7e-5 40.645-9.3423 80.077-9.3191 115.65 6e-3 9.5662 0.0201 17.526 0.03 26.307l-3.0241-1.974-1.1214 0.26923c-0.61666 0.14829-5.1695 1.2507-10.117 2.4495l-8.9958 2.1792-25.515 14.875-9e-3 2.9766c-5e-3 1.6371-0.0697 2.9766-0.14417 2.9766-0.0745 0-0.12333-37.564-0.10854-83.476l0.0265-83.476z"/>
 </g>
 <g fill="#5a5a5a" stroke-width=".26458">
  <path d="m79.586-0.299-80.29-0.78548 0.13229 68.858c0.071852 37.399 0.044774 67.998 0.099219 67.998 0.054445 0 3.4772-3.9588 7.6063-8.7974 4.1291-4.8386 8.9956-10.535 10.815-12.659s4.1119-4.8098 5.0948-5.9691c0.98284-1.1594 2.233-2.4331 2.7781-2.8303s2.5003-1.8183 4.345-3.1585c3.995-2.9025 12.94-9.4719 13.315-9.7787 0.14552-0.11905 2.8502-2.1007 6.0105-4.4039l5.7459-4.1879 5.8958-1.6418c3.2427-0.90312 7.5626-2.1037 9.5999-2.6681 3.1964-0.88549 5.7614-1.6256 9.0604-2.5523z"/>
  <path d="m429.37-0.20237h79.819v67.998c0 37.399-0.0448 67.998-0.0992 67.998s-3.4772-3.9588-7.6062-8.7974c-4.1291-4.8386-8.9956-10.535-10.815-12.659-1.8192-2.1238-4.112-4.8098-5.0948-5.9692-0.98284-1.1594-2.233-2.4331-2.7781-2.8303-0.54513-0.39719-2.5003-1.8183-4.345-3.1585-3.995-2.9025-12.94-9.4719-13.315-9.7787-0.14552-0.11905-2.8502-2.1007-6.0105-4.4039l-5.7459-4.1879-5.8958-1.6418c-3.2426-0.90312-7.5626-2.1037-9.5999-2.6681-3.1964-0.88549-5.2146-1.4665-8.5137-2.3931z"/>
  <path d="m79.247-0.22459v77.508c3.6375-1.0217 8.4481-2.3604 9.387-2.6386 0.96848-0.28697 1.8831-0.52193 2.0324-0.52193 0.25159 0 2.0456 2.2613 6.6699 8.4052 27.43 36.444 28.823 38.284 29.04 38.353 0.16542 0.0529 1.7064-2.42 11.323-18.172 1.4696-2.4072 4.4338-7.2345 6.5872-10.727s5.522-8.9694 7.4853-12.171c1.9634-3.2015 3.9228-6.3864 4.3542-7.0776l0.78445-1.2568h35.35l2.3394 1.603c1.2867 0.88152 3.2324 2.2225 4.3238 2.9797 4.8505 3.3651 24.798 17.281 27.463 19.159l1.666 1.1741 5.2131-5.1284c10.052-9.8906 15.288-15.003 17.746-17.324l2.4794-2.342 6.5164 0.45217c3.5842 0.24848 11.22 0.76146 16.968 1.1405 5.7481 0.37904 10.83 0.74758 11.293 0.81907 0.90075 0.13902 0.081-0.92444 11.811 15.326 1.8906 2.6194 4.1748 5.7745 5.0757 7.0115 0.90085 1.2369 3.2334 4.4616 5.1837 7.1655 1.9502 2.7039 4.7936 6.6433 6.318 8.7545l2.7714 3.8385 0.7669-1.0588c0.42188-0.58237 2.6359-3.8074 4.9201-7.167 2.2841-3.3596 4.9269-7.2398 5.873-8.6222 0.94615-1.3824 2.6524-3.8828 3.7915-5.5562 1.1391-1.6735 3.7037-5.424 5.6989-8.3344 1.9952-2.9104 4.6859-6.8443 5.9795-8.7426 1.2936-1.8983 2.6065-3.7982 2.9176-4.222l0.56586-0.7705 3.7998 0.33435c2.09 0.18387 7.3121 0.70459 11.605 1.1576 7.357 0.77627 8.602 0.83246 21.678 0.9772l13.873 0.15348 3.2474 7.1438c1.786 3.9291 3.6254 7.9772 4.0876 8.9958 1.1326 2.496 10.333 22.663 11.737 25.727l1.1193 2.4438 5.533-7.1918c3.043-3.9552 5.8495-7.6145 6.2368-8.1318 0.38737-0.51726 1.8756-2.4484 3.3073-4.2917 1.4316-1.8434 4.2103-5.4572 6.1748-8.031 1.9645-2.5738 4.841-6.3126 6.3919-8.308l2.8195-3.6277 10.939 1.3844c6.0162 0.76152 13.022 1.8058 15.569 2.3208 2.5466 0.51498 7.7258 1.5406 11.509 2.2789 3.7835 0.73832 7.0875 1.4064 7.3422 1.4847 0.43143 0.13261 0.46302 0.90363 0.46302 11.288v11.146l4.9274 13.245c2.7099 7.2845 5.1268-17.094 5.1268-54.445v-67.91h-254z"/>
 </g>
</svg>
