<?xml version="1.0" encoding="UTF-8"?>
<!-- Created with Inkscape (http://www.inkscape.org/) -->
<svg width="481.84mm" height="271.47mm" version="1.1" viewBox="0 0 481.84 271.47" xmlns="http://www.w3.org/2000/svg">
 <g transform="translate(-315.49 17.641)">
  <path d="m762.62 99.147c-13.316-0.80446-30.071-2.7703-46.537-6.1264-16.466-3.3561-32.64-8.1021-45.919-16.222s-23.66-19.613-35.634-35.831-25.538-37.16-42.673-48.107c-17.135-10.947-37.838-11.899-60.328-9.2816-22.49 2.6178-46.763 8.8052-72.228 24.155-25.464 15.35-52.118 39.862-76.035 66.635-23.917 26.773-45.097 55.806-56.401 71.989-11.304 16.183-12.732 19.514-10.471 18.562 2.2609-0.95205 8.2103-6.1875 26.059-16.659 17.849-10.471 47.596-26.178 68.895-35.34 21.299-9.1623 34.15-11.78 47.596-10.114 13.446 1.666 27.487 7.6154 35.102 18.92s8.8053 27.963 7.4963 49.262-5.1166 47.239-6.5445 58.662c-1.4279 11.423-0.47598 8.3293 3.3318 2.1417 3.8078-6.1876 10.471-15.469 20.823-26.178 10.352-10.709 24.393-22.846 34.745-31.294 10.352-8.4484 17.015-13.208 25.107-12.494 8.0916 0.71408 17.611 6.9014 23.203 19.515 5.5924 12.613 7.2582 31.651 8.2101 45.451 0.95182 13.8 1.19 22.373 2.1419 25.586 0.95193 3.2126 2.6178 1.0708 6.0685-6.4257 3.4508-7.4965 8.6862-20.347 14.874-34.031 6.1876-13.684 13.327-28.2 28.32-37.958 14.993-9.7575 37.839-14.755 57.234-19.872 19.396-5.1166 35.34-10.352 47.715-14.16 12.375-3.8077 21.18-6.1875 25.761-9.6975s4.938-8.1507 4.7596-13.505c-0.17846-5.3545-0.8924-11.423-6.1875-14.279-5.2951-2.856-15.171-2.499-28.487-3.3035z"/>
 </g>
</svg>
