<?xml version="1.0" encoding="iso-8859-1"?>
<!-- Generator: Adobe Illustrator 19.0.0, SVG Export Plug-In . SVG Version: 6.00 Build 0)  -->
<svg version="1.1" id="Capa_1" xmlns="http://www.w3.org/2000/svg" xmlns:xlink="http://www.w3.org/1999/xlink" x="0px" y="0px"
	 viewBox="0 0 330.99 330.99" style="enable-background:new 0 0 330.99 330.99;" xml:space="preserve">
<g>
	<g>
		<path d="M97.616,180.475c-2.678,0-4.849,2.17-4.849,4.849v45.253c0,2.678,2.171,4.849,4.849,4.849c2.678,0,4.848-2.17,4.848-4.849
			v-45.253C102.465,182.646,100.294,180.475,97.616,180.475z"/>
	</g>
</g>
<g>
	<g>
		<path d="M117.01,180.475c-2.678,0-4.848,2.17-4.848,4.849v45.253c0,2.678,2.171,4.849,4.848,4.849s4.849-2.17,4.849-4.849v-45.253
			C121.859,182.646,119.688,180.475,117.01,180.475z"/>
	</g>
</g>
<g>
	<g>
		<path d="M39.434,209.566c-2.678,0-4.849,2.17-4.849,4.848v45.253c0,2.678,2.171,4.848,4.849,4.848s4.848-2.171,4.848-4.848
			v-45.253C44.283,211.737,42.112,209.566,39.434,209.566z"/>
	</g>
</g>
<g>
	<g>
		<path d="M58.828,209.566c-2.678,0-4.848,2.17-4.848,4.848v45.253c0,2.678,2.171,4.848,4.848,4.848s4.849-2.17,4.849-4.848v-45.253
			C63.677,211.737,61.506,209.566,58.828,209.566z"/>
	</g>
</g>
<g>
	<g>
		<path d="M233.374,180.475c-2.678,0-4.849,2.17-4.849,4.849v45.253c0,2.678,2.171,4.849,4.849,4.849s4.848-2.17,4.848-4.849
			v-45.253C238.222,182.646,236.051,180.475,233.374,180.475z"/>
	</g>
</g>
<g>
	<g>
		<path d="M213.98,180.475c-2.678,0-4.849,2.17-4.849,4.849v45.253c0,2.678,2.171,4.849,4.849,4.849c2.678,0,4.848-2.17,4.848-4.849
			v-45.253C218.828,182.646,216.657,180.475,213.98,180.475z"/>
	</g>
</g>
<g>
	<g>
		<path d="M310.949,303.04c2.678,0,4.849-2.17,4.849-4.849v-83.777c0-50.932-9.182-100.594-27.293-147.709
			c7.43-2.719,12.748-9.861,12.748-18.221c0-10.694-8.7-19.394-19.394-19.394c-10.694,0-19.394,8.7-19.394,19.394
			c0,8.36,5.317,15.502,12.748,18.221c-6.11,15.895-11.2,32.08-15.267,48.505c-0.346,0.663-0.544,1.415-0.548,2.214
			c-1.664,6.884-3.142,13.811-4.446,20.775c-3.918-34.458-12.152-68.126-24.63-100.585c7.43-2.718,12.748-9.86,12.748-18.22
			C243.071,8.7,234.371,0,223.677,0c-10.694,0-19.394,8.7-19.394,19.394c0,8.36,5.318,15.502,12.748,18.221
			c-16.929,44.043-26.057,90.31-27.175,137.759c-2.084-0.665-4.172-1.312-6.247-1.935l-16.723-5.018
			c-0.909-0.273-1.878-0.273-2.788,0l-16.723,5.018c-2.079,0.624-4.163,1.27-6.239,1.932
			c-1.118-47.449-10.246-93.714-27.175-137.756c7.43-2.719,12.748-9.861,12.748-18.221C126.707,8.7,118.007,0,107.313,0
			S87.919,8.7,87.919,19.394c0,8.36,5.317,15.502,12.748,18.221C88.19,70.074,79.955,103.741,76.038,138.2
			c-1.303-6.964-2.782-13.891-4.446-20.775c-0.003-0.799-0.202-1.551-0.548-2.215c-4.067-16.425-9.158-32.61-15.267-48.505
			c7.43-2.719,12.748-9.861,12.748-18.221c0-10.694-8.7-19.394-19.394-19.394c-10.694,0-19.394,8.7-19.394,19.394
			c0,8.36,5.317,15.502,12.748,18.221c-18.111,47.116-27.293,96.777-27.293,147.709v83.777c0,2.678,2.171,4.849,4.849,4.849
			c2.678,0,4.848-2.17,4.848-4.849v-83.777c0-31.304,3.552-62.114,10.592-92.121h27.302c7.04,30.007,10.592,60.817,10.592,92.121
			v58.522c-20.647,14.293-39.768,31.026-56.925,49.948c-1.288,1.421-1.618,3.468-0.841,5.221c0.777,1.754,2.515,2.885,4.433,2.885
			h290.909c1.918,0,3.656-1.131,4.433-2.885c0.777-1.753,0.447-3.8-0.841-5.221c-17.156-18.921-36.278-35.654-56.925-49.947v-58.523
			c0-31.303,3.552-62.114,10.592-92.121h27.301c7.039,30.008,10.592,60.817,10.592,92.121v83.777
			C306.101,300.869,308.272,303.04,310.949,303.04z M39.434,48.485c0-5.347,4.35-9.697,9.697-9.697s9.697,4.35,9.697,9.697
			c0,5.347-4.35,9.697-9.697,9.697S39.434,53.832,39.434,48.485z M37.888,112.597c3.173-12.147,6.919-24.157,11.244-36.005
			c4.325,11.848,8.07,23.858,11.244,36.005H37.888z M73.374,321.293H31.238c13.05-13.44,27.157-25.636,42.136-36.483V321.293z
			 M97.616,19.394c0-5.347,4.35-9.697,9.697-9.697s9.697,4.35,9.697,9.697c0,5.347-4.35,9.697-9.697,9.697
			S97.616,24.741,97.616,19.394z M107.314,47.5c4.324,11.848,8.07,23.858,11.243,36.005H96.07
			C99.243,71.359,102.989,59.349,107.314,47.5z M112.161,321.293h-9.697v-29.091h9.697V321.293z M131.556,321.293h-9.698v-33.939
			c0-2.678-2.171-4.848-4.849-4.848H97.615c-2.678,0-4.848,2.17-4.848,4.848v33.939h-9.696v-43.228
			c15.383-10.29,31.603-19.197,48.485-26.603V321.293z M131.556,240.905c-16.834,7.121-33.051,15.678-48.485,25.569v-81.15
			c0-31.304,3.552-62.114,10.592-92.121h27.302c7.04,30.007,10.592,60.817,10.592,92.121V240.905z M141.252,185.539
			c2.957-0.97,5.933-1.92,8.91-2.813l15.329-4.6l15.329,4.6c2.967,0.89,5.949,1.842,8.917,2.815v11.04h-48.485V185.539z
			 M160.643,321.293h-19.391v-31.651c6.348-2.965,12.839-5.695,19.391-8.159V321.293z M189.737,321.293H170.34v-39.81
			c6.552,2.465,13.046,5.195,19.397,8.162V321.293z M189.737,278.981c-7.43-3.327-15.022-6.343-22.655-8.994
			c-0.012-0.005-0.026-0.006-0.038-0.01c-0.228-0.077-0.462-0.137-0.703-0.18c-0.038-0.006-0.076-0.012-0.114-0.017
			c-0.24-0.037-0.485-0.061-0.736-0.061c-0.251,0-0.495,0.025-0.736,0.061c-0.039,0.006-0.077,0.011-0.115,0.017
			c-0.241,0.043-0.475,0.102-0.702,0.179c-0.012,0.005-0.026,0.005-0.038,0.01c-7.632,2.651-15.221,5.666-22.648,8.992v-31.579
			c7.952-3.172,16.036-6.021,24.239-8.525c8.206,2.504,16.292,5.354,24.246,8.527V278.981z M189.737,236.993
			c-7.51-2.892-15.13-5.51-22.853-7.828c-0.91-0.273-1.879-0.273-2.788,0c-7.72,2.317-15.337,4.935-22.845,7.825v-30.712h48.485
			V236.993z M213.98,19.394c0-5.347,4.35-9.697,9.697-9.697c5.347,0,9.697,4.35,9.697,9.697c0,5.347-4.35,9.697-9.697,9.697
			C218.33,29.091,213.98,24.741,213.98,19.394z M223.676,47.5c4.326,11.848,8.07,23.858,11.244,36.006h-22.487
			C215.606,71.358,219.352,59.348,223.676,47.5z M228.519,321.293h-9.697v-29.091h9.697V321.293z M247.919,321.293h-9.703v-33.939
			c0-2.678-2.17-4.848-4.848-4.848h-19.394c-2.678,0-4.849,2.17-4.849,4.848v33.939h-9.69v-69.83
			c16.882,7.405,33.103,16.312,48.485,26.601V321.293z M247.919,266.475c-15.434-9.89-31.651-18.448-48.485-25.568v-55.583
			c0-1.047,0.009-2.094,0.017-3.14c0.001-0.028,0-0.057,0.001-0.085c0.235-30.194,3.777-59.919,10.574-88.896h27.302
			c7.039,30.008,10.592,60.817,10.592,92.121V266.475z M299.752,321.293h-42.136V284.81
			C272.595,295.657,286.703,307.854,299.752,321.293z M272.162,48.485c0-5.347,4.35-9.697,9.697-9.697
			c5.347,0,9.697,4.35,9.697,9.697c0,5.347-4.35,9.697-9.697,9.697C276.512,58.182,272.162,53.832,272.162,48.485z M270.615,112.597
			c3.173-12.148,6.919-24.158,11.243-36.006c4.325,11.849,8.07,23.859,11.244,36.006H270.615z"/>
	</g>
</g>
<g>
	<g>
		<path d="M291.556,209.566c-2.678,0-4.849,2.17-4.849,4.848v45.253c0,2.678,2.171,4.848,4.849,4.848s4.848-2.17,4.848-4.848
			v-45.253C296.404,211.737,294.233,209.566,291.556,209.566z"/>
	</g>
</g>
<g>
	<g>
		<path d="M272.162,209.566c-2.678,0-4.849,2.17-4.849,4.848v45.253c0,2.678,2.171,4.848,4.849,4.848
			c2.678,0,4.848-2.17,4.848-4.848v-45.253C277.01,211.737,274.839,209.566,272.162,209.566z"/>
	</g>
</g>
<g>
	<g>
		<circle cx="49.131" cy="195.019" r="4.848"/>
	</g>
</g>
<g>
	<g>
		<circle cx="49.131" cy="175.625" r="4.849"/>
	</g>
</g>
<g>
	<g>
		<circle cx="49.131" cy="156.231" r="4.848"/>
	</g>
</g>
<g>
	<g>
		<circle cx="49.131" cy="136.837" r="4.848"/>
	</g>
</g>
<g>
	<g>
		<circle cx="107.313" cy="165.928" r="4.848"/>
	</g>
</g>
<g>
	<g>
		<circle cx="107.313" cy="146.534" r="4.848"/>
	</g>
</g>
<g>
	<g>
		<circle cx="107.313" cy="127.14" r="4.849"/>
	</g>
</g>
<g>
	<g>
		<circle cx="107.313" cy="107.746" r="4.848"/>
	</g>
</g>
<g>
	<g>
		<circle cx="281.859" cy="195.019" r="4.848"/>
	</g>
</g>
<g>
	<g>
		<circle cx="281.859" cy="175.625" r="4.849"/>
	</g>
</g>
<g>
	<g>
		<circle cx="281.859" cy="156.231" r="4.848"/>
	</g>
</g>
<g>
	<g>
		<circle cx="281.859" cy="136.837" r="4.848"/>
	</g>
</g>
<g>
	<g>
		<circle cx="223.677" cy="165.928" r="4.848"/>
	</g>
</g>
<g>
	<g>
		<circle cx="223.677" cy="146.534" r="4.848"/>
	</g>
</g>
<g>
	<g>
		<circle cx="223.677" cy="127.14" r="4.849"/>
	</g>
</g>
<g>
	<g>
		<circle cx="223.677" cy="107.746" r="4.848"/>
	</g>
</g>
<g>
</g>
<g>
</g>
<g>
</g>
<g>
</g>
<g>
</g>
<g>
</g>
<g>
</g>
<g>
</g>
<g>
</g>
<g>
</g>
<g>
</g>
<g>
</g>
<g>
</g>
<g>
</g>
<g>
</g>
</svg>
