<?xml version="1.0" encoding="UTF-8"?>
<!-- Created with Inkscape (http://www.inkscape.org/) -->
<svg width="1337.8mm" height="666.42mm" version="1.1" viewBox="0 0 1337.8 666.42" xmlns="http://www.w3.org/2000/svg">
 <g transform="translate(-587.04 348.92)" fill="#9e9e9e">
  <g stroke-linecap="round" stroke-linejoin="bevel">
   <path d="m553.49 243.62h1387.4v119.06h-1387.4z" stroke-width=".065" style="paint-order:stroke fill markers"/>
   <path d="m1080-229.16-83.046-63.499 173.61 1.3558z" stroke-width=".033737" style="paint-order:stroke fill markers"/>
   <path d="m1439.5-239.41-46.692-67.903 89.926 2.2437z" stroke-width=".037514" style="paint-order:stroke fill markers"/>
   <path d="m1737.9-226.68-81.154-85.197 193.65 10.676z" stroke-width=".041135" style="paint-order:stroke fill markers"/>
   <path d="m783.45-211.19-116.26-105.29 280.91 0.18171z" stroke-width=".065" style="paint-order:stroke fill markers"/>
  </g>
  <path d="m582.32-236.71c18.357-0.0231 54.992-11.148 138.69-21.54 83.701-10.392 214.46-20.05 342.31-23.042 127.85-2.9922 252.78 0.68171 359.95 3.9981s196.56 6.275 278.94 13.081c82.382 6.8056 157.74 17.457 198.37 26.889 40.624 9.4319 46.503 17.643 47.263-5.4403 0.7599-23.083-3.5999-77.458-9.8743-105.81-6.2745-28.35-14.463-30.675-240.14-30.488-225.68 0.18717-668.83 2.8862-896.07 4.4403-227.23 1.554-238.53 1.9629-242.21 21.068s0.29108 56.905 2.3107 81.346c2.0196 24.44 2.0971 35.52 20.454 35.497z"/>
  <path d="m1228.8-313.46 10.548 258.22-38.517 251.43-22.364 52.132 133.16-1.076-25.54-67.752-1.8407-224.89 27.591-270.66z"/>
  <path d="m1926.5-281.93-61.024-3.56 38.67 51.294-0.9627 63.668 3.5558 187.79-28.335 200.15-51.2 41.436 99.296-8.1101z"/>
  <path transform="matrix(.26458 0 0 .26458 587.04 -348.92)" d="m-2.0918 253.19v2013.2l213.13-17.408-103.81-115.41-13.766-544.03 3.9961-599.7 76.303-580.98 110.11-139.02-285.96-16.682z"/>
 </g>
</svg>
