<?xml version="1.0" encoding="UTF-8"?>
<!-- Created with Inkscape (http://www.inkscape.org/) -->
<svg width="386.35mm" height="197.71mm" version="1.1" viewBox="0 0 386.35 197.71" xmlns="http://www.w3.org/2000/svg">
 <g transform="translate(-288.38 45.48)">
  <g>
   <path d="m666.78-21.89c-2.1245-0.53826-5.346 1.1302-7.7988 3.6276-2.4527 2.4974-4.1365 5.8233-4.8472 9.6902-0.71068 3.8669-0.44828 8.2744-0.16218 11.404 0.28611 3.1298 0.59589 4.9818 2.5662 5.041 1.9703 0.059207 5.6011-1.6741 8.0808-3.1173 2.4798-1.4432 3.8086-2.5962 4.6735-5.9842 0.86494-3.388 1.266-9.0109 0.9528-13.195-0.31321-4.1839-1.3407-6.9286-3.4653-7.4669z" fill="#f2f2f2"/>
   <path d="m330.1 85.593c1.656-0.83123 4.968-2.4936 7.4268-3.533 2.4588-1.0393 4.1682-1.4825 5.3017-1.537 1.1336-0.05448 1.7431 0.26615 2.4926 1.0283 0.7495 0.76217 1.639 1.9658 3.1916 3.035 1.5527 1.0692 3.7684 2.004 5.6007 3.9027s3.2811 4.7613 3.8957 6.4067c0.6146 1.6454 0.39503 2.0739-0.28705 2.7649-0.68208 0.69103-1.8529 1.6665-3.1764 2.6714-1.3235 1.0049-2.8127 2.05-5.0776 2.7346-2.2649 0.68456-5.3054 1.0084-8.6508 1.1453-3.3454 0.13682-6.9957 0.0866-10.259 0.0496-3.2632-0.037-6.2497-0.0616-7.772-0.42148-1.5223-0.35991-1.6356-1.0557-1.8626-2.3451-0.227-1.2894-0.56423-3.1529 0.0637-5.2814 0.62789-2.1285 2.2226-4.512 3.6265-6.1861s2.6169-2.6387 3.2234-3.121c0.60648-0.48229 0.60648-0.48231 2.2625-1.3135z" fill="#ccc"/>
   <path d="m385.68 11.803c-6.5454 7.2289-15.832 16.792-19.58 22.882-3.7481 6.0907-1.9579 8.709 0.89518 14.344 2.8531 5.6353 6.7691 14.287 11.077 19.581 4.3078 5.2936 9.0069 7.2289 15.217 9.9042 6.2098 2.6753 13.93 6.0905 19.3 6.1473 5.3704 0.05682 8.3913-3.2445 12.979-9.5059 4.5874-6.2614 10.741-15.482 12.979-25.899s0.55949-22.028-0.98812-28.832c-1.5476-6.8041-3.0396-8.906-8.4102-12.321-5.3706-3.4154-14.657-8.1966-20.195-10.644-5.5384-2.4477-7.3286-2.5615-10.126-0.17077-2.7974 2.3907-6.6014 7.2859-13.147 14.515z" fill="#999"/>
   <path d="m454.9 35.34c10.709-4.0457 27.963-9.8762 42.42-14.219 14.457-4.3432 26.118-7.1989 40.04-10.233 13.922-3.0343 30.104-6.247 39.802-7.3773 9.6978-1.1303 12.91-0.17843 14.457 1.785 1.5467 1.9635 1.4277 4.9382-2.2016 9.6382-3.6293 4.7001-10.769 11.125-18.503 17.61-7.7344 6.485-16.064 13.029-24.631 20.109s-17.372 14.695-23.322 21.597-9.0433 13.089-16.183 15.171-18.324 0.05949-27.784-4.5811c-9.4598-4.6406-17.194-11.899-23.62-17.432-6.4255-5.5331-11.542-9.3407-14.576-12.97-3.0344-3.6292-3.9863-7.0798-2.3799-9.9358s5.771-5.1167 16.48-9.1624z" fill="#808080"/>
   <path d="m431.4 5.6524c-1.4874-4.1052-4.2242-11.84-6.723-18.949-2.4988-7.1097-4.7596-13.594-4.0158-17.67s4.4918-5.7415 15.915-7.0207c11.423-1.2791 30.349-2.1635 48.629-3.9345 18.28-1.771 35.26-4.3651 47.965 2.9945s20.981 24.696 24.102 33.654c3.1212 8.9582 1.0876 9.538-9.1191 13.423-10.207 3.8852-28.586 11.076-43.13 17.229-14.544 6.1536-25.253 11.27-36.26 9.9017-11.007-1.3683-22.31-9.2215-28.26-14.398-5.9496-5.1761-6.5446-7.6748-6.961-9.1622s-0.6544-1.9633-2.1418-6.0685z" fill="#e6e6e6"/>
   <path d="m426.34 68.538c7.8534-4.1647 16.54-6.1875 22.906-7.6154 6.366-1.4279 10.412-2.2608 14.517-0.65425 4.1052 1.6066 8.2698 5.6522 12.613 10.055 4.3432 4.4027 8.8647 9.1622 13.307 13.117s8.6472 6.9921 11.265 10.205c2.6177 3.2128 3.5696 6.5445 2.9831 10.807-0.58652 4.2628-2.7454 9.5399-5.4822 14.657-2.7368 5.1166-6.0685 10.114-9.1622 13.743-3.0937 3.6292-5.9494 5.8899-9.876 6.6634s-8.9241 0.0595-17.492-1.1899c-8.5674-1.2494-20.704-3.0342-29.093-5.3545-8.3888-2.3203-13.029-5.176-19.098-9.1622-6.0686-3.9862-13.565-9.1027-16.837-13.505-3.2724-4.4027-2.3205-8.0913-0.35713-12.137 1.9634-4.0458 4.9381-8.4483 9.9358-13.803s12.018-11.661 19.871-15.826z" fill="#b3b3b3"/>
   <path d="m541.94 53.26c-8.2456 7.4884-11.443 11.695-13.042 14.809-1.5986 3.1133-1.5986 5.1326 1.8e-4 6.1 1.5988 0.96746 4.796 0.88332 10.77 0.6329 5.974-0.25042 14.892-0.67511 23.937-0.42266 9.045 0.25245 18.3 1.178 25.831 1.7249 7.5305 0.54689 13.336 0.71517 16.828-0.21034 3.4916-0.92551 4.6695-2.9448 7.5937-6.7067 2.9242-3.7619 7.6774-9.3639 12.263-15.085 4.5856-5.7215 9.0449-11.611 10.602-16.197s0.21044-7.8668-3.7861-11.443c-3.9966-3.576-10.643-7.4463-16.954-10.517-6.3105-3.0711-12.284-5.3428-15.65-6.1843-3.3657-0.84146-4.1229-0.2525-7.6148 2.3979-3.4918 2.6504-9.718 7.3621-19.478 15.103-9.7603 7.7409-23.054 18.51-31.3 25.999z" fill="#b3b3b3"/>
   <path d="m599.99 70.803c-4.7117 0.88349-10.686 0.63107-14.935 1.1359-4.2491 0.50482-6.7732 1.7669-7.5304 3.1133s0.25245 2.7767 4.7539 12.074 12.494 26.461 17.122 36.979 5.8898 14.388 7.5727 17.038 3.7863 4.0807 6.3946 4.4171c2.6083 0.33643 5.7214-0.42081 10.433-1.6829s11.022-3.029 18.805-5.5111c7.7829-2.4821 17.038-5.6794 22.675-8.8345s7.6565-6.2683 8.6662-8.4979c1.0097-2.2296 1.0097-3.5758 0.16835-6.2262-0.84133-2.6504-2.5241-6.6048-8.0984-12.896-5.5743-6.2915-15.124-14.996-23.538-21.517-8.414-6.5208-15.734-10.896-20.698-12.957-4.9643-2.0615-7.5725-1.8091-10.602-0.6732-3.0291 1.1359-6.4787 3.1552-11.19 4.0387z" fill="#ccc"/>
   <path d="m579.87-45.644h-65.126c8.7425 3.7507 18.988 8.4631 25.635 11.169 6.6615 2.7117 9.7066 3.4069 15.48 1.6686s14.274-5.91 20.428-10.151c1.2916-0.89018 2.475-1.784 3.5832-2.6861z" fill="#e6e6e6"/>
   <path transform="matrix(.26458 0 0 .26458 288.38 -45.48)" d="m1088.1 442.1c-2.2666-8e-3 -4.7731 0.0261-7.5606 0.0918-22.3 0.52529-62.581 3.1524-100.23 8.4082-37.646 5.2558-72.655 13.139-87.521 16.818-14.866 3.6791-9.5914 3.1537-21.82 7.6211-12.229 4.4674-41.959 13.928-64.02 38.105-22.06 24.177-36.448 63.068-45.32 96.969-8.8719 33.9-12.228 62.808-10.309 78.838 1.9189 16.03 9.1108 19.183 26.375 26.016 17.264 6.8325 44.6 17.344 77.689 31.535 0.0722 0.031-0.41183 2.3547-0.41183 2.3547l245.71-1.0049c15.768-12.835 28.344-27.396 40.28-42.346 15.106-18.921 30.93-40.469 41.84-55.383 10.91-14.913 16.025-21.973 13.756-39.004-2.2687-17.031-10.584-34.928-21.256-57.451-10.672-22.523-21.512-44.99-32.242-63.254-10.73-18.264-21.16-31.929-28.533-39.551-6.4515-6.6687-10.562-8.7096-26.428-8.7637z" fill="#e6e6e6"/>
   <path d="m365.54 75.41c0.83292 0.08922 1.1304 0.08922 5.7414 0.02973 4.611-0.0595 13.535-0.17848 19.633-0.23798 6.0983-0.05949 9.3705-0.05949 11.245 0.50588 1.874 0.56538 2.35 1.6958 3.7482 4.1648 1.3982 2.4691 3.7185 6.2767 5.295 9.7274s2.4095 6.5444 2.9747 10.977c0.56517 4.4324 0.86264 10.203 1.2791 15.617s0.95192 10.471 0.95187 13.773-0.53549 4.8488-2.6489 6.0323c-2.1134 1.1835-5.9182 2.029-13.147 1.8803-7.2287-0.14871-17.938-1.2791-28.052-2.9152-10.114-1.6361-19.633-3.7779-27.04-6.009s-12.702-4.5513-15.231-6.9311c-2.5287-2.3798-2.2907-4.819-0.5183-7.9875 1.7724-3.1685 5.129-7.1244 9.2937-12.092 4.1647-4.9679 9.1622-10.977 13.119-15.647 3.9565-4.6704 6.8717-8.0021 9.0137-9.5787 2.142-1.5766 3.5104-1.3981 4.3433-1.3089z" fill="#f2f2f2"/>
   <path d="m540.61-7.0712c1.772-2.7882 4.1347-6.262 7.425-10.157s7.5081-8.2109 12.037-12.507c4.5285-4.2966 9.3675-8.5736 13.042-11.238 3.6748-2.6642 6.1851-3.7155 10.271-4.1726 4.0856-0.45706 9.7461-0.31994 14.816-0.29709 5.07 0.02285 9.5491-0.06857 14.841 0.59425 5.2915 0.66282 11.395 2.0797 17.843 3.2224 6.4482 1.1427 13.241 2.0111 16.982 3.154s4.43 2.5598 5.2914 6.6051c0.86138 4.0453 1.895 10.718 2.7072 19.083 0.81216 8.3647 1.4028 18.42 1.5012 25.756 0.0984 7.3362-0.29534 11.953-1.009 14.672-0.71371 2.7195-1.7474 3.5423-4.3807 3.9765s-6.8664 0.47995-14.447-0.9827c-7.5804-1.4627-18.508-4.4336-27.515-7.6332-9.0078-3.1996-16.096-6.6276-24.316-9.5758-8.2203-2.9482-17.572-5.4164-25.965-7.5876s-15.825-4.0451-18.951-6.0335-1.9444-4.0909-0.17243-6.8791z" fill="#ccc"/>
   <path d="m419.21-30.302c-5.7057-0.40746-14.433-1.3128-22.79-2.0086-8.3574-0.69583-16.345-1.1821-23.326-1.5446-6.981-0.36246-12.955-0.60103-17.385-0.80111-4.4302-0.20008-7.3165-0.36167-8.8587 0.77792s-1.7399 3.58-3.21 8.0428c-1.4701 4.4628-4.2124 10.948-5.9488 16.8s-2.4671 11.07-2.6952 15.656c-0.22813 4.5862 0.0462 8.54 1.6936 10.471 1.6474 1.9312 4.6675 1.8401 11.009 1.1102 6.3418-0.7299 16.005-2.0985 26.506-3.8477s21.841-3.8789 30.631-5.8766c8.7897-1.9977 15.029-3.8631 19.255-5.3454 4.2263-1.4822 6.4396-2.5812 7.4075-6.1592 0.96792-3.5781 0.69052-9.6353 0.28056-14.557s-0.95247-8.7061-2.566-10.554-4.2981-1.7571-10.004-2.1646z" fill="#808080"/>
   <path d="m365.24 18.43c1.6607 4.0768 3.8528 10.211 5.3057 16.16 1.4529 5.9488 2.1666 11.712 2.8804 17.55 0.71384 5.838 1.4278 11.751 1.2944 15.981-0.13344 4.23-1.1142 6.7772-3.9961 8.6169-2.8819 1.8397-7.6649 2.9721-12.519 3.5057-4.8546 0.53361-9.7804 0.46843-19.136 2.7327-9.3554 2.2643-23.139 6.858-32.319 8.8225-9.1798 1.9645-13.755 1.2998-16.149 0.21906-2.3945-1.0807-2.6082-2.5775-1.8034-5.0871s2.6283-6.0317 6.2802-10.269 9.132-9.1887 16.262-16.689c7.1295-7.5004 15.908-17.549 23.16-25.479 7.2517-7.93 12.907-13.67 17.123-17.347 4.2158-3.6766 6.9574-5.2541 8.893-5.0331 1.9356 0.22096 3.065 2.24 4.7257 6.3168z" fill="#b3b3b3"/>
   <path d="m675.73-21.279c-4.3607 1.2344-7.5994 2.1167-9.4847 4.44-2.1198 2.6124-2.6167 7.0726-2.7652 17.759-0.14851 10.686 0.0513 27.597 0.11783 40.849 0.0666 13.252-5.1e-4 22.928 0.51573 28.859 0.51624 5.931 1.5994 8.2529 5.5216 9.4816 1.6365 0.51265 3.7652 0.82005 6.1113 0.88263-3.4e-4 -0.1758-7.1e-4 -0.07974-1e-3 -0.27699-5e-3 -2.792-9e-3 -7.8117-0.0114-17.286-5e-3 -17.355-4e-3 -51.147-4e-3 -84.707z" fill="#e6e6e6"/>
   <path transform="matrix(.26458 0 0 .26458 288.38 -45.48)" d="m-1.6696 92.547c1.225e-4 126.84 0.60489 253.65 0.6222 319.25 0.00945 35.81 0.69884 65.568 0.70011 66.232 12.385 0.3304 26.91-1.1815 39.783-5.0045 22.089-6.56 40.828-19.949 57.965-38.902 17.137-18.953 32.764-43.612 49.848-66.945s35.804-45.627 49.137-58.85c13.332-13.222 21.526-17.502 23.764-29.684s-0.9891-32.578-3.1113-64.43-3.1569-75.257-10.99-98.299c-7.8333-23.042-22.466-25.718-45.133-30.525-22.667-4.8078-53.366-11.747-81.43-10.9-28.063 0.84666-53.486 9.4795-73.271 15.24-2.1887 0.63728-5.8325 2.2384-7.8825 2.8188z" fill="#e6e6e6"/>
  </g>
  <g fill="#b3b3b3">
   <path d="m709.08 90.164c-1.5955 0.14842-3.1507 0.35331-4.6452 0.63045-6.1322 1.1372-11.253 3.4761-16.256 6.0089-5.0037 2.5328-9.8906 5.2597-13.029 8.954-3.1381 3.6943-4.5269 8.3552-4.4716 17.246 0.0553 8.8908 1.5548 22.011 3.3569 30.704s3.9062 12.96 6.7469 16.41c2.8407 3.4501 6.4174 6.0839 12.67 7.1205 4.0356 0.66902 9.2056 0.67132 15.628 0.53175v-12.884z" fill-opacity=".99598"/>
   <path d="m384.21-50.437h-102.49v25.45c3.5284-0.07668 7.4209-0.195 11.743-0.27182 12.191-0.21665 27.643-0.0901 41.619-0.31006 13.976-0.21996 26.476-0.7868 35.987-1.2314 9.5112-0.44465 16.033-0.7671 19.408-2.5203 3.3744-1.7532 3.6066-5.0146 2.3936-8.6232-1.2129-3.6086-3.8604-7.7188-8.0222-11.865-0.21002-0.20925-0.4264-0.41855-0.64389-0.62787z"/>
   <path transform="matrix(.26458 0 0 .26458 288.38 -45.48)" d="m28.568 511.43c-9.8309 0.02511-19.559 0.37375-28.916 1.2442v234.92h387.35c-15.467-14.886-35.757-29.734-54.729-41.543-19.979-12.436-38.484-21.498-64.34-37.885s-59.063-40.097-78.76-58.256-25.883-30.767-32.953-45.281-15.024-30.933-31.328-40.148c-16.305-9.2152-40.961-11.223-66.789-12.35-9.7668-0.42588-19.7-0.72432-29.531-0.69922z"/>
  </g>
  <g fill="#ccc">
   <path d="m674.89-45.532h-22.699c-1.0452 3.4474-1.6791 7.7286-1.6717 11.442 8e-3 4.0388 0.77091 7.403 2.4582 9.7978s4.2983 3.8202 8.1282 4.6545c3.815 0.83101 8.8394 1.075 13.785 0.94309v-6.8538z"/>
   <path transform="matrix(.26458 0 0 .26458 288.38 -45.48)" d="m-0.34766 0.17383v75.529 25.904c0.07287-0.00194 0.14589-0.00192 0.21875-0.0039 18.761-0.51175 37.201-2.4549 48.479-8.5176 11.278-6.0627 15.392-16.246 19.977-30.883 4.5841-14.637 9.6383-33.727 12.15-51.062 0.54222-3.7418 0.95678-7.3949 1.2383-10.967h-82.063z"/>
   <path d="m674.89 124.14c-0.0727-4e-3 -0.14565-9e-3 -0.21808-0.0103-1.9607-0.0292-3.8414 0.94127-6.0461 3.1264-3.3596 3.3298-7.4714 9.4794-9.5271 12.554-2.0557 3.0748-2.0558 3.0748-2.8949 4.2964-0.83915 1.2216-2.5171 3.6647-3.7305 7.243-0.0977 0.28811-0.19115 0.58593-0.28267 0.88781h22.699z"/>
   <path d="m288.26 124.14v28.098h21.712c0.27059-3.4335 0.0463-6.5609-0.98134-9.2971-1.3105-3.4894-3.924-6.3454-7.2114-9.5787-3.2874-3.2333-7.2483-6.8436-10.533-8.3943-1.0494-0.49546-2.0291-0.77736-2.9869-0.82734z"/>
   <path d="m518.09-47.065h-136.15c-0.33269 0.6994-0.43891 1.2442-0.64751 2.3688-0.40144 2.1644-1.2043 6.493 0.12092 9.249 1.3252 2.756 4.778 3.9396 14.034 6.4807 9.2562 2.5412 24.316 6.4397 44.076 10.508s44.22 8.3076 57.817 9.4723c13.597 1.1647 16.33-0.74441 18.463-5.3294 2.1333-4.585 3.6668-11.846 4.3708-17.261s0.57847-8.9849-0.49816-12.136c-0.40448-1.1839-0.94305-2.3084-1.5813-3.3522z"/>
   <path transform="matrix(.26458 0 0 .26458 288.38 -45.48)" d="m602.08 649.15c-4.0801-0.01-8.2659-2e-3 -12.566 6e-3 -34.404 0.0636-76.228 0.14093-109.28 4.6992s-57.315 13.597-77.115 29.967-35.13 40.07-42.795 51.92c-3.6821 5.6923-6.3292 10.573-7.4916 13.017l516.04 0.41897c-4.0086-6.5559-9.7348-14.627-15.218-19.11-8.7829-7.1798-18.685-11.209-36.232-15.449-17.547-4.2402-42.739-8.6894-67.27-19.662-24.531-10.973-48.398-28.468-73.824-37.191-22.248-7.6329-45.687-8.5481-74.248-8.6152z"/>
  </g>
  <g fill="#b3b3b3">
   <path transform="matrix(.26458 0 0 .26458 288.38 -45.48)" d="m1462.6 378.05c-8.5674-23.841-17.856-45.349-28.274-58.197-14.202-17.515-30.421-18.756-48.066-16.18-17.645 2.5765-36.618 8.9403-56.523 18.533-19.906 9.5929-40.552 22.351-56.266 37.645-15.713 15.294-26.494 33.121-38.387 50.475-11.893 17.353-24.9 34.232-26.303 49.182s8.7979 27.968 33.16 46.686c24.362 18.717 62.885 43.131 96.146 59.129 33.262 15.998 61.26 23.578 82.416 28.309 17.668 3.951 30.544 5.8977 42.096 6.7012v-222.28z"/>
   <path d="m288.4 54.993v58.812c0.60335 0.042 1.1981 0.0769 1.7808 0.0966 3.534 0.11965 6.8151-0.13921 8.831-1.9518s2.7671-5.1794 2.5492-9.3018c-0.21792-4.1224-1.41-9.0192-3.3135-15.905-1.9036-6.8863-4.5283-15.8-7.4476-24.714-0.7778-2.3749-1.5766-4.7447-2.3998-7.0357z"/>
   <path d="m657.94-45.66h-67.458c1.6745 3.2509 3.7006 7.1289 6.5898 12.477 4.0455 7.4887 9.7464 17.796 14.078 23.41 4.3318 5.6143 7.2948 6.5352 12.189 4.145 4.8941-2.3902 11.718-8.0906 18.45-16.349 6.2071-7.6152 12.305-17.359 16.152-23.683z"/>
   <path transform="matrix(.26458 0 0 .26458 288.38 -45.48)" d="m1294.7 674.35c-22.707 0.13567-45.611 1.3032-68.608 3.2207-30.662 2.5567-61.489 6.4473-80.15 9.3984-18.661 2.9511-25.159 4.962-25.229 12.213s6.2879 19.739 13.982 34.809c2.1991 4.3069 4.5767 8.9482 7.1093 13.865h254.96c1.2288-2.0203 2.5087-4.1191 3.6093-5.9395 14.124-23.359 17.281-29.199 16.518-36.447-0.7629-7.2482-5.516-16.035-22.658-21.689-17.142-5.6544-46.813-8.4331-76.898-9.2109-7.5213-0.19446-15.068-0.26398-22.637-0.21875z"/>
  </g>
 </g>
</svg>
