<?xml version="1.0" encoding="UTF-8"?>
<svg width="24.698mm" height="33.873mm" version="1.1" viewBox="0 0 24.698 33.873" xmlns="http://www.w3.org/2000/svg" xmlns:cc="http://creativecommons.org/ns#" xmlns:dc="http://purl.org/dc/elements/1.1/" xmlns:rdf="http://www.w3.org/1999/02/22-rdf-syntax-ns#">
 <metadata>
  <rdf:RDF>
   <cc:Work rdf:about="">
    <dc:format>image/svg+xml</dc:format>
    <dc:type rdf:resource="http://purl.org/dc/dcmitype/StillImage"/>
    <dc:title/>
   </cc:Work>
  </rdf:RDF>
 </metadata>
 <g transform="translate(-167.03 -125.96)" display="none">
  <path d="m68.483 44.009c-55.166 31.927-55.342 98.866-55.033 132.29 0.3088 33.426 1.1025 33.337 56.137 32.852 55.034-0.48507 164.31-1.367 219.29-2.2489 54.989-0.88193 55.695-1.7639 56.268-32.544 0.57328-30.78 1.0142-91.457 0.79384-122.46-0.22039-31-1.1023-32.323-56.622-34.528-55.519-2.205-165.67-5.2918-220.84 26.635z" fill="#1c0e9a" fill-opacity=".76613"/>
  <g>
   <path d="m295.87 171.23c1.7865 1.1028 5.3576 3.3071 8.8192 5.1151 3.4617 1.808 6.813 3.2191 8.0249 4.0088 1.2119 0.78978 0.19911 0.97392-1.8514 0.88576-2.0505-0.0882-5.1814-0.44093-7.8052-0.99212-2.6238-0.55118-4.7404-1.3008-6.4161-1.9678s-2.9104-1.2512-3.864-1.852c-0.95365-0.60079-1.6259-1.218-2.0744-1.7697-0.4485-0.55172-0.67245-1.0372-0.64497-1.5557 0.0275-0.51852 0.30673-1.069 0.6957-1.5606 0.38896-0.49167 0.88817-0.92515 1.4617-1.1512 0.57352-0.22605 1.2207-0.24471 1.5444-0.25404 0.32368-9e-3 0.32368-9e-3 2.1102 1.0935z" fill="#ff1d1d"/>
   <path d="m291.8 175.64c-0.32672 0.55357-1.0244 1.6062-0.9644 2.2286 0.06 0.62245 0.87724 0.81474 2.2083 1.152 1.331 0.33727 3.1757 0.8195 5.5327 1.2427 2.357 0.42325 5.226 0.78753 7.2386 0.87158 2.0126 0.0841 3.1687-0.11204 3.0457-0.34259s-1.525-0.49561-3.7072-1.1352-5.1443-1.6536-7.3278-2.4455c-2.1834-0.79194-3.5878-1.3617-4.4228-1.6972-0.835-0.33554-1.1001-0.43667-1.2104-0.45975-0.11035-0.0231-0.0659 0.0317-0.39258 0.58523z" fill="#fff"/>
   <path d="m300.81 173.51c0.87725 0.092 1.7531 0.18389 2.2822 0.34634s0.71027 0.39482 0.97047 0.88052c0.26021 0.48571 0.59772 1.2215 0.46178 1.2803s-0.74548-0.56022-1.3749-0.87104-1.2772-0.31248-1.6455-0.36578c-0.36833-0.0533-0.45669-0.15835-0.54516-0.26353" display="inline" fill="#f4f4f4"/>
   <path d="m297.01 172.34c0.88901-0.026 1.7766-0.0519 2.3236 0.0299 0.54704 0.0818 0.7524 0.27093 1.0628 0.68106 0.31037 0.41013 0.72372 1.0385 0.59342 1.1091-0.13031 0.0706-0.80457-0.41728-1.4673-0.62183s-1.3125-0.12508-1.6872-0.12758c-0.37475-3e-3 -0.47406-0.0872-0.57349-0.17202" fill="#e8e8e8"/>
   <path d="m298.72 173.39c0.88899-0.026 1.7766-0.0519 2.3236 0.0299 0.54704 0.0818 0.7524 0.27093 1.0628 0.68106 0.31036 0.41012 0.72371 1.0385 0.59341 1.1091-0.13031 0.0706-0.80456-0.41728-1.4673-0.62183s-1.3125-0.12508-1.6873-0.12758c-0.37475-3e-3 -0.47407-0.0872-0.57349-0.17202" display="inline" fill="#e8e8e8"/>
   <path d="m302.07 174.94c0.87725 0.092 1.7531 0.18389 2.2822 0.34634s0.71027 0.39482 0.97047 0.88052c0.26021 0.48571 0.59772 1.2215 0.46178 1.2803-0.13593 0.0588-0.74548-0.56022-1.3749-0.87104-0.62942-0.31082-1.2772-0.31248-1.6455-0.36577-0.36832-0.0533-0.45668-0.15835-0.54515-0.26354" display="inline" fill="#e5e5e5"/>
   <path d="m293.14 168.21c0.97739 0.22928 1.9532 0.45821 2.5274 0.7176 0.57416 0.25939 0.74554 0.54833 0.96989 1.1354 0.22434 0.58708 0.50022 1.4683 0.33832 1.5155s-0.76165-0.74063-1.4279-1.1823-1.3975-0.53597-1.8057-0.64884c-0.40828-0.11287-0.49302-0.24442-0.57788-0.37614" display="inline" fill="#f4f4f4"/>
   <path d="m272.23 151.93c1.1851 0.95916 2.9122 2.4287 5.4037 4.6887 2.4915 2.26 5.6996 5.1704 8.9573 7.6619 3.2577 2.4915 6.565 4.564 8.3287 6.2398 1.7638 1.6758 1.8845 2.8892 0.93645 4.0135-0.58703 0.75779 1.2073 1.4378-2.8602 0.68826-1.9182-0.22036-17.828-9.6738-19.79-11.57-1.9623-1.8962-5.1383-5.5038-6.1526-6.7605-1.0143-1.2568 1.0509-3.8083 1.6297-4.332s2.3621-1.5888 3.5472-0.62962z" fill="#ff1d1d"/>
   <path d="m264.93 163.62c0.18106 0.21707 0.54291 0.65088 1.118 1.1262 0.57509 0.47537 1.385 1.0066 2.4824 1.8091s2.4931 1.8834 4.3348 3.1636 4.129 2.7597 7.2832 4.4276 7.175 3.5242 9.4634 4.1072c2.2883 0.58299 2.8444-0.10719 3.1273-0.84201 0.22917-0.59519 0.66887-1.6356-5.1e-4 -2.1465-0.48006-0.36639-0.31433-0.24789-1.0415-0.66275-1.1534-0.97325-2.4471-1.9822-4.4463-3.4873-1.9992-1.5051-4.1016-3.2667-6.5075-4.9403-2.4058-1.6736-5.1139-3.2585-6.832-4.2176-1.718-0.95916-2.4432-1.291-3.1943-1.6362-1.3051-1.3044-1.5275-0.70352-2.5263-0.19225-0.99876 0.51127-2.2204 1.8928-2.831 2.5834-0.61066 0.69061-0.61067 0.69061-0.42962 0.90767z" fill="#fff"/>
   <path d="m272.73 152.53c1.383 0.14659 2.7638 0.29294 3.5966 0.53972 0.83274 0.24678 1.1157 0.59297 1.5201 1.3152 0.40441 0.72223 0.92766 1.8157 0.71244 1.9011-0.21522 0.0855-1.1692-0.83828-2.1584-1.3059-0.98921-0.46763-2.0113-0.47773-2.5918-0.56097-0.58049-0.0832-0.71857-0.23983-0.85684-0.39663" fill="#e8e8e8"/>
   <path d="m274.01 153.96c1.8068-0.0758 3.6108-0.15139 4.8584 0.38254 1.2476 0.53393 1.9362 1.6768 2.1391 2.1153 0.2029 0.43848-0.0784 0.17427-0.55849-0.0862-0.48005-0.2605-1.1492-0.51197-2.0008-0.52739-0.85157-0.0154-1.8814 0.20635-2.509 0.20269-0.62757-4e-3 -0.85048-0.23357-1.0737-0.46379" fill="#d9d9d9"/>
   <path d="m275.04 155.61c0.0403-9.6e-4 0.67516-0.51706 1.14-0.51181 0.65206 8e-3 1.455 0.0283 1.6597 0.0828 0.35066 0.0935 0.95584 0.28284 1.453 0.60387 0.49718 0.321 0.88521 0.77297 1.2684 1.2252 0.38315 0.45225 0.76204 0.90549 0.54453 0.91447-0.21754 9e-3 -1.0314-0.42575-1.7061-0.611-0.45226-0.12418-1.3533-0.1305-2.0594-0.10169-0.34728 0.0142-0.41615-9e-3 -0.79014-0.18698" fill="#f3f3f3"/>
   <path d="m279.79 159.1c0.49569-0.18166 0.99118-0.36324 1.5279-0.46619s1.1148-0.12728 1.6981-0.0813c0.58327 0.046 1.1704 0.16196 1.9294 0.52085 0.75891 0.35888 1.6873 0.95954 1.8561 1.1863 0.16889 0.2268-0.42252 0.0795-1.1145 0.0102-0.69196-0.0693-1.4852-0.0608-2.2384 0.0277-0.7532 0.0885-1.464 0.25655-1.9542 0.29947-0.49024 0.0429-0.75884-0.0397-0.94325-0.17041-0.18442-0.13071-0.28406-0.30884-0.38341-0.48646" fill="#dadada"/>
   <path d="m276.55 157.03c1.4579-0.69046 3.3106-1.1566 5.726-0.30632 1.8328 1.1398 1.1781 0.65976 2.7035 1.8673-0.0644 0.17442-0.96594-0.0448-1.9511-0.15893-0.69061-0.0801-1.3819-0.01-2.0282-0.13892" fill="#e7e7e7"/>
   <path d="m280.77 160.53c0.81778-0.11872 1.6362-0.23753 2.3185-0.2773 0.68232-0.0398 1.2283-4.2e-4 1.6999 0.0623 0.47164 0.0627 0.86787 0.14856 1.3976 0.34721 0.52969 0.19864 1.191 0.50934 1.7684 1.0102 0.57733 0.50084 1.0691 1.1905 1.1033 1.3909 0.0342 0.20046-0.39027-0.089-1.3654-0.2742-0.97512-0.18521-2.5058-0.26741-3.4554-0.39663s-1.3148-0.30527-1.6799-0.48132" fill="#f6f6f6"/>
   <path d="m284.11 161.89c1.383 0.14659 2.7638 0.29294 3.5966 0.53972 0.83274 0.24677 1.1157 0.59296 1.5201 1.3152s0.92766 1.8157 0.71244 1.9011c-0.21522 0.0855-1.1692-0.83827-2.1584-1.3059-0.98921-0.46765-2.0113-0.47777-2.5918-0.56103-0.58049-0.0833-0.71857-0.23985-0.85684-0.39664" fill="#e8e8e8"/>
   <path d="m285.4 163.32c1.8068-0.0758 3.6108-0.1514 4.8584 0.38253s1.9362 1.6768 2.1391 2.1153c0.20291 0.43849-0.0784 0.17427-0.55849-0.0862-0.48005-0.2605-1.1492-0.51197-2.0008-0.52739-0.85157-0.0154-1.8814 0.20635-2.509 0.20269-0.62758-4e-3 -0.85048-0.23356-1.0737-0.46378" fill="#d9d9d9"/>
   <path d="m289.02 166.35c1.0075 0.0974 2.0134 0.19454 2.6194 0.36519 0.60598 0.17065 0.81081 0.41406 1.1026 0.92271 0.29181 0.50865 0.66868 1.2791 0.51145 1.3405-0.15723 0.0614-0.84879-0.5872-1.5679-0.91333-0.71912-0.32612-1.4641-0.32878-1.8869-0.38507-0.4228-0.0563-0.52281-0.16634-0.62295-0.27654" fill="#e8e8e8"/>
   <path d="m286.42 164.97c0.0403-9.6e-4 0.67518-0.51706 1.14-0.51181 0.65206 8e-3 1.455 0.0283 1.6597 0.0828 0.35066 0.0935 0.95584 0.28285 1.453 0.60387 0.49717 0.321 0.88521 0.77297 1.2683 1.2252 0.38316 0.45226 0.76204 0.90549 0.54453 0.91447-0.21753 9e-3 -1.0314-0.42574-1.7061-0.61099-0.45226-0.12418-1.3533-0.1305-2.0594-0.10169-0.34728 0.0142-0.41615-9e-3 -0.79013-0.18699" fill="#f3f3f3"/>
   <path d="m278.28 157.68c0.0403-9.6e-4 0.67516-0.51706 1.14-0.51181 0.65206 8e-3 1.455 0.0283 1.6597 0.0828 0.35066 0.0935 0.95584 0.28284 1.453 0.60387 0.49718 0.321 0.88521 0.77297 1.2684 1.2252 0.38315 0.45226 0.76204 0.90549 0.54453 0.91447-0.21754 9e-3 -1.0314-0.42574-1.7061-0.611-0.45226-0.12418-1.3533-0.1305-2.0594-0.10169-0.34728 0.0142-0.41615-9e-3 -0.79014-0.18698" fill="#f3f3f3"/>
   <path d="m290.8 167.78c1.0075 0.0973 2.0134 0.19454 2.6194 0.36519 0.60598 0.17065 0.81081 0.41406 1.1026 0.92271 0.29181 0.50865 0.66868 1.2791 0.51145 1.3405-0.15723 0.0614-0.84879-0.5872-1.5679-0.91333-0.71912-0.32612-1.4641-0.32878-1.8869-0.38507-0.4228-0.0563-0.52281-0.16634-0.62295-0.27654" display="inline" fill="#e8e8e8"/>
   <path d="m294.36 170.01c0.97739 0.22928 1.9532 0.45821 2.5274 0.7176 0.57416 0.25939 0.74554 0.54833 0.96989 1.1354 0.22434 0.58708 0.50022 1.4683 0.33832 1.5155s-0.76165-0.74063-1.4279-1.1823-1.3975-0.53597-1.8057-0.64884c-0.40828-0.11287-0.49302-0.24442-0.57788-0.37614" display="inline" fill="#e5e5e5"/>
   <path d="m242.2 124.62c2.712 0.92615 6.8572 3.1751 10.22 5.677 3.3624 2.5019 5.9861 5.3034 8.4776 8.1257 2.4915 2.8223 4.8727 5.6885 7.1325 8.1555s4.1988 5.3568 5.9802 7.3868c0.59516 2.2048-1.3395 3.8995-2.4085 5.2027-1.069 1.3032-3.7313 0.26143-5.8161-0.52613-2.0847-0.78756-3.6313-1.3454-6.7842-3.3078-3.153-1.9624-6.4602-4.0349-9.2027-5.5823-2.7425-1.5474-4.8863-2.5537-7.3337-3.5018s-5.1814-1.83-7.4966-3.197c-2.3151-1.367-4.2113-3.219-4.7406-5.446-0.52932-2.227 0.30851-4.8287 1.6535-7.0777s3.1971-4.1452 4.7626-5.2918c1.5656-1.1466 2.8443-1.5434 5.5564-0.61727z" fill="#ff1d1d"/>
   <path d="m242.6 145.87c4.0064 0.58417 10.553 2.7166 15.223 4.9261 4.6697 2.2095 7.462 4.496 9.4551 6.2194 1.993 1.7235 3.1866 2.8838 3.4445 4.0199 0.25784 1.1362-0.41979 2.2482-1.0994 3.103s-1.3611 1.4524-2.6576 1.1036c-1.2965-0.34874-3.2084-1.644-5.2913-2.8757-2.0829-1.2317-4.3368-2.3996-6.4799-3.3502-2.1432-0.95057-4.1755-1.6836-6.1607-2.3703-1.9853-0.68668-3.9233-1.3269-7.103-1.6867-3.1797-0.35976-7.6007-0.43893-8.8524-1.683s0.66613-3.6529 2.358-5.3395c1.6919-1.6866 3.1574-2.6508 7.1638-2.0667z" fill="#fff"/>
   <path d="m245.55 123.84c2.4341 0.0624 4.8643 0.1248 6.6153 0.65529s2.8184 1.5282 2.8766 1.8515-0.89434-0.0281-2.2264-0.12586c-1.332-0.0978-3.0478 0.0575-4.0679 0.0732-1.0201 0.0157-1.3429-0.1083-1.6659-0.23244" fill="#f2f2f2"/>
   <path d="m243.99 124.81c2.4341 0.0624 4.8643 0.1248 6.6153 0.65529s2.8184 1.5282 2.8766 1.8515-0.89434-0.0281-2.2264-0.12586c-1.332-0.0978-3.0478 0.0575-4.0679 0.0732-1.0201 0.0157-1.3429-0.1083-1.6659-0.23244" fill="#d9d9d9"/>
   <path d="m247.48 127.13c0.87903-0.0326 1.7585-0.0651 2.4888-0.0326s1.3101 0.12987 1.9162 0.38139 1.237 0.65655 2.0177 1.2401c0.78066 0.58353 1.711 1.3456 1.9028 1.5624 0.19182 0.21682-0.35157-0.10921-1.4079-0.26024-1.0563-0.15102-2.6232-0.12376-4.193-0.0964" fill="#d6d6d6"/>
   <path d="m251 129.68c1.1834 3e-3 2.3666 7e-3 3.2639 0.0534 0.89732 0.0467 1.5087 0.13682 2.1122 0.2986 0.60352 0.16179 1.1979 0.39475 1.9264 0.90585 0.72852 0.51111 1.589 1.2988 1.7233 1.5602 0.13424 0.26141-0.45863-4e-3 -1.1718-0.21062-0.7132-0.2068-1.5475-0.35542-2.3549-0.4158-0.80743-0.0604-1.586-0.0323-2.1741-0.0866-0.58813-0.0542-0.98575-0.19083-1.3839-0.32763" fill="#dadada"/>
   <path d="m249.88 127.22c1.6614-0.40492 3.6946-0.50621 6.0687 0.82715 1.7076 1.5088 1.1114 0.89655 2.4835 2.4125-0.10074 0.16252-1.0054-0.23643-2.0179-0.54645-0.70974-0.21732-1.4486-0.2839-2.1026-0.54164" fill="#e7e7e7"/>
   <path d="m253.65 131.57c0.88096 0.0428 1.7626 0.0856 2.4864 0.18089 0.72378 0.0953 1.2894 0.24304 1.7726 0.39956 0.48317 0.15651 0.8828 0.32132 1.4011 0.62595s1.1536 0.74796 1.6646 1.3658c0.51098 0.61778 0.89628 1.4083 0.89418 1.6166-2e-3 0.20824-0.39278-0.1668-1.3812-0.54622-0.98842-0.37942-2.5796-0.76544-3.5519-1.0835-0.97229-0.31809-1.3222-0.56739-1.672-0.8167" fill="#e2e2e2"/>
   <path d="m256.9 133.6c1.4239 0.42146 2.8456 0.84224 3.6729 1.2553 0.82729 0.41307 1.0586 0.81708 1.3461 1.6231 0.28745 0.806 0.62919 2.0086 0.38705 2.0518-0.24213 0.0432-1.0682-1.0742-2.0178-1.7403-0.94962-0.66606-2.0206-0.87882-2.6141-1.0776s-0.70876-0.38346-0.82415-0.56845" fill="#e8e8e8"/>
   <path d="m257.97 135.29c1.911 0.28201 3.819 0.56356 5.0273 1.3475 1.2083 0.78389 1.7142 2.0689 1.844 2.5498 0.12977 0.48089-0.11542 0.15959-0.56989-0.19736s-1.1092-0.74231-2.0001-0.9266-2.0141-0.16554-2.6722-0.29362c-0.65806-0.12807-0.84841-0.40331-1.039-0.67892" fill="#d9d9d9"/>
   <path d="m258.74 137.15c0.0424 7e-3 0.80684-0.38582 1.2938-0.28841 0.68307 0.13663 1.5219 0.3168 1.7264 0.41221 0.35035 0.16342 0.94966 0.47371 1.4106 0.89488 0.46097 0.42116 0.78251 0.9523 1.0989 1.4827 0.31636 0.53045 0.62806 1.061 0.39804 1.027-0.23004-0.0341-1.0019-0.63231-1.6749-0.95222-0.45117-0.21444-1.3958-0.39939-2.1424-0.51039-0.36722-0.0546-0.43516-0.0913-0.79391-0.34454" fill="#f3f3f3"/>
   <path d="m263.06 141.59c0.55479-0.0843 1.1094-0.16859 1.6923-0.16567 0.58297 3e-3 1.1944 0.093 1.7979 0.2548 0.60352 0.16179 1.1979 0.39475 1.9264 0.90585 0.72852 0.51111 1.589 1.2988 1.7233 1.5602 0.13424 0.26141-0.45863-4e-3 -1.1718-0.21062-0.7132-0.2068-1.5475-0.35542-2.3549-0.4158-0.80743-0.0604-1.5854-0.0324-2.1082-0.0864s-0.78901-0.1903-0.95778-0.35821c-0.16878-0.1679-0.23956-0.36669-0.31014-0.56489" fill="#dadada"/>
   <path d="m260.05 138.88c1.6614-0.40492 3.6946-0.50621 6.0687 0.82715 1.7076 1.5088 1.1114 0.89655 2.4835 2.4125-0.10074 0.16252-1.0054-0.23643-2.0179-0.54645-0.70974-0.21732-1.4486-0.2839-2.1026-0.54164" fill="#e7e7e7"/>
   <path d="m263.82 143.23c0.88096 0.0428 1.7626 0.0856 2.4864 0.18089 0.72378 0.0953 1.2894 0.24304 1.7726 0.39956 0.48317 0.15651 0.8828 0.32132 1.4011 0.62595s1.1536 0.74796 1.6646 1.3658c0.51098 0.61778 0.89628 1.4083 0.89418 1.6166-2e-3 0.20824-0.39278-0.1668-1.3812-0.54622-0.98842-0.37942-2.5796-0.76544-3.5519-1.0835-0.97229-0.31809-1.3222-0.56739-1.672-0.8167" fill="#e2e2e2"/>
   <path d="m267.07 145.26c1.4239 0.42146 2.8456 0.84224 3.6729 1.2553 0.82729 0.41307 1.0586 0.81708 1.3461 1.6231 0.28745 0.806 0.62919 2.0086 0.38705 2.0518-0.24213 0.0432-1.0682-1.0742-2.0178-1.7403-0.94962-0.66606-2.0206-0.87882-2.6141-1.0776s-0.70876-0.38346-0.82415-0.56845" fill="#e8e8e8"/>
   <path d="m268.15 146.95c1.911 0.28201 3.819 0.56356 5.0273 1.3475 1.2083 0.78389 1.7142 2.0689 1.844 2.5498 0.12977 0.48089-0.11542 0.15959-0.56989-0.19736s-1.1092-0.74231-2.0001-0.9266-2.0141-0.16554-2.6722-0.29362c-0.65806-0.12807-0.84841-0.40331-1.039-0.67892" fill="#d9d9d9"/>
   <path d="m271.38 150.71c1.0391 0.29754 2.0766 0.5946 2.6803 0.88622s0.77254 0.57684 0.98232 1.1459c0.20977 0.56903 0.45915 1.418 0.28246 1.4486-0.1767 0.0305-0.77953-0.75838-1.4725-1.2286-0.69298-0.47022-1.4745-0.62043-1.9077-0.76072-0.43313-0.14029-0.51724-0.27073-0.60144-0.40133" fill="#e8e8e8"/>
   <path d="m268.91 148.81c0.0424 7e-3 0.80684-0.38582 1.2938-0.28841 0.68307 0.13663 1.5219 0.3168 1.7264 0.41221 0.35035 0.16342 0.94966 0.47371 1.4106 0.89488 0.46097 0.42116 0.78251 0.9523 1.0989 1.4827 0.31636 0.53045 0.62806 1.061 0.39804 1.027-0.23004-0.0341-1.0019-0.63231-1.6749-0.95222-0.45117-0.21444-1.3958-0.39939-2.1424-0.51039-0.36722-0.0546-0.43516-0.0913-0.79391-0.34454" fill="#f3f3f3"/>
   <path d="m261.75 139.87c0.0424 7e-3 0.80684-0.38582 1.2938-0.28841 0.68307 0.13663 1.5219 0.3168 1.7264 0.41221 0.35035 0.16342 0.94966 0.47371 1.4106 0.89488 0.46097 0.42116 0.78251 0.9523 1.0989 1.4827 0.31636 0.53045 0.62806 1.061 0.39804 1.027-0.23004-0.0341-1.0019-0.63231-1.6749-0.95222-0.45117-0.21444-1.3958-0.39939-2.1424-0.51039-0.36722-0.0546-0.43516-0.0913-0.79391-0.34454" fill="#f3f3f3"/>
   <path d="m226.28 189.32c0.34009-0.10991 1.0201-0.32966 1.6406-0.51882 0.62055-0.18916 1.1816-0.34772 1.765-0.46785 0.58344-0.12014 1.1892-0.20186 1.9221-0.23506 0.73293-0.0332 1.615-0.0175 2.5032 0.0806s1.7936 0.2787 2.3852 0.51139c0.59154 0.23268 0.86929 0.51723 0.9334 0.77318 0.0641 0.25595-0.0918 0.49373-0.34592 0.79052-0.25408 0.29679-0.62059 0.66886-1.0204 1.0081-0.39982 0.33924-0.83845 0.65123-1.6714 0.86752-0.83299 0.21629-2.0088 0.3318-3.2435 0.42945-1.2346 0.0976-2.3286 0.16165-3.0933 0.12348-0.76468-0.0382-1.1519-0.18142-1.573-0.5-0.42101-0.31858-0.87568-0.81261-0.97175-1.3007-0.0961-0.48806 0.16677-0.96994 0.42965-1.4519 0 0 0-1e-5 0.34008-0.10991z" fill="#ee1c27"/>
  </g>
  <g fill="#fff">
   <path d="m225.94 189.43c-0.55997 0.16112-1.0197 0.29341-1.7562 0.82288-0.73645 0.52947-1.1463 1.213-1.0856 1.2459 0.0608 0.0329 1.8942-0.21576 2.8957-0.35157" display="inline"/>
   <path d="m226.46 190.38c-0.6459 0.18585-1.1762 0.33844-2.0257 0.94916-0.84947 0.61072-1.3222 1.3991-1.2522 1.437 0.0701 0.0379 2.1849-0.24887 3.3401-0.40552" display="inline"/>
   <path d="m228.03 190.48c-0.64945 0.173-1.1827 0.31505-2.0441 0.90881-0.86142 0.59376-1.3497 1.3726-1.2804 1.4119 0.0693 0.0393 2.1894-0.2055 3.3474-0.33922" display="inline"/>
  </g>
  <g fill="#ee1c27">
   <path d="m237.09 178.52c0.73904-0.92745 1.8823-1.9681 2.9667-2.6651 1.0844-0.69703 2.1099-1.0504 2.9819-1.1683 0.87202-0.11791 1.5904-4.5e-4 2.2482 0.28922 0.65778 0.28968 1.2549 0.75137 1.465 1.4976s0.0334 1.7771-0.43899 2.8576c-0.47241 1.0805-1.2405 2.2109-2.2578 3.3749s-2.2836 2.3618-3.333 3.4327c-1.0494 1.0709-1.8818 2.0148-2.6356 2.9962-0.7538 0.98139-1.429 2.0002-2.8586 2.1276-1.4296 0.12735-3.1165 0.21304-3.6736-0.86426-0.8372-0.62941-1.623-0.81142-1.1435-1.3722 0.62267-0.72819 1.604-2.5697 2.2017-3.4096 1.0421-1.4643 2.0555-3.0025 2.7297-4.1786s1.0089-1.9903 1.7479-2.9177z"/>
   <path d="m221.06 158c0.68939 1.6819 2.1242 4.1269 3.5707 6.0962s2.9045 3.463 4.2451 4.6956c1.3406 1.2326 2.5638 2.204 3.7245 3.4876 1.1607 1.2836 2.259 2.8794 3.4532 4.1491s2.484 2.2135 3.8385 2.7575 2.7735 0.68834 4.0293 0.49893 2.3485-0.71249 2.8112-1.5371c0.46267-0.82465 0.2954-1.9512-0.45041-3.1473s-2.0703-2.4616-3.1354-4.0084c-1.0651-1.5469-1.8706-3.3751-2.8075-5.2185-0.93685-1.8434-2.005-3.7017-3.1691-5.3132-1.164-1.6115-2.424-2.9761-3.6982-4.1274s-2.5626-2.0892-4.1597-2.7454c-1.5971-0.65618-3.5029-1.0304-5.0259-0.83466-1.523 0.19573-2.663 0.96149-3.2612 1.8039-0.59818 0.84244-0.65447 1.7612 0.0349 3.4431z"/>
   <path d="m222.78 136.18c-0.86156 2.3096-2.1862 5.9444-2.9075 8.661s-0.83922 4.5149-0.67111 6.3239c0.16812 1.8091 0.62218 3.6287 1.2085 5.0523 0.58628 1.4236 1.3046 2.451 2.1696 3.1637 0.86498 0.71273 1.8764 1.1109 3.1844 1.2065 1.3079 0.0956 2.9123-0.11122 4.3382-0.46603s2.6733-0.85754 3.8615-1.8226c1.1882-0.96501 2.3174-2.3923 3.2016-3.8035 0.88426-1.4112 1.5236-2.8063 2.093-4.3913 0.56938-1.585 1.0688-3.3599 1.4717-5.2428 0.403-1.8829 0.70959-3.8736 0.73186-5.7118 0.0223-1.8381-0.23984-3.5236-0.51225-4.8823-0.27241-1.3587-0.55514-2.3905-1.5848-3.2515s-2.8065-1.5509-4.7572-1.9261-4.0751-0.43531-5.799 0.0859c-1.7239 0.52117-3.0469 1.6237-3.9077 2.6672-0.86079 1.0435-1.2592 2.0277-2.1208 4.3373z"/>
  </g>
  <g>
   <path d="m219.64 152.12c-0.20278-0.17857-0.40602-0.35754-0.77523-0.039-0.36922 0.31855-0.90483 1.133-1.0938 2.4348-0.189 1.3017-0.0312 3.0884 0.0695 3.8957s0.14454 0.63513 0.32949 0.16642c0.18496-0.46871 0.51158-1.2354 0.88476-1.8148s0.79152-0.96965 1.2111-1.361" display="inline" fill="#f1f1f1"/>
   <path d="m219.99 154.15c-0.25201 0.21564-0.50409 0.43133-0.72453 0.97388-0.22045 0.54254-0.40897 1.4111-0.38597 2.2935 0.023 0.8824 0.25743 1.7772 0.45435 2.4387 0.19692 0.66153 0.35704 1.0918 0.45684 1.3294s0.14008 0.28534 0.21321-0.32728c0.0731-0.61263 0.17907-1.8866 0.40165-2.7836 0.22257-0.89697 0.5613-1.4144 0.6746-1.7964 0.11331-0.38199 1e-3 -0.62796-0.11114-0.87386" display="inline" fill="#e9e9e9"/>
   <path d="m221.54 160.03c0.15377 0.78638 0.30725 1.5713 0.6146 2.2661s0.76819 1.2986 1.1278 1.7389c0.35965 0.44031 0.61919 0.71838 0.77176 0.86918s0.19966 0.17604 0.0725-0.29641c-0.12712-0.47245-0.42878-1.4433-0.52192-2.1643-0.0931-0.72104 0.0226-1.1903-2e-3 -1.502-0.0247-0.31177-0.18993-0.46561-0.35504-0.61939" display="inline" fill="#ececec"/>
   <path d="m220.62 156.62c-0.1396 0.49197-0.2792 0.9839-0.37738 1.7454-0.0982 0.76149-0.15493 1.7921 0.15441 2.932 0.30933 1.1398 0.98413 2.3872 1.3181 2.9854 0.33394 0.59816 0.32737 0.54908 0.30846 0.23117-0.0189-0.31792-0.0498-0.90506-0.0373-1.5258s0.0681-1.2757 0.18185-1.9318c0.11371-0.65612 0.2856-1.3136 0.29915-1.7944 0.0135-0.48083-0.13109-0.78454-0.27556-1.0879" display="inline" fill="#fafafa"/>
   <path d="m155.6 188.92c-0.64656 0.18354-1.1774 0.33422-2.0291 0.9419-0.85166 0.60767-1.3272 1.3944-1.2658 1.4347 0.0614 0.0403 1.9989-0.19335 3.0572-0.32099" display="inline" fill="#fff"/>
   <path d="m155.83 188.36c0.37743-0.1003 1.1321-0.30086 1.8799-0.48988 0.74783-0.18902 1.6028-0.29639 2.4788-0.43159s4.9082 0.11513 5.9967 0.23952 2.6277 0.59614 3.1839 0.97014c0.55616 0.37401-2.1371 2.9821-2.8048 3.334-1.2744 0.66661-2.3793 0.53078-4.5336 0.63147-2.3502 0.10985-4.8124-0.0518-5.2419-0.10961-0.82326-0.11071-1.1826-0.21714-1.3423-0.49883s-0.0621-1.1253-0.0657-1.6085c-4e-3 -0.48328 0.0715-1.9364 0.44894-2.0367z" fill="#ee1c27"/>
   <path d="m156.24 190.02c-0.65569 0.14762-1.194 0.26882-2.0779 0.82863-0.88386 0.5598-1.4021 1.3191-1.3344 1.3611 0.0677 0.042 2.1957-0.1202 3.3581-0.20877" display="inline" fill="#fff"/>
  </g>
  <g fill="#ee1c27">
   <circle cx="169.66" cy="181.96" r="3.6755"/>
   <path d="m166.47 180.79c-0.51751 0.3748-0.98067 2.6386-1.9491 4.0303-1.3076 1.8791-2.9666 3.5174-2.8158 4.6044 0.26247 1.892 3.3541 2.3022 4.7493 2.2865 1.3952-0.0157 3.7592-3.7278 4.7695-5.3196 1.0103-1.5918 2.0315-3.0845 1.8523-3.9498-0.17913-0.8653-1.5589-1.1031-2.8315-1.4032s-2.5584-1.1294-3.7747-0.24859z"/>
   <ellipse cx="175.21" cy="152.45" rx="5.8197" ry="5.2601"/>
   <path d="m170.57 153.62c-0.22735 0.46475-2.5713 5.2562-3.3766 8.5137-0.80529 3.2575-1.0055 7.3516-0.98027 9.7141 0.0252 2.3625 0.14088 3.4733 0.17185 4.0261 0.031 0.55283 0.0513 3.2248 0.0716 3.7505 0.0202 0.52568 0.0929 1.5683 0.35462 1.927 0.26174 0.35872 1.0591 0.60571 2.1714 0.8047 1.1124 0.199 2.5341 0.27717 3.0843 0.0303 0.55016-0.24682 0.9395-0.91779 1.365-1.9916s0.79433-2.6114 1.183-4.0188c0.3887-1.4074 0.79089-2.6914 1.4456-4.7401 0.65469-2.0487 1.5707-4.8592 2.3493-7.4638 0.77853-2.6046 1.4319-5.004 1.7191-6.6803s0.35637-2.629 0.0948-3.2458c-0.26158-0.61689-1.087-1.1626-2.4697-1.4348-1.3827-0.27222-4.0553 0.0956-5-0.1115-0.94467-0.20711-1.1485-0.38265-1.1994-0.42655-0.051-0.0439-0.051-0.0439-0.40408 0.41912-0.35311 0.46302-0.35312 0.46302-0.58047 0.92777z"/>
  </g>
  <g>
   <path d="m180.64 149.93c0.11823-0.0234 0.23668-0.0468 0.58344 0.27834 0.34676 0.32512 0.92175 0.99807 1.3092 2.1928s0.5869 2.9092 0.65357 3.6891c0.0667 0.77989 4.3e-4 0.62532-0.23224 0.21602-0.23268-0.40929-0.63244-1.0744-1.0352-1.5546-0.40278-0.48013-0.80711-0.7736-1.2127-1.068" display="inline" fill="#dfdfdf"/>
   <path d="m181.59 152.97c0.25844 0.9371 0.51639 1.8724 0.59904 2.7794 0.0827 0.907-0.0102 1.7843-0.0979 2.4349s-0.1708 1.0771-0.22598 1.3135c-0.0552 0.23645-0.0823 0.28525-0.208-0.2938s-0.34976-1.7874-0.62738-2.6247-0.60815-1.3009-0.74138-1.6557-0.069-0.60033-5e-3 -0.84581" display="inline" fill="#fafafa"/>
   <path d="m180.33 158.36c-0.0392 0.76605-0.0784 1.5307-0.25197 2.2233-0.17357 0.69266-0.48134 1.3123-0.72489 1.7664-0.24355 0.45408-0.42383 0.74415-0.53113 0.90234-0.10729 0.15818-0.14234 0.18636-0.0906-0.27707 0.0517-0.46343 0.19072-1.4195 0.18794-2.1175-3e-3 -0.698-0.14746-1.136-0.16125-1.4364-0.0138-0.30036 0.10332-0.46264 0.2204-0.62489" display="inline" fill="#fafafa"/>
   <path d="m180.92 154.6c0.22405 1.3914 0.44788 2.7814 0.35409 4.1046-0.0938 1.3233-0.50515 2.5784-0.71074 3.181s-0.20559 0.55532-0.22479 0.2495c-0.0192-0.30583-0.0579-0.8701-0.13538-1.4625-0.0775-0.5924-0.19364-1.2135-0.35694-1.8305-0.1633-0.61693-0.37387-1.2298-0.43703-1.6883-0.0632-0.45849 0.0211-0.7622 0.10518-1.0656" display="inline" fill="#efefef"/>
   <path d="m158.03 126.84c-0.55122 1.367-1.2568 3.3514-1.5434 5.5343-0.2866 2.1829-0.15431 4.5641 1.0144 7.0997s3.3735 5.2255 5.4682 7.6068c2.0946 2.3813 4.079 4.4538 6.1295 6.2177 2.0506 1.7639 4.1672 3.219 5.9752 3.9686 1.808 0.74956 3.3073 0.79365 4.2993 0.1102s1.4771-2.0945 1.6315-3.704-0.022-3.4174-0.74959-6.1736c-0.72758-2.7561-2.0064-6.4602-3.5938-9.7675-1.5875-3.3073-3.4836-6.2177-5.6884-8.4888-2.2048-2.2711-4.7183-3.9026-6.7028-4.6744-1.9844-0.77181-3.4396-0.68362-4.3658-0.26463-0.92619 0.41898-1.3231 1.1686-1.8743 2.5357z" fill="#ee1c27"/>
  </g>
  <g display="inline">
   <g display="inline">
    <path d="m161.08 64.692c2.3672 0.49864 7.101 1.4958 16.433 5.0678 9.3322 3.5719 23.262 9.7181 31.976 13.744 8.7144 4.0257 12.212 5.9303 16.984 10.581s10.817 12.046 13.84 15.744c3.0226 3.6978 3.0226 3.6978-1.8915 2.6694-4.9142-1.0284-14.739-3.0845-22.475-4.2129-7.736-1.1284-13.375-1.3279-17.621-0.39279-4.2458 0.93515-7.0951 3.0042-8.3482 2.8475-1.2531-0.1567-0.9107-2.5407-1.5948-3.2504-0.68406-0.70975-2.3953 0.25403-4.1542-0.81121s-3.5674-4.1604-5.0167-6.6926c-1.4493-2.5321-2.5392-4.501-3.9743-7.4363-1.4351-2.9352-3.2164-6.8388-5.571-10.762s-5.2827-7.8667-7.204-10.802-2.8356-4.8632-3.2928-5.8272c-0.45721-0.96397-0.45721-0.96399 1.9099-0.46535z" fill="#fb8888"/>
    <path d="m177.41 70.789c8.1274 2.9914 19.079 7.0932 26.808 10.385s12.235 5.7732 16.507 8.6619 8.3109 6.184 11.812 9.9781c3.501 3.7941 6.4638 8.086 7.2361 9.8751 0.77228 1.7891-0.64628 1.075-3.5735-0.25144s-7.3628-3.2652-12.19-5.4417c-4.8274-2.1764-10.046-4.5902-15.752-7.222-5.7054-2.6317-11.897-5.4811-17.904-8.9813s-11.829-7.6511-16.291-11.121c-4.4617-3.4694-7.5629-6.2571-9.9006-8.2495-2.3378-1.9924-3.9119-3.1894-2.0475-2.8475 1.8644 0.34189 7.1671 2.2227 15.294 5.2141z" fill="#e97070"/>
   </g>
   <path d="m159.97 63.743c4.1302 0.58737 9.0267 2.1728 19.963 5.7408 10.936 3.568 25.661 9.0427 36.426 14.819 10.765 5.7764 17.108 11.21 21.065 17.126 3.9574 5.9158 6.7538 11.568 6.3842 13.365-0.0791 0.38432-1.3231 1.6311-1.508 1.6311-0.20282-4e-5 0.64319-1.2824 0.32536-1.6602-0.74741-0.88849-1.795-2.6995-3.059-4.8598-2.2918-3.9168-5.2948-8.9813-10.699-13.753-5.4044-4.7715-13.21-9.2497-21.478-13.314-8.2687-4.0647-17-7.7156-24.705-10.211-7.7045-2.4951-12.547-3.8369-17.026-5.2521-4.2438-1.3409-7.6723-2.6273-7.8462-3.1706-0.15517-0.48475-0.35722-2.484-0.0244-2.0397 0.24559 0.32792 0.35889 0.65675 0.77496 1.0355 0.43026 0.39163 1.0597 0.49371 1.4068 0.54307z" fill="#ee1c27"/>
  </g>
  <g>
   <path d="m178.85 99.421c-4.6181-7.3911-12.998-21.122-17.03-28.149-4.0329-7.0271-4.4772-7.0238-3.7478-7.3739 0.72933-0.35008 1.3218-0.58104 3.7834 2.6022 2.7602 3.2325 6.471 9.9482 10.498 16.21 4.0266 6.2621 7.5182 11.488 9.6953 15.724 2.1771 4.2355 4.2119 7.215 4.0741 8.6939-0.13779 1.4789-1.4668 1.6791-2.2855 1.3118-0.81864-0.36724-0.36854-1.6276-4.9866-9.0187z" fill="#ee1c27"/>
   <path d="m191.4 110.53c-2.0313 1.3843-6.8472 6.5914-9.7079 8.9045-3.6104 2.9194-6.5893 6.594-7.3538 6.9702-2.4 1.305-7.8549 3.0928-9.8673 4.6654s-1.5307 1.169-1.6439 0.55199c-0.1132-0.61698 0.95423-2.5459 2.7594-4.9729 1.8052-2.427 4.1732-5.0358 6.2911-7.233 2.1179-2.1972 3.9857-3.9826 5.6828-5.7094 1.6971-1.7269 6.2309-5.6004 8.3547-7.1354 2.1238-1.5349 9.7982 1.019 5.4849 3.9585z" fill="#e97070"/>
   <path d="m158.9 125.76c2.0164-1.899 3.703-2.8897 7.7779-6.2963 4.0749-3.4066 10.539-9.2298 14.088-11.909 3.5487-2.6788 4.1855-2.2161 4.8028-1.7523s1.2144 0.92816-0.0117 2.5875c-1.2261 1.6593-4.273 4.5107-7.1688 7.368-2.8958 2.8574-5.6392 5.7193-7.3936 7.8456-1.7545 2.1263-2.5201 3.5167-3.0943 5.3117-0.57423 1.795-0.95714 3.9942-2.3108 5.5934-1.3536 1.5993-3.678 2.5988-6.0726 2.293s-4.8594-1.9173-4.919-4.1266c-0.0597-2.2093 2.2862-5.0163 4.3026-6.9153z" fill="#ee1c27"/>
  </g>
 </g>
 <g transform="translate(-153.61 -109.85)" display="none">
  <path d="m183.05 131.64c1.4297-1.501 3.3243-3.9701 4.4877-5.9224 1.1634-1.9523 1.5956-3.388 1.7221-5.3528s-0.0525-4.4587-0.50306-6.5309c-0.45057-2.0722-1.1728-3.7226-1.9746-4.8352s-1.6835-1.6873-2.6669-1.9936-2.0684-0.34421-3.226-0.42356c-1.1576-0.0793-2.3876-0.20021-3.3934-0.32443-1.0058-0.12423-1.7872-0.25183-3.1523-0.28153-1.3651-0.0297-3.3137 0.0386-5.2123 1.2293-1.8986 1.1907-3.7469 3.5037-4.5501 5.9541-0.80326 2.4504-0.56154 5.0376 0.24204 7.7948 0.80357 2.7572 2.1688 5.684 3.8282 7.8851 1.6594 2.201 3.6127 3.6762 5.5015 4.4499 1.8888 0.7737 3.7132 0.84611 5.1077 0.61577 1.3946-0.23034 2.3596-0.76335 3.7893-2.2644z" fill="#ff1d1d"/>
  <path d="m187.75 124.12c0.40273 0.018 1.2078 0.0539 1.6103 0.0719s0.40248 0.018-0.0388 1.0328c-0.44129 1.0148-1.3238 3.0443-2.1384 4.3095-0.81462 1.2652-1.5614 1.7664-2.2714 2.2096s-1.4065 0.84171-2.1077 1.3018c-0.70123 0.4601-1.4188 0.98841-2.0878 1.4504-0.669 0.46196-1.2894 0.85756-2.4179 1.1202s-2.7651 0.39235-3.8513-0.46169c-1.0862-0.85405-1.6219-2.6921-1.7361-4.3289s0.19328-3.072 1.9287-4.0908c1.7354-1.0188 4.8985-1.6208 7.2544-1.9902 2.356-0.36934 3.9046-0.50598 4.6789-0.5743 0.77424-0.0683 0.77424-0.0683 1.177-0.0503z" fill="#fff"/>
  <path transform="translate(-13.411 -16.102)" d="m248.63 138.6c0 4.4154-9.026 10.68-13.056 11.591-4.391 0.99233-7.9676 0.55935-10.836-1.5724-4.1172-3.0598-10.305-4.5643-10.305-10.019 0-9.2544 7.6553-16.757 17.099-16.757s17.099 7.5022 17.099 16.757z" display="inline" fill="#ff1d1d"/>
  <path transform="matrix(.26458 0 0 .26458 -6.8125e-6 3.75e-7)" d="m691.78 407.92c2.4456 2.664 4.7584 5.5107 6.8965 8.6035 2.1381 3.0928 4.1016 6.4302 5.8008 9.9414 0.84958 1.7556 1.6328 3.5553 2.3398 5.3887s1.3364 3.7005 1.8789 5.5938c0.54252 1.8933 0.99735 3.8128 1.3535 5.748 0.35616 1.9352 0.61382 3.8864 0.76172 5.8457s0.18577 3.9271 0.10352 5.8926c-0.0823 1.9655-0.28484 3.929-0.61914 5.8828-0.33431 1.9538-0.79968 3.897-1.373 5.8203-0.57338 1.9233-1.2549 3.8279-2.0195 5.7012-1.5294 3.7466-3.3924 7.3733-5.4004 10.803-1.0782 1.8415-2.2318 3.4486-3.3633 5.1641 1.3656-0.26965 2.726-0.59546 4.0918-0.83008 13.584-2.3333 27.082-2.8336 37.416-1.75 10.334 1.0836 17.5 3.7499 27.25 7.75s22.083 9.3334 30.332 8.25c8.2494-1.0834 12.417-8.5819 19-18.832s15.582-23.25 18.666-37.5c3.0836-14.25 0.25222-29.751-4.6641-37.668-4.9163-7.9174-11.918-8.2499-23.668-7.5-11.75 0.74992-28.248 2.5834-49.479 3.2227-21.23 0.63926-46.293-1.1723-66.036-0.46595-7.3516 0.263-1.714 2.2746 0.73168 4.9386z" display="inline" fill="#ff1d1d"/>
  <path transform="translate(-13.411 -16.102)" d="m198.6 121.69c1.1322-0.59313 2.2641-1.1862 3.3108-1.5927 1.0467-0.40651 2.0074-0.62634 3.0438-0.49819 1.0364 0.12815 2.1467 0.60386 2.814 0.893 0.66728 0.28915 0.89439 0.39305 0.44797 0.50462s-1.5653 0.23418-2.6183 0.61578c-1.053 0.3816-2.0281 1.0168-2.6557 1.2985-0.62753 0.28173-0.90462 0.20772-1.1823 0.13355" display="inline" fill="#e7e7e7"/>
  <path transform="translate(-13.411 -16.102)" d="m204.97 122.29c1.5427-0.56388 3.0828-1.1268 4.3903-1.2968 1.3075-0.16995 2.3804 0.0535 3.1142 0.2733 0.7338 0.21982 1.1317 0.43754 0.85446 0.5677s-1.2287 0.17617-2.0903 0.45389c-0.8616 0.27773-1.6221 0.78257-2.1828 1.0534-0.56078 0.2708-0.91959 0.30588-1.2793 0.34105" display="inline" fill="#f0f0f0"/>
  <path transform="translate(-13.411 -16.102)" d="m196.58 122.72c0.43716-0.91496 1.0905-0.99769 1.798-1.4397 0.7565-0.47267 1.6148-1.008 2.2334-1.203 0.77518-0.24435 1.5875-0.41146 2.3004-0.30029 0.27051 0.0401 0.87449 0.0643 1.3393 0.36629 0.54306 0.35283 0.713 0.2758 1.352 1.176 0.0704 0.0992-0.52181-0.0823-1.1714-0.11757-1.3198-0.21709-4.3099 0.93698-5.3337 1.6427" display="inline" fill="#d9d9d9"/>
  <path transform="translate(-13.411 -16.102)" d="m197.62 122.84c-0.29154-0.064-0.38235-0.18076-0.28977-0.30297 0.50739-0.66976 1.059-1.0068 1.514-1.3967 0.53808-0.46102 1.0245-0.64926 1.4768-0.95093 0.45223-0.30166 0.93378-0.5829 1.6359-0.65586 0.70212-0.073 1.6201 0.0641 2.169 0.17732 0.54896 0.11322 0.73279 0.20242 0.50747 0.30967-0.22531 0.10725-0.86054 0.23432-1.6187 0.71926-0.75813 0.48494-1.627 1.3185-2.5025 2.1584" display="inline" fill="#e6e6e6"/>
  <path transform="translate(-13.411 -16.102)" d="m202.94 122.78c0.85121-0.49923 1.7022-0.99836 2.4953-1.3385 0.79303-0.34012 1.5276-0.52107 2.3358-0.40358 0.80821 0.1175 1.6886 0.53305 2.2179 0.78558 0.52928 0.25253 0.70957 0.34313 0.36871 0.43529-0.34086 0.0922-1.202 0.18871-1.9717 0.4716-0.76971 0.2829-1.4395 0.74837-1.9801 0.96155-0.54061 0.21318-0.95072 0.1728-1.3617 0.13234" display="inline" fill="#d9d9d9"/>
  <path transform="translate(-13.411 -16.102)" d="m224.28 124.12c1.0264-1.3047 2.05-2.606 3.4767-3.3118s3.2554-0.81935 3.8844-0.77939c0.629 0.04 0.0626 0.23297-0.87503 0.92215-0.93761 0.68917-2.2437 1.8753-3.5526 3.064" display="inline" fill="#e1e1e1"/>
  <path transform="translate(-13.411 -16.102)" d="m228.38 123.65c-0.19031-0.14165-0.14138-0.0905 3e-3 -0.22852 0.51495-0.492 1.375-1.5796 2.344-2.1718 0.80344-0.49095 3.2941-1.0636 4.1101-1.1769 0.86436-0.12598 5.0149 1.0109 2.7503 1.0253-1.0616-0.0106-4.9395 1.8923-5.913 2.9262" display="inline" fill="#d9d9d9"/>
  <path transform="translate(-13.411 -16.102)" d="m235.54 124.01c1.0587-0.71603 2.1173-1.4319 3.1119-1.953 0.99463-0.52103 1.9248-0.84693 2.969-0.8355 1.0443 0.0114 2.2008 0.35997 2.8962 0.57267 0.69544 0.21271 0.93273 0.29056 0.50159 0.45135-0.43114 0.1608-1.5293 0.40778-2.533 0.90476s-1.9017 1.2372-2.4938 1.5874c-0.59209 0.35014-0.87573 0.30758-1.1599 0.26494" display="inline" fill="#e7e7e7"/>
  <path transform="translate(-13.411 -16.102)" d="m211.84 121.88c1.4586-0.79257 2.9134-1.583 4.5028-1.6672 1.5894-0.0842 3.3141 0.53462 3.876 0.82004s-0.0346 0.23873-1.1683 0.50101c-1.1337 0.26229-2.8023 0.8353-4.4746 1.4096" display="inline" fill="#e1e1e1"/>
  <path transform="translate(-13.411 -16.102)" d="m208 122.77c0.83629-0.52118 1.6723-1.0422 2.4464-1.3802 0.77405-0.33799 1.4852-0.49281 2.2372-0.60841 0.75191-0.1156 1.5423-0.19169 2.5082 0.10118 0.96594 0.29286 2.1048 0.95391 2.2616 1.1783 0.15681 0.22439-0.67007 0.0117-1.6387 0.283-0.96865 0.27129-2.0824 1.0271-3.1274 1.455-1.045 0.42794-2.0208 0.52707-2.9976 0.62631" display="inline" fill="#ececec"/>
  <path transform="translate(-13.411 -16.102)" d="m215.58 123.32c0.66788-0.042 3.3939-2.115 4.9439-2.6368 1.0037-0.33788 2.0543-0.5878 2.9728-0.50558 0.97461 0.0805 4.4127 2.1244 1.942 1.5651-1.1537-0.28138-5.0162 2.6734-7.1412 2.7861" display="inline" fill="#d9d9d9"/>
  <g fill="#f0f0f0">
   <path transform="translate(-13.411 -16.102)" d="m231.98 124.31c-0.0774-0.097-0.15506-0.19417 0.0222-0.55787 0.17724-0.3637 0.60812-0.99165 1.2856-1.5938s1.5974-1.1751 2.6761-1.5898c1.0787-0.41466 2.3066-0.66635 3.0541-0.787s1.0185-0.11192 0.77835 0.14538c-0.24013 0.2573-0.99152 0.76577-1.9601 1.493-0.9686 0.72724-2.1386 1.6611-3.3176 2.6021" display="inline"/>
   <path transform="translate(-13.411 -16.102)" d="m241.16 125.23c1.4699-0.73287 2.9375-1.4646 4.2178-1.7797 1.2803-0.3151 2.3714-0.21307 3.1252-0.0767 0.75378 0.13636 1.1735 0.30822 0.91259 0.46857s-1.2013 0.31249-2.0264 0.68483-1.5244 0.95907-2.0514 1.2909c-0.52698 0.33181-0.8796 0.4068-1.2331 0.48198" display="inline"/>
   <path transform="translate(-13.411 -16.102)" d="m214.57 122.94c1.6818-1.0095 3.3611-2.0175 4.7389-2.4138 1.3778-0.39632 2.4523-0.18027 3.1876 0.0345s1.1347 0.42976 0.85836 0.56182-1.2274 0.18459-2.4011 0.65524-2.55 1.3494-3.9381 2.2356" display="inline"/>
   <path transform="translate(-13.411 -16.102)" d="m221.36 123.7c0.30413-1.1141 0.93766-1.3689 1.7706-1.985 0.83298-0.61608 1.7725-1.1342 2.8684-1.3085 1.0959-0.17427 2.3369-2e-3 3.0817 0.13439 0.74485 0.13591 0.99736 0.23467 0.68509 0.39701-0.31228 0.16234-1.1903 0.39066-2.2023 0.93444-1.012 0.54379-2.1419 1.3931-3.2804 2.2489" display="inline"/>
  </g>
  <path transform="translate(-13.411 -16.102)" d="m224.28 124.12c0.90201-1.0886 1.8039-2.1772 2.7323-2.8452 0.92835-0.66804 1.8824-0.91522 2.9221-0.81672s2.1631 0.54229 2.8384 0.81226c0.67528 0.26997 0.90526 0.36732 0.4622 0.49159-0.44305 0.12427-1.5578 0.27878-2.5232 0.69854-0.96544 0.41975-1.7691 1.0977-2.5786 1.7805" display="inline" fill="#eee"/>
  <path transform="translate(-13.411 -16.102)" d="m233.8 124.39c0.33209-0.95811 0.97212-1.1134 1.6257-1.6318 0.69889-0.55431 1.4919-1.1823 2.0848-1.4452 0.74299-0.32951 1.5315-0.58642 2.2524-0.55569 0.2733 0.01 0.87619-0.0339 1.3719 0.2142 0.57911 0.28988 0.73937 0.19433 1.475 1.0174 0.0811 0.0907-0.52774-0.0234-1.1772 0.0142-1.3358-0.0681-4.178 1.4131-5.1165 2.2289" display="inline" fill="#d9d9d9"/>
  <path transform="translate(-13.411 -16.102)" d="m235.94 124.11c-0.29687-0.031-0.40017-0.13687-0.32184-0.26866 0.4293-0.72231 0.93976-1.1189 1.3483-1.5573 0.48315-0.5183 0.94548-0.75977 1.3611-1.1101 0.41566-0.35035 0.86273-0.68368 1.5523-0.83471 0.68955-0.15107 1.6171-0.11749 2.1753-0.0664 0.55818 0.0511 0.75083 0.11919 0.53892 0.25097-0.2119 0.13178-0.82893 0.32909-1.5281 0.89578-0.69914 0.56669-1.4693 1.4922-2.2454 2.4247" display="inline" fill="#e6e6e6"/>
  <path transform="translate(-13.411 -16.102)" d="m239.42 124.65c0.79003-0.5913 1.5799-1.1825 2.3299-1.6092 0.75001-0.42667 1.4597-0.68865 2.276-0.66228 0.81628 0.0264 1.7377 0.34084 2.2919 0.53259s0.74348 0.26162 0.41507 0.39133-1.1734 0.32196-1.9066 0.68916c-0.73324 0.36721-1.3468 0.90467-1.8601 1.177s-0.92542 0.27803-1.3384 0.28377" display="inline" fill="#d9d9d9"/>
  <path transform="matrix(.26458 0 0 .26458 -6.8125e-6 3.75e-7)" d="m708.07 469.06c-0.38031 1.0969-0.72365 2.2043-1.1641 3.2832-1.5294 3.7466-3.3924 7.3733-5.4004 10.803-2.008 3.4294-4.1592 6.661-6.2637 9.6172-2.1044 2.9562-4.1616 5.6359-5.9805 7.9629-2.7453 3.5123-4.5732 5.6641-6.4375 7.8691 1.8827-1.6207 3.6953-3.1054 5.4922-4.3652 7.2505-5.0835 14.251-6.5841 25.543-6.959 11.292-0.37493 26.874 0.37546 37.291 0.95898 10.417 0.58337 15.668 1.0005 21.088 2.0723 2.0029 0.39602 32.278 18.555 38.755 23.33 1.0506 0.77453 2.2162 1.6189 3.6132 1.7573 13.175 1.3049 30.953 0.19274 40.17-6.8044 12.41-9.4206 14.053-25.932 13.041-27.709-1.5196-2.6664-37.469 13.121-47.129 10.099-14.016-4.3841-43.195-16.224-61.368-24.679-13.671-6.3605-35.275-7.6257-51.25-7.2363z" display="inline" fill="#fff"/>
 </g>
 <g transform="translate(-167.03 -125.96)" display="none">
  <path d="m196.01 136.12c0 11.38-5.6238 10.736-17.004 10.736-7.4546 0-13.496-1.3896-17.114-7.3193-0.75159-1.2319-3.3508-4.8932-3.3508-6.2233 1e-5 -11.38 5.4835-17.799 16.863-17.799s20.605 9.2253 20.605 20.605z" fill="#ff1d1d"/>
  <path transform="matrix(.26458 0 0 .26458 13.411 16.102)" d="m680.71 397.63c-14.455-3.6938-25.084-8.3525-32.457-9.0176-8.9372-0.80611-13.439 4.3617-18.605 15.695-5.1668 11.334-11 28.833-13.5 46.25-2.4999 17.417-8.5557 33.945 1.7377 33.446 44.06-2.1353 64.279-9.54 76.495-11.952 1.1315-1.7154 12.363-2.3042 14.198-3.1167 12.548-5.5553 1.8267-6.3438 2.161-8.2976s0.71393-3.8294 0.79619-5.795c0.0823-1.9655 0.30983-3.8457 0.16191-5.805-0.1479-1.9593-0.0523-3.9999-0.40844-5.9352-0.35616-1.9353-0.98696-3.5891-1.5295-5.4824-0.54253-1.8933-1.5279-4.5548-2.2349-6.3882s-1.3124-3.28-2.162-5.0357c-1.6992-3.5113-3.4883-7.6447-5.6264-10.737-2.1381-3.0928-4.5379-5.4973-6.9835-8.1613-2.4456-2.664-5.9945-4.5226-8.6598-6.8803-1.0976-0.97093-2.2585-1.8534-3.3828-2.7871z" fill="#ff1d1d"/>
  <path transform="matrix(.26458 0 0 .26458 13.411 16.102)" d="m708.32 469.05c-3.6724 0.0895-7.6379 0.19486-10.504 0.42849-15.334 1.25-25.916 3.0833-37.75 6-11.834 2.9167-24.916 6.9172-38.041 8.334-13.125 1.4168-26.292 0.24911-37.084-3.459-10.792-3.708-19.207-9.9578-24.207-16.041-5.0004-6.0832-6.5838-12-12.459-11.084s-16.042 8.6663-21.709 14c-5.6669 5.3337-9.945 10.059-7.9238 13.277 2.3715 3.776 28.988 28.964 38.928 35.256 10.382 6.5725 48.424 22.405 63.549 20.113 15.125-2.2918 29.698-3.8138 41.072-10.855 8.5557-5.2964 14.919-11.507 20.633-16.426 1.8643-2.205 3.6922-4.3569 6.4375-7.8691 1.8188-2.327 4.0979-4.698 6.2024-7.6542 2.1045-2.9562 4.255-6.4087 6.263-9.8382 2.008-3.4294 3.9606-6.6587 5.49-10.405 0.44041-1.0789 0.7229-2.6801 1.1032-3.777z" fill="#fff"/>
  <path d="m184.26 120.04c1.4693-0.37765 2.936-0.75463 4.2844-0.70479 1.3483 0.0498 2.5764 0.52658 2.7661 0.72395 0.1897 0.19737-0.65514 0.11591-1.6079 0.35315-0.95276 0.23723-2.0078 0.79531-3.0654 1.3547" display="inline" fill="#ececec"/>
  <path d="m186.64 121.77c1.1659-1.1818 2.3286-2.3604 3.8253-2.9022 1.4966-0.5418 3.3266-0.45013 3.9472-0.34006 0.62058 0.11006 0.0361 0.2385-0.97268 0.81849-1.0088 0.57999-2.4393 1.6126-3.873 2.6474" display="inline" fill="#e1e1e1"/>
  <path d="m190.68 122.36c-0.21497-0.1571-0.15948-0.10004-2e-5 -0.2593 0.56858-0.56786 1.5142-1.818 2.5891-2.508 0.89125-0.57211 3.6684-1.2687 4.5793-1.4126 0.96486-0.15922 5.624 1.0522 3.0914 1.1113-1.1875 8e-3 -5.4963 2.2398-6.5696 3.4311" display="inline" fill="#d9d9d9"/>
  <path d="m175.87 116.83c1.5381-0.62446 3.0722-1.2473 4.6611-1.1531 1.5889 0.0941 3.2335 0.90192 3.76 1.2484 0.52649 0.34647-0.0611 0.23335-1.217 0.3672-1.1559 0.13384-2.8781 0.51664-4.6042 0.9003" display="inline" fill="#e1e1e1"/>
  <path d="m172.6 115.47c0.963-0.2089 1.9257-0.41774 2.7684-0.47514 0.84267-0.0574 1.5644 0.0365 2.3113 0.18101 0.74689 0.14453 1.5167 0.3392 2.3274 0.94041 0.81077 0.60122 1.6603 1.6074 1.7323 1.8715 0.072 0.2641-0.63483-0.21476-1.6382-0.28572-1.0034-0.071-2.3067 0.26539-3.4348 0.31617-1.1281 0.0508-2.0802-0.18467-3.0334-0.42037" display="inline" fill="#ececec"/>
  <path d="m179.42 118.68c0.66838 0.033 3.6091-1.7221 5.2078-2.0673 1.0352-0.2235 2.1071-0.35436 3.0107-0.16992 0.95949 0.189 4.1474 2.6046 1.7548 1.7725-1.115-0.40864-5.2837 2.0956-7.408 1.9699" display="inline" fill="#d9d9d9"/>
  <g fill="#f0f0f0">
   <path d="m194.03 122.72c-0.0661-0.10506-0.13238-0.21029 0.0844-0.55189 0.21681-0.3416 0.71521-0.91741 1.4558-1.44 0.74059-0.52258 1.7188-0.98911 2.8372-1.2805 1.1184-0.2914 2.3667-0.40419 3.123-0.44048 0.75626-0.0363 1.0246 3e-3 0.7572 0.23154-0.26739 0.22883-1.0709 0.65007-2.1148 1.2644-1.0438 0.61434-2.311 1.4115-3.5878 2.2147" display="inline"/>
   <path d="m178.47 118.2c1.7842-0.81509 3.5656-1.6289 4.9792-1.8686 1.4135-0.23974 2.457 0.0951 3.1637 0.39078 0.70666 0.29566 1.0795 0.55396 0.79013 0.65429-0.28934 0.10033-1.2403 0.0462-2.4593 0.38259-1.219 0.33642-2.6849 1.0557-4.1634 1.7812" display="inline"/>
   <path d="m183.21 120.5c0.42683-1.0731 1.0849-1.2554 1.9815-1.7745s1.8882-0.9289 2.9967-0.97953c1.1085-0.0506 2.3224 0.25984 3.0473 0.47821 0.72498 0.21837 0.96486 0.34475 0.63639 0.47114-0.32847 0.1264-1.2266 0.25509-2.293 0.68227-1.0665 0.42719-2.2843 1.1448-3.5114 1.8679" display="inline"/>
  </g>
  <path d="m186.64 121.77c1.0181-0.98093 2.0361-1.9618 3.0334-2.5218s1.973-0.69894 2.9951-0.48479c1.0221 0.21416 2.0889 0.78082 2.7297 1.1246 0.64085 0.3438 0.85849 0.46626 0.40433 0.5402-0.45417 0.0739-1.5792 0.10281-2.5855 0.41195-1.0063 0.30915-1.8808 0.89294-2.7615 1.4809" display="inline" fill="#eee"/>
 </g>
 <g transform="translate(-167.03 -125.96)" display="none">
  <path d="m159.74 104.41c1.6584 0.0734 3.3125 0.14654 4.7176 0.89426 1.4051 0.74772 2.5635 2.1674 2.8977 2.7018s-0.15281 0.18665-1.2594-0.17342c-1.1066-0.36006-2.8316-0.72981-4.5605-1.1004" display="inline" fill="#e1e1e1"/>
  <path d="m161.53 108.27c0.57816 0.33701 3.9967 0.13249 5.5749 0.56196 1.0219 0.27811 2.0337 0.65535 2.751 1.235 0.76479 0.60944 2.483 4.2214 0.7419 2.3813-0.80171-0.87602-6.4019-1.7228-8.0054-1.7212" display="inline" fill="#d9d9d9"/>
  <path d="m165.14 114.71c1.2657-0.17813 2.5311-0.35622 3.6535-0.38732s2.1011 0.0848 3.0342 0.55379c0.93307 0.46903 1.8189 1.2902 2.3502 1.7868 0.53129 0.49659 0.71028 0.67077 0.25234 0.6258-0.45794-0.045-1.5528-0.30548-2.8071-0.25521-1.2544 0.0503-2.6502 0.40909-4.0562 0.77049" display="inline" fill="#e7e7e7"/>
  <path transform="matrix(.26458 0 0 .26458 13.411 16.102)" d="m552.99 328.54c-1.794 2.9607-3.5848 5.9273-5.4277 8.7949-2.2709 3.5336-4.6041 6.9481-7.0625 10.125-1.2292 1.5884-2.4896 3.1176-3.7891 4.5723-1.2995 1.4547-2.638 2.8358-4.0234 4.127s-2.8177 2.4938-4.3047 3.5918c-1.487 1.098-3.0286 2.0918-4.6328 2.9668-1.6042 0.87503-3.2709 1.6311-4.9922 2.2832-0.63826 0.24178-1.3198 0.4013-1.9726 0.61523 1.5096 3.5077 3.0199 7.0159 4.5293 10.523 5.3345 20.001 10.668 40.001 16 60 4.8137 6.057 10.001 12.584 15 18.875 2.5011 0.70934 5.001 1.4177 7.5 2.125 13.835-12.999 27.668-25.999 41.5-39 0.16781-10.333 0.3345-20.666 0.5-31-4.1658-5.8325-8.3324-11.666-12.5-17.5-8.6658-7.3325-17.332-14.666-26-22-3.4409-6.3662-6.8828-12.733-10.324-19.1z" fill="#ff1d1d"/>
  <path d="m163.15 109.43c1.078 0.23151 2.1512 0.46201 3.1918 0.785 1.0406 0.32299 2.0422 0.73629 3.0079 1.371 0.96576 0.63477 1.8861 1.4857 2.4198 2.0227 0.53376 0.537 0.68463 0.7623 0.33559 0.7172s-1.2001-0.35919-2.3892-0.62486c-1.189-0.26568-2.6981-0.47941-3.5528-0.6458-0.85474-0.16638-1.0485-0.28457-1.2425-0.4029" display="inline" fill="#f0f0f0"/>
  <path d="m161.54 106.73c1.6039 0.35408 3.2052 0.7076 4.3989 1.2674 1.1938 0.55977 1.9782 1.3251 2.4787 1.905 0.5005 0.57991 0.71889 0.97743 0.41517 0.93811-0.30371-0.0393-1.1305-0.51205-2.1382-0.7253-1.0077-0.21324-2.1799-0.16496-2.7998-0.23575-0.6199-0.0708-0.68013-0.26094-0.74037-0.45115" display="inline" fill="#f0f0f0"/>
  <path transform="matrix(.26458 0 0 .26458 13.411 16.102)" d="m518.01 365.24c-1.493 0.53579-3.007 1.0313-4.5742 1.4258-1.8228 0.45883-3.6928 0.82772-5.6016 1.123-1.9088 0.29533-3.8569 0.51813-5.8359 0.67968-3.9582 0.32311-8.0417 0.40669-12.188 0.37305-0.0541-4.4e-4 -0.1099-3e-3 -0.16406-4e-3 2.1595 5.9608 4.0544 12.317 5.791 19.645 3.0416 12.833 5.7087 28.499 8.0488 42.023 2.3401 13.524 4.3526 24.906 7.8945 34.781 3.5419 9.875 8.613 18.243 11.822 20.104 3.2093 1.8606 4.5581-2.785 10.037-7.5762 5.479-4.7912 15.086-9.7253 19.41-13.066 3.249-2.5104 4.3669-4.3831 3.9902-6.0684-0.12473-0.55767-3.2247-7.4757-15.131-36.748-4.8286-11.872-15.756-38.003-23.5-56.691z" fill="#fff"/>
  <path d="m159.66 103.9c1.2538 0.24836 2.5073 0.49667 3.5774 0.83671 1.0701 0.34004 1.9562 0.77157 2.6829 1.5216 0.72672 0.74999 1.2929 1.817 1.6312 2.4608s0.44994 0.86717 0.0323 0.67399c-0.41763-0.19318-1.3656-0.79942-2.4479-1.1548s-2.2851-0.45639-2.9547-0.6299-0.80156-0.41938-0.93372-0.66556" fill="#d9d9d9"/>
  <path d="m164.73 112.21c0.49843 0.13922 2.9724-0.85862 4.2273-0.88506 0.81259-0.0171 1.6391 0.0503 2.2923 0.35697 0.24841 0.11437 0.82135 0.307 1.1828 0.72722 0.42234 0.49096 0.60703 0.46471 0.96786 1.508 0.0398 0.11495-0.4778-0.22531-1.0914-0.44141-1.0429-0.50032-4.0861-0.043-5.6536 0.34215-0.24504 0.0602-0.4014-0.0918-0.61365-0.1969" display="inline" fill="#d9d9d9"/>
  <path d="m166.3 113.7c0.14062-0.10733 0.28128-0.21469 1.0959-0.35185 0.81463-0.13717 2.296-0.30327 3.476-0.145 1.18 0.15827 2.04 0.6399 2.5488 0.95558s0.66841 0.46585 0.40164 0.51307c-0.26677 0.0472-0.96136-7e-3 -1.8306 0.22618-0.86924 0.23304-1.899 0.74813-2.9366 1.2671" display="inline" fill="#f0f0f0"/>
  <path d="m167.88 115.11c0.95822-0.23577 1.9162-0.4715 2.7733-0.57135 0.8571-0.0999 1.6128-0.0638 2.3539 0.27927 0.74115 0.34308 1.4665 0.99245 1.9018 1.3854 0.43529 0.39298 0.58226 0.53122 0.22926 0.52236-0.35299-9e-3 -1.2057-0.16186-2.0558-0.0777-0.85004 0.0841-1.6871 0.4037-2.2367 0.53939-0.5496 0.13569-0.8095 0.0865-1.0699 0.0372" display="inline" fill="#d9d9d9"/>
 </g>
 <g transform="translate(-167.03 -125.96)" display="none">
  <path d="m148.63 86.651c-1.7318 1.3041-3.4638 2.608-5.196 3.9116-1.2877 0.94446-2.5756 1.8886-3.8637 2.8325-0.26621 0.94446-0.53267 1.8886-0.79939 2.8325 2.7093 3.1025 5.4183 6.2048 8.1271 9.3068 1.1079 2.6058 2.2154 5.2113 3.323 7.8168 0.17397-0.0577 0.35557-0.10075 0.52564-0.16597 0.45867-0.1759 0.90279-0.37987 1.3302-0.61592s0.83824-0.50414 1.2345-0.80033c0.39623-0.2962 0.77787-0.62062 1.147-0.96894 0.36917-0.34831 0.72583-0.72087 1.0721-1.1133s0.6821-0.80493 1.0096-1.2334c0.65508-0.85701 1.2768-1.7781 1.8819-2.7314 0.49107-0.77357 0.96825-1.5739 1.4463-2.3725-0.85942-1.6096-1.7187-3.2191-2.5782-4.8289-0.75473-1.978-1.5097-3.9562-2.2649-5.9348-0.71032-1.5734-1.4209-3.147-2.1317-4.7208-1.4209-0.40438-2.842-0.80902-4.2634-1.2139z" display="inline" fill="#ff1d1d"/>
  <path d="m141.42 90.939-8.6651 5.8208c1.4404 2.0079 2.9108 4.0573 4.4431 6.3283 1.5324 2.271 3.1414 4.7847 4.3982 7.3644 0.5392 1.1068 1.0042 2.2384 1.4335 3.4236 0.0143 1.3e-4 0.0291 9.2e-4 0.0434 1e-3 1.0969 9e-3 2.1774-0.0132 3.2246-0.0987 0.52363-0.0427 1.0391-0.10169 1.5441-0.17983 0.50503-0.0781 0.99979-0.17574 1.4821-0.29714 0.41466-0.10438 0.81525-0.23548 1.2103-0.37724-3.0034-7.2474-5.4945-13.297-9.1142-21.985z" display="inline" fill="#fff"/>
  <path d="m155.11 93.911c1.636 0.28187 3.2676 0.56299 4.5672 1.4819s2.2698 2.4733 2.5339 3.0456-0.17513 0.16589-1.2274-0.3308c-1.0523-0.4967-2.717-1.081-4.3854-1.6666" display="inline" fill="#e1e1e1"/>
  <path d="m156.96 97.309c0.47826 0.40721 3.5556 0.63532 4.9167 1.2603 0.88137 0.40472 1.7425 0.90652 2.3175 1.572 0.61406 0.701 1.739 4.5007 0.39244 2.4558-0.61678-0.9701-5.5238-2.5162-6.9565-2.7167" display="inline" fill="#d9d9d9"/>
  <path d="m156.37 96.11c1.6236 0.66379 3.2447 1.3265 4.397 2.0874 1.1522 0.76092 1.834 1.619 2.2574 2.2574 0.42339 0.63838 0.58993 1.0603 0.29359 0.98297s-1.057-0.65056-2.0871-0.99403c-1.0301-0.34348-2.3115-0.453-3.604-0.56346" display="inline" fill="#f0f0f0"/>
  <path d="m157.63 99.88c0.37847-0.0038 0.75615-0.0077 1.7864 0.35048 1.0302 0.35817 2.7069 1.0756 3.957 1.9194s2.0548 1.8029 2.5166 2.4029c0.4618 0.60001 0.58307 0.84254 0.24249 0.75378-0.34057-0.0888-1.1452-0.50761-2.1891-0.71334-1.0439-0.20573-2.3115-0.19624-3.0638-0.27611-0.75228-0.0799-0.9838-0.24924-1.2156-0.41879" display="inline" fill="#f0f0f0"/>
  <path d="m158.89 101.87c1.401 0.58191 2.7996 1.1628 3.8469 2.0135s1.7418 1.9701 1.7746 2.2419c0.0329 0.27178-0.59313-0.30138-1.5162-0.56903-0.92304-0.26764-2.1399-0.22411-3.3597-0.18048" display="inline" fill="#ececec"/>
  <path d="m154.21 89.899c0.93572 0.30891 1.8711 0.61772 2.6263 0.99606s1.3293 0.82567 1.8994 1.3294 1.1345 1.0622 1.5278 1.9918c0.3933 0.92958 0.6144 2.2277 0.54238 2.4918-0.072 0.26411-0.43574-0.50276-1.5321-1.1259s-2.9258-1.0961-4.7594-1.5702" display="inline" fill="#ececec"/>
  <path d="m234.89 191.19c0.34009-0.10991 1.0201-0.32966 1.6406-0.51882 0.62055-0.18916 1.1816-0.34772 1.765-0.46785 0.58344-0.12014 1.1892-0.20186 1.9221-0.23506 0.73293-0.0332 1.615-0.0175 2.5032 0.0806s1.7936 0.2787 2.3852 0.51139c0.59154 0.23268 0.86929 0.51723 0.9334 0.77318 0.0641 0.25595-0.0918 0.49373-0.34592 0.79052-0.25408 0.29679-0.62059 0.66886-1.0204 1.0081-0.39982 0.33924-0.83845 0.65123-1.6714 0.86752-0.83299 0.21629-2.0088 0.3318-3.2435 0.42945-1.2346 0.0976-2.3286 0.16165-3.0933 0.12348-0.76468-0.0382-1.1519-0.18142-1.573-0.5-0.42101-0.31858-0.87568-0.81261-0.97175-1.3007-0.0961-0.48806 0.16677-0.96994 0.42965-1.4519 0 0 0-1e-5 0.34008-0.10991z" fill="#ff1c1c"/>
  <g fill="#fff">
   <path d="m234.55 191.3c-0.55997 0.16112-1.0197 0.29341-1.7562 0.82288-0.73645 0.52947-1.1463 1.213-1.0856 1.2459 0.0608 0.0329 1.8942-0.21576 2.8957-0.35157" display="inline"/>
   <path d="m235.06 192.25c-0.6459 0.18585-1.1762 0.33844-2.0257 0.94916-0.84947 0.61072-1.3222 1.3991-1.2522 1.437 0.0701 0.0379 2.1849-0.24887 3.3401-0.40552" display="inline"/>
   <path d="m236.63 192.35c-0.64945 0.173-1.1827 0.31505-2.0441 0.90881-0.86142 0.59376-1.3497 1.3726-1.2804 1.4119 0.0693 0.0393 2.1894-0.2055 3.3474-0.33922" display="inline"/>
  </g>
  <g fill="#ff1c1c">
   <path d="m245.7 180.39c0.73904-0.92745 1.8823-1.9681 2.9667-2.6651 1.0844-0.69703 2.1099-1.0504 2.9819-1.1683 0.87202-0.11791 1.5904-4.5e-4 2.2482 0.28922 0.65778 0.28968 1.2549 0.75137 1.465 1.4976s0.0334 1.7771-0.43899 2.8576c-0.47241 1.0805-1.2405 2.2109-2.2578 3.3749s-2.2836 2.3618-3.333 3.4327c-1.0494 1.0709-1.8818 2.0148-2.6356 2.9962-0.7538 0.98139-1.429 2.0002-2.8586 2.1276-1.4296 0.12735-3.1165 0.21304-3.6736-0.86426-0.8372-0.62941-1.623-0.81142-1.1435-1.3722 0.62267-0.72819 1.604-2.5697 2.2017-3.4096 1.0421-1.4643 2.0555-3.0025 2.7297-4.1786s1.0089-1.9903 1.7479-2.9177z"/>
   <path d="m229.67 159.87c0.68939 1.6819 2.1242 4.1269 3.5707 6.0962s2.9045 3.463 4.2451 4.6956c1.3406 1.2326 2.5638 2.204 3.7245 3.4876 1.1607 1.2836 2.259 2.8794 3.4532 4.1491s2.484 2.2135 3.8385 2.7575 2.7735 0.68834 4.0293 0.49893 2.3485-0.71249 2.8112-1.5371c0.46267-0.82465 0.2954-1.9512-0.45041-3.1473s-2.0703-2.4616-3.1354-4.0084c-1.0651-1.5469-1.8706-3.3751-2.8075-5.2185-0.93685-1.8434-2.005-3.7017-3.1691-5.3132-1.164-1.6115-2.424-2.9761-3.6982-4.1274s-2.5626-2.0892-4.1597-2.7454c-1.5971-0.65618-3.5029-1.0304-5.0259-0.83466-1.523 0.19573-2.663 0.96149-3.2612 1.8039-0.59818 0.84244-0.65447 1.7612 0.0349 3.4431z"/>
   <path d="m231.38 138.05c-0.86156 2.3096-2.1862 5.9444-2.9075 8.661s-0.83922 4.5149-0.67111 6.3239c0.16812 1.8091 0.62218 3.6287 1.2085 5.0523 0.58628 1.4236 1.3046 2.451 2.1696 3.1637 0.86498 0.71273 1.8764 1.1109 3.1844 1.2065 1.3079 0.0956 2.9123-0.11122 4.3382-0.46603s2.6733-0.85754 3.8615-1.8226c1.1882-0.96501 2.3174-2.3923 3.2016-3.8035 0.88426-1.4112 1.5236-2.8063 2.093-4.3913 0.56938-1.585 1.0688-3.3599 1.4717-5.2428 0.403-1.8829 0.70959-3.8736 0.73186-5.7118 0.0223-1.8381-0.23984-3.5236-0.51225-4.8823-0.27241-1.3587-0.55514-2.3905-1.5848-3.2515s-2.8065-1.5509-4.7572-1.9261-4.0751-0.43531-5.799 0.0859c-1.7239 0.52117-3.0469 1.6237-3.9077 2.6672-0.86079 1.0435-1.2592 2.0277-2.1208 4.3373z"/>
  </g>
  <path d="m228.25 153.99c-0.20278-0.17857-0.40602-0.35754-0.77523-0.039-0.36922 0.31855-0.90483 1.133-1.0938 2.4348-0.189 1.3017-0.0312 3.0884 0.0695 3.8957s0.14454 0.63513 0.32949 0.16642c0.18496-0.46871 0.51158-1.2354 0.88476-1.8148s0.79152-0.96965 1.2111-1.361" display="inline" fill="#f1f1f1"/>
  <path d="m228.6 156.02c-0.25201 0.21564-0.50409 0.43133-0.72453 0.97388-0.22045 0.54254-0.40897 1.4111-0.38597 2.2935 0.023 0.8824 0.25743 1.7772 0.45435 2.4387 0.19692 0.66153 0.35704 1.0918 0.45684 1.3294s0.14008 0.28534 0.21321-0.32728c0.0731-0.61263 0.17907-1.8866 0.40165-2.7836 0.22257-0.89697 0.5613-1.4144 0.6746-1.7964 0.11331-0.38199 1e-3 -0.62796-0.11114-0.87386" display="inline" fill="#e9e9e9"/>
  <path d="m230.14 161.9c0.15377 0.78638 0.30725 1.5713 0.6146 2.2661s0.76819 1.2986 1.1278 1.7389c0.35965 0.44031 0.61919 0.71838 0.77176 0.86918s0.19966 0.17604 0.0726-0.29641c-0.12712-0.47245-0.42878-1.4433-0.52192-2.1643-0.0931-0.72104 0.0226-1.1903-2e-3 -1.502-0.0248-0.31177-0.18993-0.46561-0.35504-0.61939" display="inline" fill="#ececec"/>
  <path d="m229.23 158.49c-0.1396 0.49197-0.2792 0.9839-0.37738 1.7454-0.0982 0.76149-0.15493 1.7921 0.15441 2.932 0.30933 1.1398 0.98413 2.3872 1.3181 2.9854 0.33394 0.59816 0.32737 0.54908 0.30846 0.23117-0.0189-0.31792-0.0498-0.90506-0.0373-1.5258s0.0681-1.2757 0.18185-1.9318c0.11371-0.65612 0.2856-1.3136 0.29915-1.7944 0.0136-0.48083-0.13109-0.78454-0.27556-1.0879" display="inline" fill="#fafafa"/>
  <path d="m166.26 190.88c-0.64656 0.18354-1.1774 0.33422-2.0291 0.9419-0.85166 0.60767-1.3272 1.3944-1.2658 1.4347 0.0614 0.0403 1.9989-0.19335 3.0572-0.32099" display="inline" fill="#fff"/>
  <path d="m166.5 190.33c0.37743-0.1003 1.1321-0.30086 1.8799-0.48988 0.74783-0.18902 1.6028-0.29639 2.4788-0.43159s4.9082 0.11513 5.9967 0.23952 2.6277 0.59614 3.1839 0.97014c0.55616 0.37401-2.1371 2.9821-2.8048 3.334-1.2744 0.66661-2.3793 0.53078-4.5336 0.63147-2.3502 0.10985-4.8124-0.0518-5.2419-0.10961-0.82326-0.11071-1.1826-0.21714-1.3423-0.49883s-0.0621-1.1253-0.0657-1.6085c-4e-3 -0.48328 0.0715-1.9364 0.44894-2.0367z" fill="#ff1d1d"/>
  <path d="m166.9 191.99c-0.65569 0.14762-1.194 0.26882-2.0779 0.82863-0.88386 0.5598-1.4021 1.3191-1.3344 1.3611 0.0677 0.042 2.1957-0.1202 3.3581-0.20877" display="inline" fill="#fff"/>
  <g fill="#ff1d1d">
   <circle cx="180.32" cy="183.92" r="3.6755"/>
   <path d="m177.14 182.76c-0.51751 0.3748-0.98067 2.6386-1.9491 4.0303-1.3076 1.8791-2.9666 3.5174-2.8158 4.6044 0.26247 1.892 3.3541 2.3022 4.7493 2.2865 1.3952-0.0157 3.7592-3.7278 4.7695-5.3196 1.0103-1.5918 2.0315-3.0845 1.8523-3.9498-0.17913-0.8653-1.5589-1.1031-2.8315-1.4032s-2.5584-1.1294-3.7747-0.24859z"/>
   <ellipse cx="185.87" cy="154.42" rx="5.8197" ry="5.2601"/>
   <path d="m181.23 155.59c-0.22735 0.46475-2.5713 5.2562-3.3766 8.5137-0.80529 3.2575-1.0055 7.3516-0.98027 9.7141 0.0252 2.3625 0.14088 3.4733 0.17185 4.0261 0.031 0.55283 0.0513 3.2248 0.0716 3.7505 0.0202 0.52568 0.0929 1.5683 0.35462 1.927 0.26174 0.35872 1.0591 0.60571 2.1714 0.8047 1.1124 0.199 2.5341 0.27717 3.0843 0.0303 0.55016-0.24682 0.9395-0.91779 1.365-1.9916s0.79433-2.6114 1.183-4.0188c0.3887-1.4074 0.79089-2.6914 1.4456-4.7401 0.65469-2.0487 1.5707-4.8592 2.3493-7.4638 0.77853-2.6046 1.4319-5.004 1.7191-6.6803s0.35637-2.629 0.0948-3.2458c-0.26158-0.61689-1.087-1.1626-2.4697-1.4348-1.3827-0.27222-4.0553 0.0956-5-0.1115-0.94467-0.20711-1.1485-0.38265-1.1994-0.42655-0.051-0.0439-0.051-0.0439-0.40408 0.41912-0.35311 0.46302-0.35312 0.46302-0.58047 0.92777z"/>
  </g>
  <path d="m191.21 152.63c0.11823-0.0234 0.23668-0.0468 0.58344 0.27834 0.34676 0.32512 0.92175 0.99807 1.3092 2.1928s0.5869 2.9092 0.65357 3.6891c0.0667 0.77989 4.3e-4 0.62532-0.23224 0.21602-0.23268-0.40929-0.63244-1.0744-1.0352-1.5546-0.40278-0.48013-0.80711-0.7736-1.2127-1.068" display="inline" fill="#dfdfdf"/>
  <path d="m192.16 155.67c0.25844 0.9371 0.51639 1.8724 0.59904 2.7794 0.0827 0.907-0.0102 1.7843-0.0979 2.4349s-0.1708 1.0771-0.22598 1.3135c-0.0552 0.23645-0.0823 0.28525-0.208-0.2938s-0.34976-1.7874-0.62738-2.6247-0.60815-1.3009-0.74138-1.6557-0.069-0.60033-5e-3 -0.84581" display="inline" fill="#fafafa"/>
  <path d="m190.9 161.06c-0.0392 0.76605-0.0784 1.5307-0.25197 2.2233-0.17357 0.69266-0.48134 1.3123-0.72489 1.7664-0.24355 0.45408-0.42383 0.74415-0.53113 0.90234-0.10729 0.15818-0.14234 0.18636-0.0906-0.27707 0.0517-0.46343 0.19072-1.4195 0.18794-2.1175-3e-3 -0.698-0.14746-1.136-0.16125-1.4364-0.0138-0.30036 0.10332-0.46264 0.2204-0.62489" display="inline" fill="#fafafa"/>
  <path d="m191.49 157.29c0.22405 1.3914 0.44788 2.7814 0.35409 4.1046-0.0938 1.3233-0.50515 2.5784-0.71074 3.181s-0.20559 0.55532-0.22479 0.2495c-0.0192-0.30583-0.0579-0.8701-0.13538-1.4625-0.0775-0.5924-0.19364-1.2135-0.35694-1.8305-0.1633-0.61693-0.37387-1.2298-0.43703-1.6883-0.0632-0.45849 0.0211-0.7622 0.10518-1.0656" display="inline" fill="#efefef"/>
 </g>
 <g transform="translate(-167.03 -125.96)">
  <path d="m168.7 128.81c-0.55122 1.367-1.2568 3.3514-1.5434 5.5343-0.2866 2.1829-0.15431 4.5641 1.0144 7.0997s3.3735 5.2255 5.4682 7.6068c2.0946 2.3813 4.079 4.4538 6.1295 6.2177 2.0506 1.7639 4.1672 3.219 5.9752 3.9686 1.808 0.74956 3.3073 0.79365 4.2993 0.1102s1.4771-2.0945 1.6315-3.704-0.022-3.4174-0.74959-6.1736c-0.72758-2.7561-2.0064-6.4602-3.5938-9.7675-1.5875-3.3073-3.4836-6.2177-5.6884-8.4888-2.2048-2.2711-4.7183-3.9026-6.7028-4.6744-1.9844-0.77181-3.4396-0.68362-4.3658-0.26463-0.92619 0.41898-1.3231 1.1686-1.8743 2.5357z" fill="#ff1d1d"/>
 </g>
 <g transform="translate(-167.03 -125.96)" display="none">
  <g display="inline">
   <g display="inline">
    <path d="m174.43 61.799c2.349 0.49482 7.0466 1.4844 16.307 5.0289 9.2606 3.5445 23.083 9.6436 31.731 13.638 8.6476 3.9948 12.119 5.8849 16.854 10.5 4.7353 4.6148 10.734 11.954 13.734 15.623 2.9994 3.6694 2.9994 3.6694-1.877 2.6489-4.8765-1.0205-14.626-3.0608-22.303-4.1806-7.6767-1.1198-13.272-1.3177-17.486-0.38977-4.2132 0.92797-7.0407 2.9811-8.2842 2.8256-1.2435-0.15549-0.90371-2.5212-1.5825-3.2255s-2.3769 0.25209-4.1224-0.80498-3.5401-4.1285-4.9782-6.6412c-1.4381-2.5127-2.5197-4.4665-3.9438-7.3792s-3.1917-6.7864-5.5282-10.68c-2.3365-3.8932-5.2422-7.8064-7.1488-10.72-1.9066-2.9131-2.8138-4.8259-3.2675-5.7825-0.45371-0.95658-0.45371-0.9566 1.8953-0.46178z" fill="#f2f2f2"/>
    <path d="m190.63 67.85c8.0651 2.9684 18.933 7.0388 26.602 10.305 7.6694 3.2663 12.141 5.7289 16.381 8.5955 4.2399 2.8666 8.2472 6.1366 11.721 9.9016 3.4742 3.765 6.4142 8.024 7.1806 9.7993s-0.64133 1.0668-3.5461-0.24951-7.3063-3.2402-12.097-5.3999c-4.7904-2.1597-9.9692-4.555-15.631-7.1666s-11.805-5.4391-17.766-8.9125-11.738-7.5924-16.166-11.035c-4.4275-3.4428-7.5049-6.2091-9.8247-8.1862s-3.8819-3.1649-2.0318-2.8256 7.1121 2.2057 15.177 5.1741z" fill="#ddd"/>
   </g>
   <path d="m173.33 60.858c4.0985 0.58286 8.9575 2.1561 19.81 5.6968 10.852 3.5407 25.464 8.9734 36.147 14.705 10.683 5.7321 16.977 11.124 20.904 16.995 3.9271 5.8705 6.702 11.479 6.3352 13.262-0.0785 0.38137-1.3129 1.6186-1.4965 1.6186-0.20127-4e-5 0.63825-1.2726 0.32286-1.6475-0.74168-0.88168-1.7812-2.6788-3.0355-4.8225-2.2742-3.8868-5.2542-8.9124-10.617-13.647-5.3629-4.7349-13.108-9.1787-21.314-13.212-8.2053-4.0335-16.87-7.6564-24.515-10.132-7.6454-2.476-12.451-3.8075-16.895-5.2118-4.2113-1.3306-7.6134-2.6072-7.786-3.1462-0.15397-0.48103-0.35448-2.4649-0.0242-2.024 0.2437 0.32541 0.35613 0.65171 0.76901 1.0275 0.42696 0.38862 1.0516 0.48992 1.396 0.5389z" fill="#ff1d1d"/>
  </g>
  <g>
   <path d="m192.06 96.262c-4.5826-7.3344-12.898-20.96-16.9-27.933-4.002-6.9732-4.4428-6.97-3.7191-7.3174 0.72374-0.3474 1.3116-0.57658 3.7544 2.5823 2.7391 3.2077 6.4214 9.8719 10.417 16.086 3.9957 6.2141 7.4605 11.4 9.6209 15.603 2.1604 4.2031 4.1796 7.1596 4.0429 8.6272-0.13673 1.4676-1.4556 1.6662-2.268 1.3018-0.81237-0.36442-0.36572-1.6152-4.9484-8.9495z" fill="#ff1d1d"/>
   <path d="m204.51 107.29c-2.0157 1.3737-6.7947 6.5408-9.6334 8.8362-3.5827 2.897-6.5387 6.5435-7.2974 6.9168-2.3816 1.295-7.7947 3.0691-9.7916 4.6297-1.9969 1.5606-1.519 1.16-1.6313 0.54776-0.11233-0.61225 0.94691-2.5264 2.7383-4.9347 1.7914-2.4084 4.1412-4.9972 6.2429-7.1775s3.9551-3.952 5.6392-5.6656c1.6841-1.7136 6.1832-5.5575 8.2906-7.0806 2.1075-1.5232 9.723 1.0112 5.4428 3.9281z" fill="#ececec"/>
   <path d="m172.27 122.39c2.0009-1.8844 3.6746-2.8675 7.7183-6.248 4.0437-3.3805 10.458-9.1591 13.98-11.817 3.5215-2.6582 4.1534-2.1991 4.766-1.7389 0.61259 0.46027 1.205 0.92104-0.0116 2.5676-1.2167 1.6466-4.2402 4.4761-7.1138 7.3115-2.8736 2.8354-5.5959 5.6754-7.3369 7.7854-1.741 2.11-2.5007 3.4898-3.0706 5.271-0.56983 1.7812-0.94981 3.9636-2.2931 5.5506s-3.6498 2.5789-6.026 2.2754c-2.3762-0.3035-4.8221-1.9026-4.8813-4.095-0.0592-2.1924 2.2686-4.9778 4.2696-6.8623z" fill="#ff1d1d"/>
  </g>
  <path d="m130.55 73.176c-1.3889 0.93293-3.6738 2.7352-5.2586 4.413-1.5848 1.6778-2.4693 3.2308-3.6188 4.6719s-2.2689 2.4932-3.5218 3.5134c-1.2528 1.0203-2.4916 1.8701-2.9833 3.1034s-0.2362 2.85 0.37045 4.2443 1.5645 2.5667 2.3032 3.3561c0.73869 0.78938 1.2575 1.1951 1.991 1.806 0.73356 0.61092 1.6803 1.4257 2.5232 1.6943 0.84299 0.26864 1.5818-9e-3 3.7022-1.066 2.1203-1.0571 5.622-2.8935 8.4592-5.1151 2.8372-2.2216 5.01-4.8282 6.6423-7.4613s2.724-5.2926 3.0276-7.4902c0.30367-2.1977-0.18082-3.9336-1.3819-4.8702-1.2011-0.93655-3.8211-1.1234-5.5873-1.3001s-3.0297-0.36805-3.9078-0.43204c-0.87816-0.064-1.3709-4.98e-4 -2.7599 0.93243z" display="inline" fill="#ff1d1d" fill-opacity=".9"/>
  <path d="m131.59 72.503c1.7372-1.6722 3.4744-3.3445 5.5507-5.4975 2.0763-2.153 4.4917-4.7866 6.1463-6.53 1.6546-1.7434 2.5484-2.5963 3.265-3.2757s1.2561-1.1849 1.2944-0.60837c0.0383 0.57653-0.42458 2.235-0.92758 3.8004s-1.0461 3.0377-1.917 4.4829c-0.87089 1.4452-2.0695 2.8632-3.0199 4.1847-0.95041 1.3215-1.6525 2.5463-2.2611 3.2542-0.60859 0.70793-1.1238 0.89905-1.6392 1.0902" display="inline" fill="#f8f8f8" fill-opacity=".85"/>
  <g fill-opacity=".99648">
   <path d="m134.98 75.818c0.12473-0.12473 0.24945-0.24945 1.216-1.4342s2.775-3.4298 4.4324-4.9309 3.144-2.2483 3.7784-2.4886 0.38773 0.03713-0.39404 1.2208c-0.78176 1.1837-2.0953 3.2697-3.4084 5.3549" display="inline" fill="#eee"/>
   <path d="m137.52 72.814c0.94075-0.59663 1.8828-1.1941 2.889-1.7203 1.0063-0.5262 2.0791-0.98245 3.1354-1.2892 1.0563-0.30679 2.0951-0.4638 2.7548-0.56887 0.65968-0.10507 0.94075-0.15827 1.4086-0.22338 0.46786-0.06511 1.123-0.14222-0.12706 0.73239-1.2501 0.87461-4.4069 2.7017-7.565 4.5296" display="inline" fill="#d9d9d9"/>
   <path d="m151.57 72.59c1.2638 0.66178 2.526 1.3227 3.9103 2.5706 1.3843 1.2479 2.8885 3.081 3.7025 4.262 0.81402 1.181 0.93946 1.7142 0.66758 1.6438-0.27188-0.07038-0.94228-0.74078-2.8235-1.5676-1.8812-0.82677-4.976-1.809-8.0761-2.7929" display="inline" fill="#e8e8e8"/>
   <path d="m155.1 76.262c1.283 2.0888 2.5615 4.1702 3.2609 5.9491 0.69941 1.7789 0.82413 3.26 0.88638 4.3201 0.0622 1.0601 0.0622 1.6993-0.0697 1.6216-0.13199-0.07769-0.39704-0.87282-1.7634-2.5947-1.3663-1.7219-3.8374-4.3723-6.3132-7.0277" display="inline" fill="#d9d9d9"/>
   <path d="m156.34 81.407c0.63497 1.5245 1.2692 3.0472 1.7176 5.1492s0.71018 4.7798 0.66965 5.8064c-0.0405 1.0266-0.38214 0.40545-1.4875-1.2064-1.1054-1.6119-2.9763-4.2155-4.852-6.8259" display="inline" fill="#ececec"/>
   <path d="m153.78 86.103c0.89054 1.0837 3.1627 4.6394 3.5884 5.8203 0.42569 1.1809 0.24563 1.8326 4e-3 2.4375-0.4058 0.1372-2.7018-4.9111-6.1592-4.4884" display="inline" fill="#d9d9d9"/>
   <path d="m142.23 70.228c1.1497-0.7356 2.578-1.844 3.6771-2.1947s2.5696-0.36422 2.5019-0.05128c-0.0677 0.31294-1.673 0.71801-2.8581 1.5444" display="inline" fill="#ebebeb"/>
   <path d="m133.95 77.076c0.52461-2.1569 1.0492-4.3135 2.2845-5.6503 1.2353-1.3367 3.181-1.8529 5.1263-2.369" fill="#d9d9d9"/>
   <path d="m133.1 75.745c-0.61118-0.26972-1.2225-0.5395-0.89206-1.4288s1.6029-2.3978 3.2432-3.0778c1.6403-0.68001 3.6476-0.5313 5.6548-0.3826" display="inline" fill="#e3e3e3"/>
   <path d="m131.7 74.906c-0.30036-0.3327-0.60077-0.66546-0.54255-1.4354 0.0582-0.76991 0.47552-1.9768 1.6612-2.8613s3.1401-1.4471 4.7206-1.6491 2.7858-0.04345 3.9913 0.1151" display="inline" fill="#d9d9d9"/>
   <g>
    <path d="m137.56 81.324c0 1.3705-1.2049 2.4815-2.6911 2.4815-1.4863-4e-6 -2.6911-1.111-2.6911-2.4815 0-1.3705 1.4414-2.4838 2.9277-2.4838 1.4863-8e-6 2.4545 1.1133 2.4545 2.4838z" display="inline" fill="#f8f8f8" style="paint-order:normal"/>
    <ellipse cx="134.99" cy="81.509" rx="1.408" ry="1.6499" display="inline" fill="#eded00" style="paint-order:normal"/>
    <ellipse cx="134.95" cy="81.509" rx=".35799" ry=".79594" display="inline" style="paint-order:normal"/>
   </g>
  </g>
  <path d="m137.67 79.424c-0.14081-0.0717-0.42213-0.21494-0.77361-0.29578s-0.77316-0.09942-1.3759-0.14731c-0.60272-0.04789-1.3864-0.12508-1.9688-0.18014-0.58245-0.05505-0.96365-0.08797-1.1744 0.11966-0.21071 0.20763-0.25119 0.65564-0.23915 1.0205 0.0121 0.36481 0.0765 0.64607 0.48657 0.83746s1.4928 0.33717 2.3718 0.29778c0.87897-0.03939 1.7173-0.24199 2.2178-0.45745 0.50052-0.21545 0.66292-0.4435 0.70598-0.63305 0.0431-0.18955-0.0333-0.33991-0.0714-0.41492-0.0381-0.07501-0.0381-0.07501-0.17892-0.14671z" fill="#ff1d1d"/>
  <path d="m131.8 83.965c0.19494 0.12463 0.49117 0.23377 0.84973 0.27267 0.35855 0.03891 0.77949 0.0077 1.3836-0.01565 0.60415-0.02338 1.3915-0.03897 1.9764-0.05286 0.58488-0.01389 0.9673-0.02607 1.279-0.21312 0.31167-0.18706 0.55287-0.54905 0.5294-0.87806-0.0235-0.32901-0.31189-0.62523-0.95111-0.81244-0.63922-0.18721-1.6292-0.26516-2.4128-0.13657-0.78354 0.12859-1.3604 0.46378-1.832 0.73662-0.47162 0.27284-0.83799 0.48331-0.97435 0.65888s-0.0428 0.3159 0.15212 0.44052z" fill="#ff1d1d"/>
 </g>
 <g transform="translate(-167.03 -125.96)" display="none">
  <path d="m143.57 72.828c-0.77061-0.01892-1.5077 0.0898-2.2826 0.40256-1.2398 0.50041-2.7804 1.0898-4.3791 1.6613-1.5987 0.57152-2.313 1.0618-3.548 1.4119-1.2351 0.35012-2.367 0.96111-4.3434 2.6138-1.9764 1.6527-4.7974 4.3472-6.9117 6.1438-2.1144 1.7966-3.5223 2.6949-4.1486 3.9155-0.62624 1.2206-0.47048 2.7634-0.0537 4.192 0.41675 1.4286 1.0943 2.7429 2.0583 4.0209s2.2142 2.5196 3.1151 3.1026c0.90087 0.58307 1.4528 0.50787 3.3032 0.31161 1.8504-0.19625 4.9991-0.51358 7.9261-1.0997 2.927-0.58609 5.632-1.4406 8.3814-1.9627 2.7494-0.52206 5.5431-0.71182 7.3282-1.1467 1.7852-0.43488 2.5618-1.1148 3.2768-2.1379 0.715-1.0231 1.3683-2.3893 1.6816-4.1946 0.31328-1.8052 0.2868-4.0498-4e-3 -6.1852-0.29093-2.1353-0.84634-4.161-1.7818-5.7723-0.93546-1.6113-2.251-2.8079-3.7274-3.6277-1.4765-0.81976-3.1141-1.2626-4.4519-1.494-0.50168-0.08677-0.97579-0.1442-1.4382-0.15555zm-8.4372 7.0171c0.86308-1.71e-4 1.8622 0.41171 1.8621 1.5368 8e-5 1.1251-1.1644 1.6138-2.0275 1.6136-0.86287-2.11e-4 -1.9451-0.35634-1.945-1.4812-8e-5 -1.1249 1.2475-1.6691 2.1104-1.6693z" fill="#ff1d1d"/>
  <path d="m141.51 73.064c0.90055-0.47526 2.7016-1.4257 4.7435-2.7695 2.0419-1.3438 4.3246-3.0808 6.5604-5.0599s4.4243-4.2001 5.8846-5.5274c1.4603-1.3273 2.1732-1.7496 2.547-1.8257 0.37388-0.07611 0.39931 0.1992 0.28795 1.0054-0.11136 0.80619-0.35944 2.1433-1.2434 3.7693s-2.4038 3.5411-3.4037 5.1417c-0.99992 1.6006-1.4798 2.8865-2.9048 4.2553s-3.7949 2.8206-5.4068 3.9977c-1.6119 1.177-2.4655 2.0792-3.5158 2.0309-1.0503-0.04827-2.2974-1.0472-3.0718-1.9626-0.77445-0.91545-1.076-1.7475-1.3777-2.5799 0 0 5e-5 0 0.90061-0.47526z" display="inline" fill="#f8f8f8" fill-opacity=".99648"/>
 </g>
</svg>
