<?xml version="1.0" encoding="UTF-8"?>
<!-- Created with Inkscape (http://www.inkscape.org/) -->
<svg width="508.75mm" height="243.46mm" version="1.1" viewBox="0 0 508.75 243.46" xmlns="http://www.w3.org/2000/svg">
 <g transform="translate(144.69 -22.901)" fill="#4b4b4b">
  <path d="m-94.725 22.9s-3.3412 141.17-2.3649 141.72c3.3538 3.7859 13.647 19.144 13.793 19.144 0.24303 0 4.07-2.7412 15.758-11.288 2.3552-1.7223 6.6033-4.8282 9.4403-6.9019 2.8369-2.0737 5.2686-3.7703 5.4038-3.7703s3.5666 1.4121 7.6254 3.1383c16.938 7.2039 27.137 11.552 29.954 12.771l2.9952 1.2955 11.821-7.7199c6.5018-4.246 13.382-8.7137 15.29-9.9286l3.468-2.2092 25.368 2.528 5.6756 3.6861c3.1217 2.0274 7.343 4.7747 9.3803 6.1051 2.0373 1.3303 6.2862 4.1051 9.4423 6.166 3.1561 2.0609 5.8099 3.7471 5.8968 3.7471 0.15305 0 3.6513-3.0548 17.435-15.224 3.6191-3.1954 6.915-6.0803 7.3241-6.4105 0.76625-0.6183 3.5036-0.89121 27.441-2.7383l3.7744-0.29146 9.6764 9.4883c5.3221 5.2184 11.038 10.78 12.702 12.359l3.0251 2.8711 1.7658-1.5482c0.97105-0.85172 6.5943-5.8172 12.496-11.034l10.73-9.4847 9.8516-4.8498c5.4185-2.6672 10.094-4.926 10.39-5.0198 0.38024-0.12068 0.94316 0.12334 1.9224 0.83405 2.8844 2.0935 23.465 17.189 26.12 19.159l2.7761 2.0593 1.5896-1.4826c1.5914-1.4837 9.4481-9.1619 18.671-18.246 2.7006-2.6601 5.0311-4.8364 5.179-4.8364 0.14785 0 1.9442 2.0538 3.9915 4.5641 2.0473 2.5102 5.8297 7.1239 8.4057 10.253 2.576 3.1287 5.1188 6.2213 5.6508 6.8724 12.53 15.336 12.322 15.088 12.586 15.088 0.16262 0 8.6746-5.5063 26.286-17.004l1.0139-0.66198c0.01-8.7808 0.0237-16.741 0.03-26.307 0.0232-35.576 0.0232-76.249 0.0233-116.89h-205.15z"/>
  <path transform="matrix(.26458 0 0 .26458 -144.69 22.901)" d="m1726.2 0.50401c-3e-4 153.62-11.526 274.46-11.614 408.92-0.024 36.156 10.514 106.76 10.476 139.95l23.813-15.599 4.2382 1.0176c2.3307 0.56047 19.538 4.7272 38.238 9.2578l34 8.2363 48.217 28.109 52.324 25.059s10.295-116.46 10.239-289.98l12.295-318.39z"/>
  <path d="m-87.331 23.241c7e-5 40.645-9.3423 80.077-9.3191 115.65 6e-3 9.5662 0.0201 17.526 0.03 26.307l-3.0241-1.974-1.1214 0.26923c-0.61666 0.14829-5.1695 1.2507-10.117 2.4495l-8.9958 2.1792-25.515 14.875-9e-3 2.9766c-5e-3 1.6371-0.0697 2.9766-0.14417 2.9766-0.0745 0-0.12333-37.564-0.10854-83.476l0.0265-83.476z"/>
 </g>
</svg>
